<?xml version="1.0" encoding="utf-8"?>
<!-- Generator: Adobe Illustrator 22.0.1, SVG Export Plug-In . SVG Version: 6.00 Build 0)  -->
<svg version="1.1" id="Layer_1" xmlns="http://www.w3.org/2000/svg" xmlns:xlink="http://www.w3.org/1999/xlink" x="0px" y="0px"
	 viewBox="0 0 58 58" style="enable-background:new 0 0 58 58;" xml:space="preserve">
<g id="Bank_Location">
	<g>
		<path d="M5.8798218,23.8537598c0.4899902,1.5,0.9799805,3,1.460022,4.5
			C7.1098022,28.213623,6.8898315,28.0837402,6.65979,27.9436035c0.460022,1.840332,1.1300049,3.6201172,1.9800415,5.3100586
			c-0.2700195-0.0698242-0.5499878-0.1298828-0.8200073-0.199707c0.3800049,1.5297852,0.7600098,3.0698242,1.1499634,4.6000977
			c-0.1599731-0.3300781-0.5-0.5703125-0.8699951-0.590332c0.3400269,1.3100586,0.6800537,2.6298828,1.0200195,3.9399414
			c-0.5999756-0.3798828-1.1300049-0.8598633-1.5899658-1.3896484c0.6699829,4.7597656,1.2799683,8.7099609,1.2799683,8.7099609
			l15.3400269,3.1298828l10.4899902-2.2602539c0.6599731-0.699707,1.3200073-1.3999023,1.9899902-2.0898438
			c0.039978,0.4399414,0.0800171,0.8701172,0.1300049,1.3100586c1.1099854-0.4501953,2.2199707-0.8999023,3.3300171-1.3500977
			c-0.1000366,0.4399414-0.2000122,0.8701172-0.3099976,1.3100586c1.4299927,0.2998047,2.8599854,0.5898438,4.2799683,0.8901367
			c-0.1699829,0.2197266-0.3499756,0.4399414-0.5299683,0.659668c2.0199585,0.6103516,4.039978,1.2202148,6.0599976,1.8203125
			v-0.6394043c2.2416725,1.2104988,2.1626663,1.2092285,2.2803345,1.2092285c0.1401596,0,0.25-0.1142311,0.25-0.25V27.0437012
			c0-0.0874023-0.0458984-0.168457-0.1201172-0.2138672l-7.2885742-4.4121094
			c1.0288086-1.75,1.9770508-3.7773438,1.9770508-6.0400391c0-5.8579102-4.9189453-10.6240234-10.9658203-10.6240234
			S24.756897,10.5197754,24.756897,16.3776855c0,2.8134766,1.3868408,5.2978516,2.9501343,7.6755371l-6.008728,2.717041
			L8.0586548,20.8942871c-0.1736946-0.0765076-0.3779712,0.070055-0.3457031,0.269043l0.5005493,3.1535645l-2.3136597-0.583252
			C5.8898315,23.7736816,5.8898315,23.8137207,5.8798218,23.8537598z M35.7227173,6.2536621
			c5.7705078,0,10.4658203,4.5415039,10.4658203,10.1240234c0,3.7641354-1.8754196,5.6050148-10.4648438,19.3339844
			l-5.4033203-8.6235352c-2.1047382-3.3531857-5.0634766-6.741045-5.0634766-10.7104492
			C25.256897,10.795166,29.9522095,6.2536621,35.7227173,6.2536621z M21.8027954,27.2717285l6.182251-2.7954102
			c3.3253784,4.9784393,1.4561291,2.2367554,5.8192139,9.1135254c-2.8569946,0.9038086-5.8438721,1.6623535-8.8911133,2.248291
			c-0.3223038,0.0626068-0.2339344,0.5526505,0.09375,0.4912109c3.1109009-0.5981445,6.1608276-1.3737793,9.0720825-2.3010254
			l1.2663574,2.020752c-1.5168381-0.0772171-3.4199829,0.9202843-3.4199829,1.5751953
			c0,0.4731445,0.9503784,0.6064453,2.1226196,0.2976074c1.1723022-0.3088379,2.1226196-0.9431152,2.1226196-1.4165039
			c0-0.1201172-0.0622559-0.2177734-0.1727905-0.2924805l2.2288818-3.5178223
			c0.1384888,3.9143066,0.3840332,7.8310547,0.7538452,11.652832c0.0324707,0.3309402,0.528717,0.2836342,0.4980469-0.0478516
			c-0.3915405-4.0454102-0.6554565-8.1970215-0.7860107-12.340332c5.0789299-8.0217953,5.1935539-8.1814899,5.7605591-9.1132813
			l7.1670532,4.3383789v24.4584961c-13.6988068-7.4396553-12.9290733-7.1352577-13.1181641-7.0668945l-14.6875,4.8325195
			l-11.8007813-4.3393555L8.2783813,21.532959C22.4314919,27.5965977,21.61092,27.3573341,21.8027954,27.2717285z"/>
		<path d="M24.0020142,47.7565918c-1.1689453-6.2124023-1.8974609-12.5688477-2.1669922-18.8925781
			c-0.0143929-0.3370342-0.5136814-0.3011799-0.5,0.0214844c0.2705078,6.347168,1.0019531,12.7275391,2.1748047,18.9638672
			C23.5741234,48.1788864,24.0625267,48.0801048,24.0020142,47.7565918z"/>
		<path d="M21.397522,36.2995605c-3.0136719-0.6831055-5.9326172-1.7524414-8.6767578-3.1787109
			c-0.2909107-0.1548386-0.5251055,0.2913628-0.2304688,0.4433594c3.9826431,2.0710297,8.4541855,3.2290039,8.8515625,3.2290039
			C21.6393204,36.7932129,21.6857643,36.3647842,21.397522,36.2995605z"/>
		<path d="M40.7949829,33.2102051c9.9691658,3.0750656,9.3870087,2.90625,9.4462891,2.90625
			c0.2870636,0,0.3453751-0.4054146,0.0742188-0.4887695l-9.3720703-2.8950195
			C40.6238289,32.6340675,40.4814224,33.1138153,40.7949829,33.2102051z"/>
		<path d="M15.069519,7.1894531c1.7465267,1.1747532,6.0850277,3.3497305,8.4220581,3.8154297
			C21.5367012,8.7611885,18.0769234,7.0001273,15.069519,7.1894531z"/>
		<path d="M16.8370361,13.3417969c1.6319714,0.320055,2.8718891,0.1139927,3.7902832,0.2233887
			c0.8673668,0,1.6571407-0.3082724,2.1450806-1.029541c-1.3096008-0.6719923-2.3300495-0.1624355-3.0165405-0.0444336
			C18.7689209,12.6989746,17.8048706,12.9851074,16.8370361,13.3417969z"/>
		<path d="M25.0371094,9.3776855c-0.2077427-1.3737574-1.1491776-1.7508383-1.6316528-2.1704102
			c-0.7089844-0.5654297-1.4620972-1.0664063-2.2773438-1.5209961c0.4171143,0.848877,0.9790039,1.5710449,1.5446777,2.267334
			c0.3582191,0.4252863,0.4281197,0.7225657,0.8953857,1.0478516C23.9516602,9.2675781,24.4093018,9.4645996,25.0371094,9.3776855z"
			/>
		<path d="M35.7227173,24.673584c4.5531616,0,8.2442627-3.690918,8.2442627-8.2441406s-3.6911011-8.2441406-8.2442627-8.2441406
			s-8.2442627,3.690918-8.2442627,8.2441406S31.1695557,24.673584,35.7227173,24.673584z M42.6282349,15.3054199
			c0,0.333107-0.5042114,0.3336077-0.5042114,0C42.1240234,14.9723911,42.6282349,14.9718122,42.6282349,15.3054199z
			 M41.9906006,14.126709c0,0.3431273-0.519043,0.3429804-0.519043,0
			C41.4715576,13.782793,41.9906006,13.7832193,41.9906006,14.126709z M35.1725464,12.2385254l0.0075073-0.8769531
			c0.0049973-0.6044445,1.036602-0.5984631,1.0299072,0l-0.0098267,0.8725586
			c0.7394676,0.0536985,1.5357437,0.2798223,2.1196289,0.7285156c0.511013,0.3782949,0.0039825,1.1261892-0.637085,0.7353516
			c-1.3882332-0.8448153-3.9169388-0.7254515-3.9240723,0.7753906c-0.0073624,1.5927963,2.9897842,0.8611546,4.4011841,2.0493164
			c1.0690765,0.9042416,0.7224846,3.0421677-2.0460205,3.3652344l-0.0095215,0.8442383
			c-0.0064507,0.5747566-1.008812,0.5726662-1.0038452,0l0.006897-0.8188477
			c-1.0812187-0.0469913-1.8768578-0.3012428-2.4536743-0.6298828c-0.6094551-0.3374062-0.1960793-1.1906948,0.4939575-0.8413086
			c1.4336739,0.803709,4.2642975,0.8738995,4.2863159-0.5981445c0.022316-1.5075836-3.0529671-0.8120251-4.3961792-2.0234375
			C31.9435921,14.8310204,32.327343,12.4882832,35.1725464,12.2385254z M30.8145752,10.701416
			c0.6056519-0.5991211,1.3742676-0.9741211,1.9887085-1.5327148c-1.1934814,1.0493164-1.928772,2.5380859-2.0258789,4.1137695
			c-0.0134277,0.21875-0.0922852,1.090332,0.0931396,1.2392578c-0.3236332-0.2602539-0.6471558-0.5205078-0.9707031-0.7807617
			c0.1322021,1.3364258,0.6012573,2.6381836,1.3518677,3.7514648c-0.4620972-0.2182617-0.9242554-0.4365234-1.3863525-0.6552734
			c0.0391846,0.0185547,0.0808716,0.921875,0.1021729,1.0302734c0.2649803,1.350359,0.5739918,1.4091263,1.5206909,2.8847656
			c-0.4407349-0.1088867-0.8814697-0.2177734-1.3222046-0.3271484c0.2874756,0.4863281,0.6097412,0.9516602,0.9633179,1.3920898
			c0.2305908,0.2871094,0.5327759,0.8183594,0.8562012,0.9555664c-0.6501465-0.140625-1.3911133-1.0454102-1.7730103-1.5429688
			C28.0449791,18.4056664,27.949852,13.5343008,30.8145752,10.701416z"/>
		<path d="M12.821228,27.7758789c-0.2849121-0.251709-0.5698242-0.503418-0.8547363-0.755127
			c0.8144531-0.2346191,1.7088013-0.1806641,2.4891357,0.1501465c-0.3308105-0.3078613-0.6616211-0.6159668-0.9924316-0.9238281
			c1.939209,0.1472168,3.975647,0.470459,5.8173828,1.0952148l-9.0117798-3.7497559
			c0.5320826,3.6082706,0.6469946,4.585186,0.8948364,6.1384277C11.1986084,28.9189453,11.7582397,27.4973145,12.821228,27.7758789z
			"/>
		<path d="M47.437561,43.2907715c-0.1436806-0.0424042-0.1355553-0.0792885-0.1446533-0.2106934
			c-0.0298653-0.4331055-0.8164597-0.4444885-0.6917114,0.3806152c0.1286964,0.8503799,1.1391029,1.1140442,1.3934326,0.5141602
			c0.0681152-0.1606445,0.024353-0.3513184-0.0770264-0.4885254C47.8197021,43.3535156,47.5876465,43.3352051,47.437561,43.2907715z
			"/>
		<path d="M46.8043213,41.2961426c-0.0405273-0.0234375-0.0916748-0.0209961-0.1335449-0.0419922
			c-0.0606689-0.0302734-0.0872192-0.1005859-0.1223145-0.1586914c-0.0350952-0.0578613-0.1027832-0.112793-0.164917-0.0856934
			c-0.1237221,0.0544319-0.0179596,0.2303009-0.0839844,0.3278809c-0.0304565,0.0454102-0.0895386,0.0639648-0.1328735,0.1157227
			c-0.0464325,0.0678558-0.0213852,0.1799088,0.114563,0.2487793C46.675312,41.9011917,47.0175858,41.4201393,46.8043213,41.2961426
			z"/>
		<path d="M47.9424438,41.8684082c0.0333252,0.0834961,0.0790405,0.1706543,0.0596924,0.2585449
			c-0.0147705,0.0668945-0.0661621,0.1235352-0.0704346,0.1921387c-0.0136719,0.21875,0.2615967,0.1750488,0.3589478,0.072998
			c0.0996704-0.104248,0.1782837-0.3186035,0.1559448-0.4631348C48.3930664,41.5817871,47.7672119,41.4287109,47.9424438,41.8684082
			z"/>
	</g>
</g>
</svg>
