<?xml version="1.0" encoding="utf-8"?>
<!-- Generator: Adobe Illustrator 22.0.1, SVG Export Plug-In . SVG Version: 6.00 Build 0)  -->
<svg version="1.1" id="Layer_1" xmlns="http://www.w3.org/2000/svg" xmlns:xlink="http://www.w3.org/1999/xlink" x="0px" y="0px"
	 viewBox="0 0 75 75" style="enable-background:new 0 0 75 75;" xml:space="preserve">
<g id="Secure_Travel">
	<path d="M42.0590019,69.9951324c4.8874207,0,7.8792305-1.4009171,8.7553711-1.6557617
		c0.0003052,0,0.0003662-0.0004883,0.0006714-0.0004883c9.2557983-3.5554199,15.4739342-12.6337852,15.4739342-22.5937462
		c0-13.5775757-11.3621521-24.3861656-24.2897911-24.2280293c-0.6258545-1.185791-1.7970581-1.9667969-3.1288452-2.0856934
		c1.1729736-5.4221191-0.1546631-10.7648926-0.8015747-12.8562012c-0.1987152-0.6806479-0.8086815-1.1724825-1.6644287-1.0144043
		c-0.1882935-0.0517578-0.3838501-0.0739746-0.5684814-0.0368652c-2.4543571,0.4644866-5.0432873,0.5288515-7.4111347-0.4223633
		c-0.2443237-0.0981445-0.4968872-0.0898438-0.7406616-0.0300293c-0.4876709-0.1569824-0.9940186-0.0344238-1.3403931,0.3425293
		c-2.0771484,2.2211914-5.7099609,3.0180659-7.171875,3.2568355c-0.7099609,0.1108398-1.206543,0.8022461-1.1303711,1.5756836
		c0.5007362,4.855134,2.0624561,10.2915955,5.1921387,14.0605469c-1.6571369,1.7124386-1.4430447,4.340313,0.3803101,5.7883301
		c-3.7248535,4.3654804-5.7848511,9.8652363-5.7848511,15.6496601
		C17.8290195,59.1167183,28.6986485,69.9951324,42.0590019,69.9951324z M55.7211113,59.5708199
		c-0.6791992-0.8901367-0.8515625-2.3344727-0.0258789-3.0649414c0.5718422-0.5070267,1.6662483-0.748024,2.0800781-1.7128906
		c0.6010742-1.3994141-0.8203125-2.6796875-1.3554688-3.1616211c-0.2319336-0.2089844-1.3662109-1.2861328-0.9140625-1.9931641
		c0.4199867-0.6567993,1.2983665-0.4475441,9.5739708-0.9116211c-0.6418457,4.8955078-2.8285484,9.4282227-6.1406822,12.9545898
		C57.7686539,61.1569672,56.4897079,60.577877,55.7211113,59.5708199z M65.1971817,47.7192574l-8.2148399,0.4150391
		c-0.5708008,0.0292969-1.7592773,0.0893555-2.3193359,0.9658203c-0.5830078,0.9121094-0.1762695,2.1362305,1.0878906,3.2744141
		c2.5525322,2.2988396,0.2773476,2.5012245-0.71875,3.3823242c-1.2822266,1.1352539-1.0537109,3.1787109-0.105957,4.4204102
		c0.848877,1.1120605,2.1414795,1.7495117,3.2624512,2.255127c-2.1572876,2.09692-4.7252197,3.7919884-7.6124268,4.9211388
		c-2.9398994-0.5877686-4.3999443-1.9549026-6.6334229-4.3998985c-3.5427856-3.9946289-5.8723755-8.9128418-6.6990967-14.0510254
		c1.03479,0.595787,3.8982353,0.4502945,5.7366943-1.1745605c1.1557617-1.0219727,1.8833008-2.8291016,0.9555664-4.1655273
		c-0.4091072-0.5878372-1.0280685-0.9051208-1.4975586-1.2827148c-0.3208008-0.2592773-0.659668-0.6894531-0.5566406-1.0483398
		c0.1371422-0.4766083,1.4900475-1.2151108,1.1606445-3.152832c-0.3991508-2.3572807-2.9555168-3.1630135-4.7429199-1.8308105
		c1.5530396-4.7180195,4.3473511-9.0329609,8.1174316-12.2551289c0.3146362-0.2736816,0.6277466-0.5437012,0.9578857-0.826416
		C58.3623924,25.7215919,66.1954575,36.1629944,65.1971817,47.7192574z M37.8106499,37.9048042
		c0.2184448,0.050293,0.4481201-0.0407715,0.555481-0.2480469c0.7265129-1.4068794,3.3274879-1.5526581,3.6904297,0.5888672
		c0.2661133,1.5702057-0.8476486,1.7041359-1.1357422,2.7099609c-0.2016602,0.7036133,0.1308594,1.4897461,0.8896484,2.1025391
		c0.4647026,0.3747139,1.0197334,0.6661415,1.3041992,1.0751953c0.5766602,0.8305664,0.0478516,2.0991211-0.7963867,2.8457031
		c-1.2509766,1.1044922-3.0908203,1.5048828-4.6855469,1.0195313c-0.1802979-0.0541992-0.3615112,0.0029297-0.4875488,0.1240234
		C36.7081375,44.7761803,36.8688698,41.4981079,37.8106499,37.9048042z M41.4686699,23.3549976
		c0,1.0561523-0.5693359,2.0351563-1.4907227,2.5576172c-1.5309029,0.8888149-3.7820396,0.1551685-4.305542-1.8237305
		c-0.2891426-1.1161213,0.1120758-2.2160378,0.845459-2.8962402C38.4298744,19.4301033,41.4686699,20.8224773,41.4686699,23.3549976
		z M19.0365391,10.1465015c-0.0239258-0.2441406,0.1030273-0.4584961,0.2929688-0.487793
		C25.6741066,8.6203938,26.816,5.8462071,27.3509922,6.0000176c1.8431244,0.9727592,6.5031185,1.0176353,8.9236469,0.5913086
		c0.0907784,0.070281,0.1481857,0.1586304,0.1759644,0.2504883c1.2209969,3.9866347,1.6834755,8.6981888,0.673584,12.8188477
		c-0.4621162,0.1734638-0.9124641,0.4748535-1.2206421,0.7485352c-1.6494102,0.9708691-2.4466019,3.0992413-1.5502319,5.0288086
		c-0.8185959,1.0247459-1.864769,1.9928532-2.8187275,2.6870117c-0.0820313,0.0351563-0.2075195,0.0014648-0.4506836-0.0683594
		c-0.7919483-0.2481327-2.002821-0.5282383-3.121582-1.1088867C22.3495483,24.1309528,19.693018,16.5159683,19.0365391,10.1465015z
		 M24.038126,25.2270679c1.2637558,1.3098412,2.8286762,2.4371243,4.6260986,3.1176758
		c-0.1273727,0.2501602-0.2275391,0.4887428-0.6098022,0.8342285C25.4925461,30.5465393,22.708765,27.7683392,24.038126,25.2270679z
		 M26.059,30.9653492c1.4620228,0,2.2291489-0.7233944,2.7886963-1.104248
		c-0.2304688,0.4567871-0.4558105,0.9165039-0.6646729,1.3820801c-0.1488724,0.330471,0.0949173,0.7045898,0.4555664,0.7045898
		c0.5350304,0,0.3058681-0.3043747,1.847168-3.0229492c0.5102005,0.1454124,0.4749794,0.1427155,0.7060547,0.1845703
		c0.5166569,0.0932598,1.2216702,0.1207809,1.6420918-0.1904297c0.9051514-0.6616211,1.720459-1.4091797,2.4449463-2.2248535
		c3.0338478,2.7664833,7.909771-0.5241241,7.0980225-4.177002c1.0457535,0.0140705,2.4978905,0.1346321,3.7797852,0.3774414
		C33.0549393,34.242878,33.0109558,52.1359253,43.1996269,63.6225777c1.6809692,1.8398399,3.3908081,3.5502892,5.6693726,4.3305626
		c-4.2354393,1.3257675-8.899189,1.4221039-13.4151001,0.0791016c0.080513-0.5096436-0.3236237-0.3751144-2.380249-3.0283203
		c-0.4015808-0.5229874-1.1967697,0.0883636-0.7900391,0.6123047c0.5036621,0.6501465,1.0419922,1.2753906,1.5931396,1.885498
		c-15.1302834-5.7189331-19.9208183-24.7153244-9.4077168-36.8757324C24.956461,30.8410816,25.4925938,30.9653492,26.059,30.9653492
		z"/>
	<path d="M25.2049961,45.3701363c0.0071182,0.6665916,1.0070553,0.6545067,1-0.0097656
		c0.0081997-0.1661263-0.1088467-3.1546135,0.7050781-7.0063477c0.1367168-0.6473579-0.8414593-0.8548279-0.9785156-0.2070313
		C25.0963612,42.1008835,25.2136478,45.1948624,25.2049961,45.3701363z"/>
	<path d="M26.0795078,52.5776558c0.5517578,2.3525391,1.3598633,4.6567383,2.4013672,6.8486328
		c0.2831631,0.5970688,1.1888237,0.1704865,0.9033203-0.4287109c-1.0112305-2.128418-1.7954102-4.3652344-2.3310547-6.6484375
		C26.9019356,51.7082596,25.9282494,51.9315796,26.0795078,52.5776558z"/>
	<path d="M49.2650566,36.3296089c0.6892433,0.1697235,1.4204178-0.0649033,1.7861328,0.175293
		c0.647438,0.4219246,0.2852783,2.1927795,2.449707,2.8266602c2.8690567,0.8400803,4.5356293-2.508564,3.0043945-4.4394531
		c-0.2836914-0.3574219-0.6337891-0.625-0.9726563-0.8833008c-1.0276833-0.7848473-1.1281509-1.0162277-1.0922852-2.2548847
		c0.0126953-0.4360352,0.0253906-0.887207-0.0898438-1.3432617c-0.3061523-1.2138672-1.5678711-2.105957-2.8144531-1.9858398
		c-1.3327675,0.1264534-1.791275,0.9976425-2.3413086,2.1147461c-0.461441,0.9243126-1.3236389,1.6575146-1.5424805,2.9008808
		C47.4510918,34.5903511,48.0106621,36.0219917,49.2650566,36.3296089z M48.6376152,33.6133003
		c0.1035156-0.5913086,0.4418945-1.074707,0.7998047-1.5864258c1.1505356-1.6429195,1.0560036-2.4990273,2.1933594-2.6069355
		c0.7612305-0.0678711,1.5629883,0.4931641,1.75,1.2353516c0.2022972,0.798296-0.1559372,1.8212948,0.2880859,2.7915058
		c0.7050743,1.5422707,2.7134705,1.5768204,2.3779297,3.5131836c-0.348053,2.0085602-2.7909241,1.8055687-3.4204102,0.4829102
		c-0.4087868-0.8610573-0.4336929-2.0541992-2.1669922-2.0541992c-0.3590508,0-0.6869011,0.0362015-0.9555664-0.0297852
		C48.8417168,35.1963081,48.5155449,34.3081245,48.6376152,33.6133003z"/>
	<path d="M28.6732578,18.9067554c0.455965-0.0701485,0.2443199-0.1854,2.9433594-5.2597656
		c0.3022022-0.5868998-0.5848923-1.0479727-0.8886719-0.4580078l-2.2568359,4.3789063l-1.765625-1.8007813
		c-0.4627609-0.4721107-1.1774044,0.227293-0.7138672,0.7001953C28.3500786,18.798296,28.2512856,18.964674,28.6732578,18.9067554z"
		/>
	<path d="M13.0638838,25.2221851C9.930583,28.7363453,8.3319502,33.6328316,8.7875166,38.319355
		c0.0642881,0.6668282,1.0592499,0.5597992,0.9951172-0.0966797c-0.4287109-4.4140625,1.0766602-9.0253925,4.0273438-12.3354511
		C14.2503462,25.3942909,13.503994,24.7283745,13.0638838,25.2221851z"/>
	<path d="M13.118083,40.1914253c-0.0727539-2.2666016,0.3544922-4.5698242,1.2363281-6.6601563
		c0.25735-0.612236-0.6658592-0.9949646-0.921875-0.3886719c-0.9370117,2.2226563-1.3916016,4.6708984-1.3134766,7.0810547
		C12.1395473,40.8913078,13.1403675,40.8541069,13.118083,40.1914253z"/>
	<path d="M58.1132011,11.860857c-3.4775391-0.7836914-7.0424805-1.0273438-10.5913086-0.7207031
		c-0.6577988,0.0560827-0.5749626,1.0563822,0.0859375,0.9960938c3.449707-0.2958984,6.9086914-0.0600586,10.2856445,0.7001953
		C58.5476685,12.9827757,58.7509651,12.0041237,58.1132011,11.860857z"/>
	<path d="M48.3309746,16.5654469c-0.626503,0.2154713-0.2987442,1.1608543,0.3251953,0.9453125
		c1.9047852-0.6547852,4.0205078-0.7128906,5.9575195-0.1625977c0.6338043,0.1824226,0.9114914-0.7812881,0.2734375-0.9619141
		C52.7538261,15.7802906,50.4266777,15.8437672,48.3309746,16.5654469z"/>
</g>
</svg>
