<?xml version="1.0" encoding="utf-8"?>
<!-- Generator: Adobe Illustrator 22.0.1, SVG Export Plug-In . SVG Version: 6.00 Build 0)  -->
<svg version="1.1" id="Layer_1" xmlns="http://www.w3.org/2000/svg" xmlns:xlink="http://www.w3.org/1999/xlink" x="0px" y="0px"
	 viewBox="0 0 58 58" style="enable-background:new 0 0 58 58;" xml:space="preserve">
<g id="Market_Analysis">
	<g>
		<circle cx="14.8672915" cy="18.1867847" r="0.6199341"/>
		<path d="M16.9421825,18.688982c0.3424072,0,0.6199951-0.2773438,0.6199951-0.619873s-0.2775879-0.6201172-0.6199951-0.6201172
			c-0.3424683,0-0.6200562,0.2775879-0.6200562,0.6201172S16.5997143,18.688982,16.9421825,18.688982z"/>
		<path d="M19.1417065,18.688982c0.3424072,0,0.6199951-0.2773438,0.6199951-0.619873s-0.2775879-0.6201172-0.6199951-0.6201172
			c-0.3424683,0-0.6200562,0.2775879-0.6200562,0.6201172S18.7992382,18.688982,19.1417065,18.688982z"/>
		<path d="M12.965497,22.8447437c0.1006937,0,3.1787577-0.2377033,3.078126-0.2412109
			c0.3265228-0.0254726,0.2977791-0.5259438-0.0390625-0.4980469l-3.0585947,0.2402344
			C12.6292076,22.3704319,12.6466236,22.8447437,12.965497,22.8447437z"/>
		<path d="M12.9000673,24.6172047c0.1006937,0,1.7823219-0.1326523,1.6816406-0.1342773
			c0.1376953-0.0107422,0.2402344-0.1313477,0.2294922-0.269043c-0.0117188-0.1376953-0.1464844-0.2402344-0.2685547-0.2290039
			l-1.6621094,0.1333008C12.5631886,24.1429405,12.5823364,24.6172047,12.9000673,24.6172047z"/>
		<path d="M41.1799126,38.4587593c-3.4194336,0-3.4194336,0.3234863-6.8388062,0.3234863
			c-3.4224224,0-3.4224224-0.427002-6.8447857-0.427002c-3.4247437,0-3.4247437-0.036377-6.8494873-0.036377
			s-3.4247437,0.3825684-6.8494883,0.3825684c-0.1740112,0-0.1384277-0.0229492-0.2355957,0.1213379
			c-1.1317749,1.6816406-1.4445801,1.4709473-2.5762939,3.1523438c-0.2337646,0.3474121,0.1297607,0.9484863,0.5484009,0.9484863
			c4.0425415,0,4.0425415-0.1682129,8.085084-0.1682129c4.0412598,0,4.0412598,0.3452148,8.0825195,0.3452148
			c4.0440063,0,4.0440063-0.2905273,8.0880108-0.2905273s4.0440063-0.2197266,8.0880737-0.2197266
			c0.4387207,0,0.4917603-0.078125,0.2172241-0.4204102c-1.3488159-1.6813965-1.1147461-1.8691406-2.463562-3.5505371
			C41.5319633,38.4956245,41.3385429,38.4587593,41.1799126,38.4587593z M13.3347597,41.8989449
			c-0.9193068,0.1135712-0.999073-0.3145523-0.6079712-0.8562012c0.2216187-0.3068848,0.4645386-0.6047363,0.7270508-0.8913574
			c0.207696-0.2272148,0.4896498-0.6313858,0.7941284-0.7490234c-0.0736694,0.3740234-0.3198853,0.8432617-0.5734253,1.175293
			c0.4431763-0.1657715,0.8864136-0.331543,1.3295898-0.4973145c-0.4185791,0.2875977-0.8372192,0.5751953-1.2557983,0.8630371
			c0.8895874-0.0656738,1.7791748-0.1313477,2.6687632-0.1967773c-0.6434336,0.2141113-1.2868052,0.4282227-1.9302378,0.6425781
			c2.0081186-0.2939453,4.2615366-0.0185547,6.1412363,0.4438477
			C18.2382641,41.5766792,15.7747011,41.5991402,13.3347597,41.8989449z M37.6957207,40.7383003
			c-0.2090492,0-0.2092361-0.1992188,0-0.1992188C37.9048691,40.5390816,37.9049187,40.7383003,37.6957207,40.7383003z
			 M37.1475639,39.6772652c0-0.3968315,0.9876099-0.3971443,0.9876099,0
			C38.1351738,40.0743103,37.1475639,40.0749931,37.1475639,39.6772652z M38.9305229,40.5070992
			c-0.436264,0-0.4309654-0.3137207,0-0.3137207C39.3616257,40.1933784,39.3666878,40.5070992,38.9305229,40.5070992z"/>
		<path d="M30.5494213,44.2046089c-0.0488281-0.1040039-0.1010742-0.1352539-0.2159424-0.1352539
			c-2.9172974,0-2.9172974-0.1398926-5.8345947-0.1398926c-0.1204224,0-0.2414551,0.1481934-0.2869263,0.2595215
			c-0.4854126,1.1906738-0.5479126,1.1652832-1.0333252,2.355957c-0.0794067,0.1948242,0.1389771,0.40625,0.3493652,0.40625
			c3.9614258,0,3.9614258-0.0185547,7.9229126-0.0185547c0.2169189,0,0.3238525-0.1577148,0.2316895-0.3540039
			C31.1239452,45.3879585,31.1081371,45.3952827,30.5494213,44.2046089z M24.6189404,46.4658394
			c-0.7011852-0.0431023-0.552103-0.4521103-0.2418213-1.0854492c0.0158653-0.0323448,0.1744919-0.3523216,0.2052612-0.3713379
			c0.0367222,0.0611305-0.1270008,0.2387695-0.0567627,0.5708008c0.0844116,0.3999023,0.4661255,0.6828613,0.8642578,0.7756348
			s0.8140259,0.0322266,1.2183228-0.0285645C25.9755077,46.5454292,25.2869701,46.506855,24.6189404,46.4658394z"/>
		<path d="M12.1540956,44.6333199c-0.3500366,0-0.6338501,0.0842285-0.6338501,0.1879883
			c0,0.1035156,0.2838135,0.1877441,0.6338501,0.1877441s0.6337891-0.0842285,0.6337891-0.1877441
			C12.7878847,44.7175484,12.5041323,44.6333199,12.1540956,44.6333199z"/>
		<path d="M13.3536196,45.854023c0.4198217,0,0.423563-0.1877441,0-0.1877441
			C12.9286995,45.6662788,12.9356966,45.854023,13.3536196,45.854023z"/>
		<path d="M11.4293642,13.8015318c-0.3102894-2.0056343-1.6649494-4.283494-3.4692383-5.2692871
			C8.5399256,9.845974,10.2501879,12.6808605,11.4293642,13.8015318z"/>
		<path d="M8.8442202,14.2353697c0.5087957,0.3205385,1.074852,0.4227495,1.6126099,0.1872559
			c-0.2303467-0.3898926-0.4950562-0.5986328-0.7839355-0.7644043c-0.1696749-0.1044827-1.6226254-0.6530685-2.9342041-0.9326172
			C7.5633521,13.504591,8.3544292,13.8377247,8.8442202,14.2353697z"/>
		<path d="M12.9138613,13.4257994c0.380682-0.8688908-0.0251379-1.4285851-0.1507568-1.8466797
			c-0.2030029-0.5847168-0.4550171-1.1479492-0.7598267-1.7072754c-0.1090546,1.020298,0.1023169,1.7903748,0.0895996,2.3312988
			C12.1511335,12.7592573,12.4209499,13.2021446,12.9138613,13.4257994z"/>
		<path d="M21.7143383,25.2126637c0.0552845-0.695013,0.4360466-1.3407421,0.5893555-1.5
			c0.1306763-0.135498,0.3566895-0.2199707,0.522644-0.3034668c-0.246521-0.0356445-0.493103-0.0710449-0.7396851-0.1064453
			c0.2796631-0.4816895,0.6678467-0.8999023,1.1272583-1.2148438c-0.362854,0.0087891-0.7214966,0.144043-0.9997559,0.3769531
			c0.0472412-0.4511719,0.3184814-0.873291,0.7091675-1.1037598c0.6349487-0.3747559,1.4689331-0.291748,2.1790161-0.4899902
			h-3.5744019C21.68396,25.2792645,21.717617,25.1749554,21.7143383,25.2126637z"/>
		<path d="M36.0279961,25.6206226l-0.0478516,0.9658203l0.1015625,0.8969727l0.015625,0.8994141l-0.0654297,0.925293
			c-0.0115242,0.1440544,0.0975151,0.2712936,0.2734375,0.2666016l0.9179688-0.0957031l0.9873047,0.097168l0.9648438,0.0087891
			c2.6059837-0.04883,2.17836,0.2971344,2.0908203-1.1791992l0.1005859-1.8945313l-0.1005859-0.8925781l0.0185547-0.8959961
			l0.1113281-0.9731445l-0.1474609-1.8066406l0.0693359-0.953125l-0.0498047-0.9047852l0.0097656-0.8544922
			c0.0009766-0.121582-0.0849609-0.2265625-0.2041016-0.2485352c-0.7380219-0.135088-0.8665886-0.1779213-0.9667969-0.1713867
			l-0.9736328,0.081543l-0.9160156,0.1083984c-2.7160339-0.1688175-2.2936745-0.4861259-2.0898438,1.0883789l0.0009766,1.8105469
			l-0.171875,0.9819336l0.0449219,0.8955078l-0.0458984,0.9545898L36.0279961,25.6206226z M36.6246758,20.0493336
			l-0.1083984-0.6782227l1.7119141,0.1274414l1.8867188-0.1870117l0.6611328,0.1230469l-0.0078125,0.6611328l0.0507813,0.8891602
			L40.7506523,21.9424l0.1484375,1.7988281l-0.1123047,0.9462891l-0.0185547,0.953125l0.1015625,0.8818359l-0.1025391,1.8935547
			l0.0566406,0.6630859c-0.102684-0.0000572-2.7522316-0.0015583-2.5869141-0.0014648l-1.0136719-0.0961914l-0.6728516,0.0664063
			l0.0458984-0.6513672l-0.0166016-0.9448242l-0.1015625-0.8793945l0.0488281-0.9580078l-0.0722656-0.8901367l0.046875-0.9467773
			l-0.0488281-0.8637695l0.171875-0.9682617C36.6246758,21.8441391,36.6246758,19.9269943,36.6246758,20.0493336z"/>
		<path d="M29.177412,22.1025562l0.0322266,0.9521484l-0.0712891,1.0136719l0.0263672,0.9692383l-0.0419922,1.0058594
			l0.0400391,0.96875l-0.0068359,1.9755859c-0.0009766,0.137207,0.109375,0.2495117,0.2470703,0.2509766l0.9794922,0.0117188
			c3.6310215-0.1135254,4.1620731,0.2530346,4.1415997-0.2348633l-0.0458984-1.0166016l0.0332031-1.015625l-0.0693359-0.9711914
			l-0.0097656-0.9711914l0.0439453-1.0073242l-0.0644531-0.9516602l0.0644531-0.9838867
			c0.010067-0.1409283-0.1026573-0.2650814-0.2470703-0.2661133c-0.1011887-0.0000496-3.1022263-0.0015602-2.9111309-0.0014648
			l-0.9345703,0.0581055l-0.9443359-0.043457C29.3173294,21.8282166,29.1729031,21.9425316,29.177412,22.1025562z
			 M29.637373,24.0791187l0.0712662-1.0146484l-0.022438-0.7080078l0.7001953,0.03125l0.9472427-0.0576172
			c0.1026859,0,2.7983227,0,2.6269741,0l-0.046875,0.7519531l0.0634766,0.956543l-0.0449219,0.9936523l0.0107422,1
			l0.0693359,0.9599609l-0.0341797,1.0092773l0.0341797,0.7666016l-1.7080078-0.0375977l-1.9208965,0.0200195l-0.7265625-0.0087891
			l0.0058594-1.7387695l-0.0400391-0.9589844l0.0419922-1.0024414L29.637373,24.0791187z"/>
		<path d="M36.8998833,23.0859547c0.0409393-0.5152016,0.3255615-1.0202408,0.4526978-1.1520996
			c0.1003418-0.1040039,0.2739258-0.1691895,0.4013672-0.2331543c-0.1893311-0.0273438-0.3787231-0.0544434-0.5681152-0.081543
			c0.2148438-0.3701172,0.5129395-0.6914063,0.8657837-0.9331055c-0.2786865,0.0065918-0.5541382,0.1103516-0.7678223,0.2895508
			c0.0362549-0.3466797,0.2446289-0.6708984,0.5446777-0.8479004c0.4876099-0.2878418,1.1281738-0.2241211,1.673584-0.3762207
			h-2.7453003C36.8896027,23.5151024,36.9030991,23.0490971,36.8998833,23.0859547z"/>
		<path d="M31.4845409,26.971941c0.0471935,0.0755119,0.0661259,0.0890465,0.0046997,0.1699219
			c-0.0630493,0.0827637-0.1800537,0.1833496-0.1807861,0.2932129c-0.0028839,0.4876232,0.7238903,0.4623337,0.7711163-0.1525879
			c0.0098267-0.1281738-0.0171509-0.2624512-0.0761719-0.376709C31.7433777,26.4032364,31.3385544,26.7381115,31.4845409,26.971941z
			"/>
		<path d="M31.4532299,25.6557789c-0.043396-0.0107422-0.0822754,0.0024414-0.1162109-0.0100098
			c-0.073494-0.02668-0.0852947-0.1630421-0.1728516-0.1435547c-0.0439453,0.0095215-0.0587158,0.0656738-0.0548706,0.1105957
			s0.0169678,0.0932617-0.0036011,0.1333008c-0.0142212,0.0275879-0.0425415,0.0463867-0.0551147,0.0749512
			c-0.0205688,0.0466309,0.010437,0.1030273,0.0545654,0.1281738
			C31.3889427,26.1112652,31.6307983,25.7202282,31.4532299,25.6557789z"/>
		<path d="M30.6820507,26.9924488c0.0919189,0.0168457,0.2562866-0.067627,0.1636963-0.1799316
			c-0.0289917-0.0351563-0.0786133-0.0454102-0.1126099-0.0756836c-0.0446167-0.0397949-0.0541382-0.1044922-0.0688477-0.1625977
			c-0.0776367-0.3051758-0.3530273,0.0222168-0.2463379,0.2299805
			C30.4623852,26.8906422,30.5880566,26.975359,30.6820507,26.9924488z"/>
		<path d="M46.8570976,31.5234547c-0.1054688-0.0883789-0.2597656-0.0761719-0.3496094,0.0268555l-0.2969971,0.3398438
			l-0.8681641-0.7102051c1.4083252-2.0654297,2.2404175-4.605957,2.0290527-7.2521973
			c-0.6675873-8.3852825-10.8145599-14.2174721-18.2347393-8.1955557c-0.4293213-0.0375977-0.9470215-0.0646973-1.6750488-0.0646973
			c-4.1516743,0-5.3814735-0.2230606-7.4804688,0.2099609c-1.4301376,0.293849-1.5043106,0.2700186-7.3896494,0.2700186
			c-1.0048828,0-1.6298828,0.3833008-1.6298828,1c0,1.2070313,0.0771484,1.8198242,0.1523438,2.4121094
			c0.2848978,2.2517872,0.0136032,2.3707008,0.2841797,4.7470703c0.4060183,3.5787621-0.1669922,4.4414711-0.1669922,7.0810547
			c0,2.3430042-0.2294922,2.3678036-0.2294922,4.739748c0,0.2827148,0.1274414,0.5419922,0.3540039,0.7416992
			c-0.0091553,0.0136719-0.0263672,0.0375977-0.0317383,0.0458984c0,0.0004883,0,0.0009766,0,0.0009766
			c-1.7722893,2.7970963-2.7637062,3.756897-4.8964844,7.5654297c-0.359375,0.6411133-0.7304688,1.3041992-1.5292969,2.5654297
			c-0.1542969,0.2436523-0.0703125,0.5830078,0.0595703,0.8198242c0.000061,0,0.0001831,0.0002441,0.0002441,0.0004883
			c-0.0034294,0.1409264-0.0349798-0.1210594,0.3054199,1.3537598c0.1066937,0.4459877-2.563369,0.1305199,45.1431885,0.230957
			c0.2959442,0,0.2830276-0.3238335,0.8914185-1.4318848c0.086853-0.1723633-0.0020752-0.3671875-0.1605225-0.4267578
			c0.0014648-0.0212402,0.0148315-0.043457,0.0106812-0.0629883c-0.0126953-0.0566406-0.0732422-0.2290039-0.3388672-0.2626953
			c-1.8610725-2.4445305-1.5591393-2.7026901-3.4912109-5.2226563c-1.9300423-2.5171089-1.5482178-2.8102722-3.5039063-5.3588867
			c-0.0841064-0.111084-0.274231-0.1801758-0.4557495-0.2236328c0.0147705-0.1010742,0.0231323-0.2111816,0.0231323-0.3349609
			c0-1.0731621,0.0698433-1.5739632,0.2194214-2.4714355l0.5856323,0.5505371l-0.2747803,0.3144531
			c-0.0908203,0.1035156-0.0800781,0.2612305,0.0234375,0.3520508l5.3808594,4.7446289
			c0.9712715,0.8941841,2.4983406,0.7955322,3.3447266-0.2280273c0.7607422-0.9199219,0.6875-2.293457-0.1796875-3.1391602
			L46.8570976,31.5234547z M20.8473339,27.6723804l0.1240234-0.9990234l-0.0888672-0.8935547l0.0947266-0.9882813
			l-0.0800781-0.9541016l-0.1318359-0.8852539l0.0908203-0.9633789l0.0205078-0.9580078l-0.0126953-0.715332l0.6523438-0.012207
			l2.7001953,0.0292969l0.8583984-0.0654297l0.4672852,0.0349121c-1.4793873,3.3968964-1.1529064,7.6527195,0.9486694,10.8295898
			c-0.264822-0.0440159-0.4424171-0.0999279-0.5429077-0.0788574l-0.8564453,0.1787109l-0.8847656-0.0751953l-0.875,0.0380859
			l-0.8730698-0.0327148l-0.8984146-0.1191406c-0.1000347-0.0130463-0.2708912,0.0266457-0.6787109,0.0751953l0.0419922-2.5576172
			L20.8473339,27.6723804z M41.4928398,18.2910328c1.6835938,1.4355469,2.7558594,3.5878906,2.9404297,5.9052734
			c0.3568993,4.4845257-3.5666542,8.9217854-7.8701172,9.2656269c-7.5902596,0.6028519-11.8418789-8.3717251-7.0439434-14.001955
			C32.8293571,15.574295,38.659359,15.8772879,41.4928398,18.2910328z M35.5213432,15.0876646
			c0.1188049,0.2616911,0.0978394,0.5920277-0.1494141,0.7460938c-0.1188965,0.0087891-0.2322388,0.0178223-0.3434448,0.0273438
			c-0.005249-0.0026855-0.012085-0.0004883-0.0171509-0.003418c-0.0899658-0.0600586-0.1399536-0.170166-0.1399536-0.2800293
			c0-0.1392126,0.1999512-0.2418699,0.1999512-0.3500977c0-0.0297852-0.0199585-0.0498047-0.039978-0.079834
			C34.9036713,14.9303951,35.2557678,14.6090441,35.5213432,15.0876646z M34.6813774,13.9975767
			c0.0199585-0.0297852,0.0100098-0.079834,0-0.119873c0-0.124588,0.0754852-0.147049,0.1399536-0.0500488
			c0.0875893,0.131381,0.0762444,0.0641346,0.1800537,0.0900879c0.0299683,0.0100098,0.0499878,0.0397949,0.0599976,0.0698242
			c0,0.3333464-0.5056648,0.2692642-0.4299927,0.0800781C34.6413383,14.0476255,34.6613579,14.027606,34.6813774,13.9975767z
			 M34.2713432,14.777606c0.0100098,0.0500488,0.0200195,0.1101074,0.0599976,0.1501465
			c0.0300293,0.0297852,0.0800171,0.0400391,0.1000366,0.0698242c0.0899658,0.1101074-0.0599976,0.1899414-0.1500244,0.170166
			c-0.0899658-0.0200195-0.2000122-0.1000977-0.25-0.1801758C33.9313774,14.7976255,34.1913872,14.4875669,34.2713432,14.777606z
			 M11.731122,31.3877125c0-2.5801334,0.5637178-3.590271,0.1640625-7.137207
			c-0.2653046-2.3097153,0.003335-2.4568787-0.2851563-4.753418c-0.0761719-0.6035156-0.1484375-1.1738281-0.1484375-2.3496094
			c0-0.4858398,1.0146484-0.5,1.1298828-0.5c5.9041243,0,6.0753698,0.0111542,7.4902353-0.2802734
			c2.0781097-0.4283247,3.0077362-0.199707,7.3798828-0.199707c0.4522705,0,0.8178101,0.0102539,1.1317749,0.0270996
			c-1.2024841,1.0868931-2.092205,2.1738987-2.8126221,3.6257324l-0.704895-0.0522461l-0.8769531,0.0649414l-2.6835938-0.0297852
			l-0.9101563,0.0170898c-0.1376953,0.0024414-0.2470703,0.1162109-0.2451172,0.2543945l0.0166016,0.9550781l-0.0195313,0.9301758
			l-0.0878906,1.0039063l0.1318359,0.9291992l0.078125,0.894043l-0.0947266,0.9912109l0.0898438,0.8862305l-0.1240234,0.9956055
			l0.0742188,0.9111328l-0.0458984,2.8261719c-0.0021172,0.1565533,0.1403141,0.2726612,0.2802734,0.2509766l0.8671875-0.105957
			l0.8896484,0.1171875l0.9169922,0.034668l0.8632813-0.0390625c0.0513153,0.0044346,0.9114647,0.0831413,0.9619141,0.0727539
			l0.8447266-0.1762695l0.9019165,0.1618652c4.079916,5.3546925,11.6164951,5.5595226,16.1939068,1.9172382
			c-0.3367577,2.0292892-0.1636009,2.2898216-0.2357178,2.765625c-1.8917847,0.0031738-2.8717651,0.1113281-3.814209,0.2167969
			c-5.2934837,0.5918159-7.226244-0.1518555-11.5664043-0.1518555c-1.6444664,0-12.0981197-0.1313477-15.4658213-0.1313477
			c-0.1123047,0-0.223999,0.0744629-0.3282471,0.1638184c-0.0961304-0.0842285-0.1864014-0.2023926-0.1864014-0.3664551
			C11.5016298,33.7817612,11.731122,33.7615128,11.731122,31.3877125z M46.9215508,42.3496284
			c1.9067001,2.4870415,1.556942,2.6238747,3.2578125,4.9125977c-1.5361328,0.0029297-2.3837891,0.0185547-3.2324219,0.0341797
			c-5.4829178,0.0997391-4.7281799-0.0651207-7.6627808,0.2702637h-8.5610943
			c-0.6558228-0.032959-1.447876-0.0568848-2.572998-0.0568848c-4.1987514,0-7.7661171-0.2979393-10.5987549,0.0568848H5.3730288
			c-0.1534433-0.3502426-0.1292448,0.0520592,1.4909058-2.8410645c2.18328-3.8949013,3.1098757-4.7434654,4.8818359-7.5410156
			c0.1052151-0.1662941,0.2268076-0.2868805,0.2705078-0.3544922c3.4191999,0,14.3009233,0.1313477,15.4658213,0.1313477
			c4.1275673,0,6.3935833,0.7336159,11.6210918,0.1489258c2.4004097-0.2683716,3.3919258-0.1956596,3.8531494-0.2126465
			c0.0010376,0.0002441,0.0012207,0.001709,0.0022964,0.0021973c0.0389404,0.0150604,0.341877,0.0383911,0.4580307,0.0893555
			C45.3471184,39.5069122,44.9639206,39.7980957,46.9215508,42.3496284z M43.73106,33.0923042
			c0.5884705-0.5511742,0.9159393-0.957901,1.3214111-1.5039082l0.8291016,0.6782246l-1.3660889,1.5634766L43.73106,33.0923042z
			 M52.2760429,39.0713081c-0.6609268,0.7969437-1.8531837,0.8848801-2.6259766,0.1748047l-5.1982422-4.5834961
			c0.0878525-0.1005058,2.392498-2.7370758,2.2714844-2.5986328l5.421875,4.5566406
			C52.8151054,37.2739449,52.8717461,38.3501167,52.2760429,39.0713081z"/>
		<path d="M50.182415,38.1948433c0.2833252-0.2058105,0.4642944-0.5458984,0.4765625-0.895752
			c-0.4766159,0.6143494-1.3961105,0.6553383-1.925415,0.0861816c0.2819214-0.0600586,0.5180054-0.2966309,0.5777588-0.5786133
			c-0.0601807,0.1437988-0.2355347,0.2106934-0.390686,0.1945801c-0.4268951-0.0450249-1.1702805-0.791153-1.3807983-0.7312012
			c-0.467453,0.1332779,0.9341278,1.3139229,1.6601563,2.0400391c0.3821411,0.3376465,0.8137817,0.6662598,1.3208008,0.7209473
			c1.185318,0.1276245,1.9602852-1.238472,1.237854-2.1901855C51.7079887,37.6106148,50.9510307,38.2607613,50.182415,38.1948433z"
			/>
	</g>
</g>
</svg>
