<?xml version="1.0" encoding="utf-8"?>
<!-- Generator: Adobe Illustrator 26.0.1, SVG Export Plug-In . SVG Version: 6.00 Build 0)  -->
<svg version="1.1" id="Layer_1" xmlns="http://www.w3.org/2000/svg" xmlns:xlink="http://www.w3.org/1999/xlink" x="0px" y="0px"
	 viewBox="0 0 56 56" style="enable-background:new 0 0 56 56;" xml:space="preserve">
<style type="text/css">
	.st0{fill:none;stroke:#000000;stroke-width:0.5;stroke-linecap:round;stroke-linejoin:round;stroke-miterlimit:10;}
	.st1{fill:#FFFFFF;}
	.st2{fill:none;stroke:#000000;stroke-linecap:round;stroke-linejoin:round;stroke-miterlimit:10;}
	.st3{fill:none;stroke:#000000;stroke-width:0.75;stroke-linecap:round;stroke-linejoin:round;stroke-miterlimit:10;}
	
		.st4{fill:none;stroke:#000000;stroke-width:0.5;stroke-linecap:round;stroke-linejoin:round;stroke-dasharray:2.8838968,2.8838968;}
	.st5{fill:none;stroke:#030303;stroke-width:0.5;stroke-linecap:round;stroke-linejoin:round;stroke-miterlimit:10;}
	.st6{stroke:#000000;stroke-width:0.5;stroke-linecap:round;stroke-linejoin:round;stroke-miterlimit:10;}
	
		.st7{fill:none;stroke:#000000;stroke-width:0.5;stroke-linecap:round;stroke-linejoin:round;stroke-dasharray:3.0119359,3.0119359;}
	.st8{fill:#030303;}
	.st9{fill:none;stroke:#FFFFFF;stroke-width:0.25;stroke-linecap:round;stroke-linejoin:round;stroke-miterlimit:10;}
	.st10{fill:none;stroke:#000000;stroke-width:0.5;stroke-linecap:round;stroke-linejoin:round;stroke-dasharray:3.444118,3.444118;}
	
		.st11{fill:none;stroke:#000000;stroke-width:0.5;stroke-linecap:round;stroke-linejoin:round;stroke-dasharray:3.3281221,3.3281221;}
</style>
<g id="Profile_Scanner">
	<g>
		<path class="st0" d="M7.9974122,5.1373296l39.4042854-1.085144c0.325676-0.0089688,0.613308,0.2109256,0.6900673,0.527554
			l2.6557999,10.9551687c0.0107574,0.0443726,0.017086,0.0897036,0.0188942,0.1353254l1.2333069,31.1067009
			c0.0144005,0.3632355-0.255291,0.6754303-0.6167641,0.7139626L11.326232,51.76091
			c-0.3934851,0.0419426-0.7416573-0.2547188-0.7627106-0.6498718L8.7812033,17.6582909
			c-0.0008545-0.0160313-0.0022678-0.0320282-0.0042362-0.0479603L7.3311381,5.9122624
			C7.2811718,5.5079899,7.5902181,5.1485429,7.9974122,5.1373296z"/>
		<path class="st0" d="M11.8432655,20.6930752l36.2535629-1.8866119c0.3820763-0.0198841,0.7074852,0.2746944,0.725605,0.6568604
			l1.2069092,25.4539242c0.0172844,0.3645096-0.2520447,0.6795349-0.6148071,0.7191238l-35.8999405,3.9181633
			c-0.3931141,0.0429039-0.7418871-0.2524681-0.7643032-0.6472816l-1.5605307-27.4854736
			C11.1680746,21.0397701,11.4611578,20.7129612,11.8432655,20.6930752z"/>
		<path class="st0" d="M14.2603254,25.1595879c-0.035759-0.6000347,0.432847-1.1163883,1.0512981-1.1584167l29.0258179-1.4511604
			c0.4320793-0.028389,0.8099785,0.2867317,0.8572235,0.714819l0.905323,8.3344898l-0.6457214,0.6915932l0.9786568,9.4296684
			c0.0486717,0.4449043-0.2771606,0.8437614-0.7249947,0.8874779l-29.1983795,2.794445
			c-0.6334152,0.0495148-1.1848345-0.4158745-1.221488-1.0309143L14.2603254,25.1595879z"/>
		<path class="st0" d="M34.9942284,4.5811844l1.2584686,9.6780882c0.0193596,0.1488676,0.1485634,0.2587214,0.2986069,0.2538815
			l8.3139229-0.2681913c0.1733131-0.0055904,0.3034897-0.1602669,0.2794075-0.3319893l-1.342659-9.5743427"/>
		<path class="st0" d="M36.6735344,5.5537462l5.2678452-0.2035508c0.1494255-0.0057735,0.279007,0.1024055,0.3000107,0.2504597
			l0.9331818,6.5781665c0.0242691,0.1710796-0.1046944,0.3256264-0.2773552,0.3323774l-5.2185631,0.2040348
			c-0.1486549,0.0058117-0.2778587-0.101202-0.2998314-0.2483406l-0.9824677-6.57865
			C36.3707008,5.7164488,36.4999657,5.5604529,36.6735344,5.5537462z"/>
		<path d="M13.852684,12.3080645c-0.0799561,0.0400391-0.1599731,0.0599976-0.2399902,0.0800171
			c-1.3899536,0.3500366-2.8699951-0.539978-3.289978-1.9599609c-0.4199829-1.4300537,0.3699951-2.8700562,1.7600098-3.210022
			c0.3599854-0.0900269,0.7199707-0.0900269,1.0700073-0.0300293c-0.0500488,0.0100098-0.1000366,0.0200195-0.1500244,0.0300293
			c-1.3499756,0.3300171-2.1199951,1.7299805-1.710022,3.1099854C11.6427231,11.5080767,12.7127304,12.288106,13.852684,12.3080645z
			"/>
		<path d="M41.6311264,6.5824785c-0.0197754-0.1491089-0.1496582-0.258728-0.2999878-0.2531128l-3.7454834,0.1400146
			c-0.1726685,0.0064697-0.3018799,0.1607666-0.2779541,0.3318481l0.6407471,4.5761719
			c0.020752,0.1484985,0.1507568,0.257019,0.3005371,0.2509766l3.7102661-0.1499023
			c0.1714478-0.006958,0.2999268-0.159668,0.2773438-0.3297729L41.6311264,6.5824785z M41.9371567,11.2434282l-3.6937866,0.1517334
			c-0.057373,0.0023804-0.0994263-0.0533447-0.0814819-0.1078491l0.4747925-1.4432983
			c0.0106201-0.0323486,0.0401001-0.0548096,0.0740967-0.0564575l2.3748169-0.1161499
			c0.0303345-0.0014648,0.05896,0.013855,0.0745239,0.039856l0.8441772,1.4077148
			C42.0363998,11.1725054,41.9995346,11.2408648,41.9371567,11.2434282z"/>
		<g>
			<path class="st0" d="M32.8215103,34.040863c-0.4191132-0.0722466-0.7848053-0.3954544-0.9080067-0.8025131
				c-0.1231995-0.4070587-0.1282463-0.8227119,0.2413273-1.1226959"/>
			<path class="st0" d="M41.0456886,33.2453766c0.4363708-0.0730515,0.8321152-0.6098137,0.8633804-1.0339584
				c0.0312653-0.4241428-0.0923157-0.9101524-0.5101547-1.0945721"/>
			<path class="st0" d="M37.8795738,28.3466492c0.7091293,0.0807438,1.422905,0.2338486,1.9716339,0.6773243
				c0.4799461,0.387886,0.7801514,0.9627571,0.9432869,1.5578957s0.2042274,1.2498665,0.2643623,1.8640232
				c0.0699158,0.7140732-0.1230583,1.5759239-0.4630241,2.2021713c-0.2336082,0.4303284-0.5339203,0.8246002-0.8781624,1.1723022
				c-1.0489197,1.0594635-2.5377045,1.6327744-3.9988937,1.139267c-1.4678459-0.4957542-2.6785812-2.0167274-2.9658813-3.5391579
				c-0.1470718-0.7793312-0.3546333-1.5691833-0.2188377-2.3505573c0.0357819-0.2058868,0.0887947-0.4097118,0.1587448-0.6074104"/>
			<path class="st0" d="M35.2327118,38.538105c-0.0300026,0.0100021-0.0600014,0.0200005-0.1000023,0.0300026
				c-0.0299988,0.0099983-0.0499992,0.0299988-0.0699997,0.0499992h-0.0099983v0.0099983
				c-0.0600014,0.0600014-0.1100006,0.1199989-0.1000023,0.2000008c0,0.0999985,0.0700035,0.1800003,0.1599998,0.2299995
				c0.0900002,0.0400009,0.1900024,0.0499992,0.2800026,0.0699997c0.3600006,0.0400009,0.7199974,0.0600014,1.0900002,0.0600014
				c0.0299988,0,0.0599976,0,0.0900002,0c0.0200005,0,0.0399971,0,0.0599976,0c0.0500031,0,0.1100006,0,0.1599998-0.0100021
				c0.0600014,0,0.1300011-0.0099983,0.1900024-0.0099983c0.0599976,0.0099983,0.1199989,0,0.1800003-0.0099983
				c0.1199989,0,0.2399979-0.0100021,0.3600006-0.0300026c0.1499977-0.0099983,0.2999992-0.0299988,0.4399986-0.0599976
				c0.079998-0.0100021,0.1599998-0.0200005,0.2399979-0.0400009c0.0100021,0,0.0300026,0,0.0400009-0.0100021
				c0.0400009,0,0.0900002-0.0099983,0.1300011-0.0200005c0.1699982-0.0299988,0.329998-0.0699997,0.5-0.1099968
				c0.1699982-0.0400009,0.3400002-0.0699997,0.5099983-0.1400032c0.0699997-0.0299988,0.1500015-0.0599976,0.2200012-0.1199989
				c0.0499992-0.0299988,0.0900002-0.079998,0.1199989-0.1399994c0.0400009-0.1199989-0.0399971-0.2400017-0.1499977-0.2900009
				c-0.0200005-0.0099983-0.0300026-0.0200005-0.0499992-0.0200005c-0.0300026-0.0099983-0.0700035-0.0199966-0.1100006-0.0199966"
				/>
			<path class="st0" d="M30.8851528,42.2172852c0.1989136-0.5388184,0.4651699-1.0517197,0.8237419-1.496254
				c0.8281002-1.0232468,2.1005154-1.6625824,3.3543644-2.1078262"/>
			<path class="st0" d="M44.3948326,40.7039986c-0.3000908-0.4586754-0.6597328-0.8671913-1.0875244-1.208725
				c-1.0316887-0.8281708-2.4309807-1.1443214-3.7387619-1.2992058c-0.0084457-0.0000725-0.0084457-0.0000725-0.0168915-0.000145"/>
			<path d="M35.2855225,39.037281c-0.1045799,0.0125771-0.2138672-0.0491447-0.2570953-0.1451988
				c-0.0432243-0.0960541-0.0169411-0.2187843,0.0618286-0.2887154s0.2037506-0.0814857,0.2940063-0.0271835
				C35.3499298,38.7285004,35.3198509,38.884964,35.2855225,39.037281z"/>
			<path d="M39.3517151,38.311657c-0.0142403-0.0288963-0.0275955-0.0663757-0.0063515-0.0905914
				c0.0186539-0.0212593,0.0521889-0.0178833,0.0797729-0.0116386c0.0670624,0.0151787,0.1345177,0.0377579,0.1869545,0.0822296
				c0.0524406,0.0444717,0.0872993,0.1147499,0.0740089,0.182209c-0.0124779,0.0633316-0.1058846,0.1898117-0.1777649,0.1327171
				c-0.0351028-0.0278893-0.0533447-0.0853348-0.0723801-0.12397C39.4078751,38.4256287,39.3797951,38.3686409,39.3517151,38.311657
				z"/>
			<path d="M37.0164375,36.5007401c-0.8903389-0.0327797-1.7660027-0.3795395-2.4374008-0.9652023
				s-1.1338387-1.4061356-1.2872009-2.2837791c0.4440231,0.5494881,0.9526215,1.0208549,1.5386047,1.4154587
				c-0.1933327-0.0388947-0.3866653-0.0777893-0.579998-0.1166878
				C34.970768,35.4225502,35.9263611,36.1990356,37.0164375,36.5007401z"/>
			
				<ellipse transform="matrix(0.9939389 -0.1099343 0.1099343 0.9939389 -3.1438451 4.5317822)" cx="39.5257835" cy="30.7767105" rx="0.116168" ry="0.2183958"/>
			
				<ellipse transform="matrix(0.9939389 -0.1099343 0.1099343 0.9939389 -3.1541021 4.5791359)" cx="39.9500961" cy="30.8934059" rx="0.0604073" ry="0.1022278"/>
			<path d="M32.4167099,28.696003c-0.3862305,0.3685913-0.4344482,0.8970337-0.4658203,1.3776245
				c-0.0448608,0.6862793,0.0094604,1.3775635,0.1694336,2.0458374c0.0799561,0.3340454,0.1865234,0.6623535,0.3214111,0.9802856
				c0.050354,0.1187744,0.1445312,0.4386597,0.2950439,0.4780884c0.2772827,0.0726929,0.1008911-0.6838989,0.0900269-0.7901001
				c-0.0317993-0.3092651-0.069397-0.6184692-0.0947876-0.9284058c-0.0321655-0.3931885,0.119812-0.7564697,0.4876099-0.9795532
				c0.2200317-0.1334839,0.4522705-0.249939,0.690918-0.3519287c0.2441406-0.1044312,0.6856079-0.4470215,0.6772461-0.8051758
				L32.4167099,28.696003z M32.199852,31.3364449c-0.2016602-0.7155762-0.1219482-1.5064697,0.2185059-2.1674194
				C32.2910385,29.8745308,32.1919174,30.6195869,32.199852,31.3364449z"/>
			<path d="M41.3927231,30.578083c0-0.5200195-0.0300293-1.0499878-0.1600342-1.5599976
				c-0.1499634-0.5599976-0.6300049-1.5-1.2999878-1.5800171c-0.1300049-0.0199585-0.2600098,0-0.3999634,0.0500488
				c-0.2900391,0.1099854-0.4700317,0.3899536-0.6000366,0.6699829c-0.1400146,0.2999878-0.2399902,0.6400146-0.1699829,0.9699707
				c0.0200195,0.1000366,0.0599976,0.1900024,0.1099854,0.2700195c0.1199951,0.2399902,0.3500366,0.4299927,0.5900269,0.5599976
				c0.2999878,0.1699829,0.6900024,0.1699829,0.9699707,0.3400269c0.2399902,0.1399536,0.2999878,0.5199585,0.3200073,0.7699585
				c0.039978,0.4100342,0.0800171,0.8200073,0.1099854,1.2399902c0.0300293,0.2800293,0.210022,0.3500366,0.3800049,0.1400146
				c0.1099854-0.1599731,0.1199951-0.4400024,0.1400146-0.6300049
				C41.4226913,31.4081001,41.3927231,30.9980659,41.3927231,30.578083z M40.8626938,28.8680611
				c-0.1399536-0.289978-0.289978-0.5799561-0.5100098-0.8199463c-0.1599731-0.1600342-0.3399658-0.3000488-0.5499878-0.3699951
				c-0.0799561-0.0400391-0.1699829-0.0600586-0.2600098-0.0700073c0.1000366-0.0300293,0.2000122-0.0400391,0.3099976-0.0300293
				c0.1100464,0.0100098,0.2200317,0.0499878,0.3099976,0.1000366c0.1900024,0.1099854,0.3400269,0.2699585,0.460022,0.4399414
				c0.4400024,0.5700073,0.6799927,1.2900391,0.6900024,2.0100098
				C41.1927109,29.6980782,41.0526962,29.2680855,40.8626938,28.8680611z"/>
			<path d="M39.9327011,27.4380684c-0.2399902-0.7299805-0.8999634-1.25-1.6400146-1.5
				c-0.7299805-0.2399902-1.5299683-0.2299805-2.2999878-0.1199951c-0.7699585,0.1000366-1.5199585,0.2999878-2.289978,0.4100342
				c-0.7600098,0.1099854-1.5599976,0.1300049-2.2999878-0.1100464c-0.3000488,0.0800171-0.4900513,0.3700562-0.4700317,0.6800537
				c0.0300293,0.2999878,0.2000122,0.5799561,0.3900146,0.8199463c0.8300171,1.0800171,2.0299683,1.8600464,3.3399658,2.2000122
				c1.3200073,0.3300171,2.960022,0.1300049,4.210022-0.4199829l0.9299927-1.7199707
				c-0.0799561-0.0400391-0.1699829-0.0600586-0.2600098-0.0700073c0.1000366-0.0300293,0.2000122-0.0400391,0.3099976-0.0300293
				L39.9327011,27.4380684z M36.9527206,26.3180733c0.0800171-0.0100098,0.1599731,0.0200195,0.1599731,0.0599976
				c0.0100098,0.0500488-0.0599976,0.0900269-0.1399536,0.1000366c-0.0900269,0.0100098-0.1700439-0.0200195-0.1700439-0.0599976
				C36.7926865,26.3680611,36.8626938,26.328083,36.9527206,26.3180733z M32.6726913,28.1880684
				c0.5900269,0.1400146,1.1500244,0.2800293,1.7399902,0.4200439c-0.1199951,0.0499878-0.2299805,0.0999756-0.3499756,0.1599731
				c1.0300293,0.2800293,2.0100098,0.539978,3.0700073,0.6500244C35.562706,29.6880684,33.8827133,29.2180977,32.6726913,28.1880684
				z M37.3227158,26.8380928c-0.0599976,0.0100098-0.1199951-0.0200195-0.1199951-0.0499878
				c0-0.0400391,0.039978-0.0800171,0.0999756-0.0800171c0.0599976-0.0100098,0.1099854,0.0200195,0.1199951,0.0499878
				C37.4226913,26.7981148,37.3727036,26.8380928,37.3227158,26.8380928z M37.562706,26.4480782
				c-0.0499878,0.0100098-0.0899658-0.0100098-0.0999756-0.0499878c0-0.0300293,0.0299683-0.0599976,0.0799561-0.0599976
				c0.0500488-0.0100098,0.0900269,0.0100098,0.0900269,0.0499878C37.6427231,26.4181099,37.602684,26.4480782,37.562706,26.4480782
				z"/>
			<path class="st0" d="M39.6040764,38.6304588c-0.2876358-0.6355286-0.5262718-1.4521484-0.6024666-2.1396904
				c-1.2653351,0.6420174-2.5073318,0.8064194-3.6962013,0.3470421c0.075901,0.6875725-0.0132294,1.4949379-0.1550217,2.1779671
				C36.6062546,39.337326,38.0921783,39.1877365,39.6040764,38.6304588z"/>
			<path class="st0" d="M39.6040764,38.6304588c-0.2876358-0.6355286-0.5262718-1.4521484-0.6024666-2.1396904
				c-1.2653351,0.6420174-2.5073318,0.8064194-3.6962013,0.3470421c0.075901,0.6875725-0.0132294,1.4949379-0.1550217,2.1779671
				C36.6062546,39.337326,38.0921783,39.1877365,39.6040764,38.6304588z"/>
			<path class="st0" d="M35.2327118,38.538105c-0.0300026,0.0100021-0.0600014,0.0200005-0.1000023,0.0300026
				c-0.0299988,0.0099983-0.0499992,0.0299988-0.0699997,0.0499992h-0.0099983v0.0099983
				c-0.0600014,0.0600014-0.1100006,0.1199989-0.1000023,0.2000008c0,0.0999985,0.0700035,0.1800003,0.1599998,0.2299995
				c0.0900002,0.0400009,0.1900024,0.0499992,0.2800026,0.0699997c0.3600006,0.0400009,0.7199974,0.0600014,1.0900002,0.0600014
				c0.0299988,0,0.0599976,0,0.0900002,0c0.1399994,0,0.2700005-0.0100021,0.4099998-0.0200005
				c0.0599976,0.0099983,0.1199989,0,0.1800003-0.0099983c0.1199989,0,0.2399979-0.0100021,0.3600006-0.0300026
				c0.1499977-0.0099983,0.2999992-0.0299988,0.4399986-0.0599976c0.079998-0.0100021,0.1599998-0.0200005,0.2399979-0.0400009
				c0.2300034-0.0300026,0.4500008-0.0800018,0.670002-0.1399994c0.1699982-0.0400009,0.3400002-0.0699997,0.5099983-0.1400032
				c0.0699997-0.0299988,0.1500015-0.0599976,0.2200012-0.1199989c0.0499992-0.0299988,0.0900002-0.079998,0.1199989-0.1399994
				c0.0400009-0.1199989-0.0399971-0.2400017-0.1499977-0.2900009"/>
		</g>
		<path class="st0" d="M44.4738617,40.3583603c0.0157585,0.1268463-0.0190277,0.2448006-0.0790253,0.3456306
			c-0.0857468,0.1512794-0.2387047,0.259758-0.4332008,0.2833862l-5.5280991,0.5181313l-0.9889603,0.0928001l-6.5594025,0.6189651
			l-0.1014137,0.0075798c-0.3042374,0.0226784-0.5809765-0.2077179-0.6035614-0.528862L28.799263,25.2423992
			c-0.0309887-0.3212166,0.2079353-0.6063366,0.5205536-0.620491l12.9807816-0.5660629
			c0.3042374-0.0227318,0.5640678,0.207571,0.5952034,0.5118809L44.4738617,40.3583603z"/>
		<path class="st0" d="M17.0145226,32.3002014c1.0620213-0.6388645,1.8614864-1.7006588,2.1819267-2.8978882
			c0.0683651-0.2554226,0.1157665-0.5245857,0.0616989-0.7834129c-0.0540657-0.2588272-0.2284813-0.5061646-0.4818478-0.5817966
			c-0.3391113-0.1012268-0.6917629,0.1257439-0.9209328,0.3954201c-0.5860825,0.6896763-0.6981182,1.7442398-0.2700233,2.5416622
			c0.4280949,0.7974205,1.3689594,1.2867355,2.2676296,1.1793251c0.8986721-0.1074104,1.6977139-0.8046799,1.9258156-1.6805325
			c0.0797424-0.3061867,0.0736732-0.6801758-0.1705475-0.8813343c-0.2132759-0.1756725-0.5489025-0.1447334-0.7666321,0.0253887
			c-0.2177277,0.1701221-0.328373,0.4491615-0.3532009,0.7243538c-0.0727272,0.8061314,0.6181965,1.6004772,1.42663,1.6401711
			c0.8084316,0.0396938,1.5738525-0.6831436,1.5804462-1.4925232c0.1273556,0.2661877,0.2604198,0.5400658,0.4820919,0.7348404
			c0.221674,0.1947727,0.5573311,0.2914066,0.817688,0.1525192s0.3443451-0.5598717,0.1064854-0.7345085
			c0.5894337,0.3214283,1.1788692,0.6428585,1.7683029,0.9642887"/>
		<line class="st0" x1="19.7931156" y1="35.716156" x2="26.4996738" y2="35.2717476"/>
		<line class="st0" x1="20.0355225" y1="38.6250229" x2="26.8228798" y2="38.0594101"/>
		<path d="M21.5725727,43.8736382c-0.2254086,0.0209351-0.4508171,0.0418739-0.6762257,0.062809
			c-0.9239693,0.0858154-1.8479385,0.1716347-2.7719078,0.2574501c-0.4292641,0.0398712-0.85853,0.0797424-1.2877941,0.1196098
			c-0.2430019,0.0225716-0.4239407,0.0952492-0.5851364-0.1422424c-0.156004-0.2298393-0.1371689-0.5352173-0.1472359-0.8000183
			c-0.0150642-0.3962364-0.0301266-0.7924767-0.0451908-1.1887169c-0.0263443-0.6929626-0.0526886-1.3859291-0.0790329-2.0788956
			c0.1928978,0.5104828,0.476263,0.9686089,0.873209,1.3430901c-0.1955223-0.0319176-0.3910446-0.0638351-0.5865669-0.0957565
			c0.5298805,0.3476028,1.0597591,0.6952019,1.5896378,1.0428047c-0.274044-0.0273361-0.5480881-0.0546684-0.8221321-0.0820007
			C18.399025,43.1553535,19.9720993,43.7601814,21.5725727,43.8736382z"/>
		<ellipse cx="46.5089378" cy="20.3390102" rx="0.2332209" ry="0.3310232"/>
		<ellipse cx="47.7277069" cy="20.1057892" rx="0.1278954" ry="0.2332209"/>
		<ellipse cx="47.535862" cy="21.3847427" rx="0.191843" ry="0.293407"/>
		<path d="M38.4133186,14.018054l-1.7864609,0.0782909l-0.1352272-1.1031923
			c0.1754837,0.1448374,0.3395996,0.3132639,0.5150871,0.4581003c-0.0982018-0.0050211-0.1963997-0.0100412-0.2946014-0.0150623
			c0.4561615,0.3074923,0.9870644,0.5032492,1.5336571,0.5654964"/>
		<ellipse cx="42.9249077" cy="4.8859272" rx="0.0902301" ry="0.1338898"/>
		<circle cx="43.238636" cy="4.6909137" r="0.0611236"/>
		<ellipse cx="43.310257" cy="5.1449752" rx="0.0716219" ry="0.0960514"/>
		
			<ellipse transform="matrix(0.7582278 -0.6519897 0.6519897 0.7582278 -3.0220473 11.3117008)" class="st0" cx="13.7411709" cy="9.7306442" rx="2.4913678" ry="2.6451962"/>
		<path d="M23.2627182,11.8780718c-0.0800171,0.0400391-0.1600342,0.0599976-0.2399902,0.0800171
			c-1.3900146,0.3400269-2.8600464-0.539978-3.2900391-1.9699707c-0.4199829-1.4300537,0.3699951-2.8600464,1.7600098-3.210022
			c0.3699951-0.0900269,0.7399902-0.0900269,1.0900269-0.0200195c-0.0599976,0-0.1099854,0.0200195-0.1700439,0.0300293
			c-1.3499756,0.3299561-2.1199951,1.7199707-1.7099609,3.1099854
			C21.0526962,11.078084,22.1227036,11.8581133,23.2627182,11.8780718z"/>
		
			<ellipse transform="matrix(0.7582278 -0.6519897 0.6519897 0.7582278 -0.4630234 17.3444805)" class="st0" cx="23.1550159" cy="9.2965603" rx="2.4913678" ry="2.6451962"/>
		<path d="M13.3488016,11.6102552c-0.7616425-0.2603321-1.3543949-1.0182304-1.4203482-1.8160686
			c-0.0659533-0.7978392,0.3993464-1.5817451,1.1149464-1.8783879c-0.316021,0.5698447-0.5108843,1.2479625-0.4801655,1.9183354
			c0.0987339-0.1563082,0.1974678-0.3126173,0.2962027-0.4689255
			C12.6679001,10.0908375,12.7978048,11.0553684,13.3488016,11.6102552z"/>
		<path d="M22.8100929,11.1521101c-0.7616425-0.2603321-1.3543949-1.0182304-1.4203491-1.8160696
			c-0.0659523-0.7978382,0.3993454-1.5817442,1.1149464-1.8783875c-0.316021,0.5698452-0.5108852,1.247963-0.4801655,1.9183359
			c0.0987339-0.1563082,0.1974678-0.3126173,0.2962017-0.4689264C22.1291904,9.6326923,22.2590961,10.5972233,22.8100929,11.1521101
			z"/>
		<path d="M14.4233379,50.8420334c-0.5625439,0.0569954-1.1250877,0.1139908-1.6876316,0.1709862
			c-0.3462219,0.03508-0.6949825,0.0863457-1.0424309,0.1056175c-0.4168005,0.0231133-0.5329828-0.2933693-0.5628548-0.6564903
			c-0.0242214-0.294426-0.0484419-0.5888481-0.0726633-0.8832741c-0.0317593-0.3860664-0.0635195-0.7721329-0.0952797-1.1581993
			c0.1852665,0.4924393,0.4977379,0.9476662,0.8925877,1.2953911c-0.1764002-0.0098724-0.3528004-0.0197449-0.5292006-0.0296211
			C12.1721344,50.3188934,13.3935413,50.7335129,14.4233379,50.8420334z"/>
		<path d="M10.562706,51.1081123L8.7827377,17.6581001c0-0.0200195,0-0.0300293-0.0100098-0.0499878L7.3327255,5.9081011
			C7.2926865,5.6280718,7.4427109,5.368062,7.6726913,5.2381182C7.6227036,5.1781206,7.562706,5.1081133,7.5027084,5.0481157
			L4.2227402,6.618062C4.062706,6.7480669,3.9826889,6.9380693,4.0027084,7.1280718l1.460022,10.5200186l1.8599854,32.6500244
			c0.0200195,0.2199707,0.1599731,0.4299927,0.3699951,0.539978l3.2399902,1.1099854
			c0.0300293-0.0800171,0.0499878-0.1599731,0.0700073-0.2399902C10.7627182,51.6180611,10.5827255,51.3980904,10.562706,51.1081123
			z M6.9026718,7.8502398c0.0673218,0,0.1219482,0.0985718,0.1219482,0.2201538
			c0,0.1216431-0.0546265,0.2202148-0.1219482,0.2202148S6.7807236,8.1920366,6.7807236,8.0703936
			C6.7807236,7.9488115,6.83535,7.8502398,6.9026718,7.8502398z M6.3680649,9.0511675
			c-0.0516357,0-0.0934448-0.0717163-0.0934448-0.1601562S6.3164291,8.730916,6.3680649,8.730916
			c0.0515747,0,0.0933838,0.0716553,0.0933838,0.1600952S6.4196396,9.0511675,6.3680649,9.0511675z M7.0246201,10.7625933
			c-0.1347046,0-0.2438965-0.289856-0.2438965-0.6474609c0-0.3575439,0.1091919-0.6474609,0.2438965-0.6474609
			c0.1346436,0,0.2438354,0.289917,0.2438354,0.6474609C7.2684555,10.4727373,7.1592636,10.7625933,7.0246201,10.7625933z"/>
	</g>
</g>
</svg>
