<?xml version="1.0" encoding="utf-8"?>
<!-- Generator: Adobe Illustrator 22.0.1, SVG Export Plug-In . SVG Version: 6.00 Build 0)  -->
<svg version="1.1" id="Layer_1" xmlns="http://www.w3.org/2000/svg" xmlns:xlink="http://www.w3.org/1999/xlink" x="0px" y="0px"
	 viewBox="0 0 58 58" style="enable-background:new 0 0 58 58;" xml:space="preserve">
<g id="Business_Growth">
	<g>
		<path d="M13.3673582,48.7426147c0.0917969,1.2768555,1.6855469,1.9594727,2.7373037,2.4101563
			c2.036108,0.9043579,3.5143051,1.0133514,5.1513672,1.4145508c4.0781059,1.0020485,10.814764,0.7036591,15.2490253-1.2231445
			c1.8066406-0.7744141,2.7597656-1.730957,2.8310547-2.8442383c0.1220398-1.9697685,0.532505-3.3297348,0.2255859-4.9223633
			c-0.2002068-1.0621185-0.0574112-1.2882614-0.0205078-3.3085938c0.0708656-3.8312073,0.5076523-2.9926033,0.5947266-5.2026367
			c0.0107422-1.2890625-0.046875-2.6220703-0.5341797-3.6391582c-0.5327606-1.1180782-1.3727379-1.8899841-2.6269531-2.1865234
			c0.4238281-0.5483398,0.2998047-1.2324219,0.1767578-1.9042969c-0.097229-0.4970703-0.2403564-0.932373-0.4155273-1.3146973
			c1.1093292-1.7978249-4.0817833-2.5707035-6.2074604-2.7797852c-0.074707-0.53125-0.1951294-1.0517578-0.4093018-1.5334473
			c-0.603796-1.3069572-1.8064804-2.2474899-3.1730957-1.776123c0.3678589-1.3703613,0.885437-2.6848145,1.5444946-3.9138184
			c0.6673584,0.3789063,1.5981445,0.5073242,2.2250977,0.5620117c6.4791737,0.6975193,12.918932-3.567584,14.614748-10.4174805
			c0.1716919-0.6936035-0.3355713-1.3286133-1.0458374-1.2902832c-4.8232918,0.2609053-8.01297,0.306653-10.6824951,1.1291504
			c-2.8980598,0.8872776-5.523613,2.8298402-6.0992451,5.8305659c-0.2209663,1.0966492-0.232996,3.1587791,0.5652466,3.9155273
			c-0.2631836,0.4882822-0.5059204,0.9882822-0.7250977,1.5019541c-0.3718262-0.5424805-0.9683228-1.3913584-1.7960815-2.2573252
			c0.9423771-1.7923155,0.2381897-3.6352015-1.1262817-4.8662109c-2.2098465-1.994792-6.2243538-2.4899321-9.2303457-1.7890625
			c-0.378418,0.0881348-0.5818481,0.4975586-0.4473877,0.8632813c1.1876812,3.2304935,2.6880312,6.2736559,6.1242056,7.1455088
			c1.0107422,0.2563477,2.7020874,0.4765625,3.624939-0.1352539c0.3021851-0.2001953,0.5632324-0.4731455,0.7838745-0.781251
			c0.6744099,0.7194242,1.2213688,1.4607096,1.850769,2.3679209c-0.3155518,0.8085938-0.5925903,1.6352539-0.7981567,2.4875488
			c-0.0324707,0.0288086-0.0733032,0.0441895-0.1038818,0.0756836c-0.5463867,0.5537109-0.6936646,1.5314941-0.2923584,2.2143555
			c-0.0018921,0.0158691-0.0032349,0.0317383-0.005127,0.0478516c-1.2607059-1.2508411-3.4259186-1.1363716-4.3163452,0.7163086
			c-1.8567333,0.2426357-6.3669806,1.0341434-5.4360962,2.6657715c-0.4418936,0.3166504-0.8236685,0.6691895-0.9441519,1.2185059
			c-0.1474609,0.7148438,0.1279297,1.4975586,0.7001953,2.0776367c-1.2802734,0.2895508-2.2275391,1.0092773-2.7578125,2.1025391
			c-0.515625,1.0390606-0.5273438,2.4916973-0.5371094,3.6679668
			C12.7465248,38.9406776,13.3592196,48.6251221,13.3673582,48.7426147z M17.8915272,9.3536997L17.813158,9.4037485
			c-0.3081379-0.1366148-0.1555462-0.5070696-0.0066528-0.4296875c0.0456543,0.0239258,0.0471191,0.0842285,0.0915527,0.109375
			c0.0349731,0.0195313,0.0812988,0.0092773,0.1218872,0.017334C18.1830959,9.1336622,18.1390038,9.3637333,17.8915272,9.3536997z
			 M21.4106922,13.4496469c-0.3745632,0.0232372-0.6206379,0.4955959-1.6918335,0.1171875
			c-0.3258018-0.1147823-0.3123493-0.1029186-0.3275146-0.1191406c-0.0114746-0.0124512-0.0111694-0.0339355,0.0018921-0.0441895
			c0.0390987-0.0312777,0.0749054,0.0638313,0.4989014-0.0063477c0.5396309-0.088604,0.5570736-0.2694025,0.8511353-0.3444824
			c0.296751-0.0761032,0.8072338,0.1348314,1.4516602-0.3637695c-0.1564331-0.0883789-0.3153687-0.1765137-0.4680176-0.2670898
			c-2.7822094-1.6500826-3.0924797-1.1967669-3.7163696-1.6572266c0.1063843-0.0795898,0.4922485,0.0288086,0.6286621,0.0458984
			c1.1191406,0.1418419,2.0406151,0.3285532,3.0071411,0.7966309c-0.2878571-0.6981287-0.8727245-0.8103266-1.2327881-1.7663574
			c-0.0167904-0.0446491-0.1238937-0.2749643-0.0912476-0.3068848c0.0125122-0.012207,0.0346069-0.0092773,0.048645,0.0014648
			c1.1219234,0.8601408,1.902029,1.2832794,2.0343628,1.5268555c0.1597481,0.2936077-0.03088,0.6653376,0.4835815,1.3774414
			c0.6484947,0.5999985,0.4516678,0.5672655,1.0897636,1.1818848c-0.484539-0.3513184-1.0069389-0.6760254-1.5839653-0.9335938
			c-0.3022614-0.1335573-0.505127,0.3212481-0.203125,0.4570313c0.0601196,0.0268555,0.1132813,0.0625,0.1723633,0.0908203
			C21.7230721,13.6024895,21.6977634,13.4312191,21.4106922,13.4496469z M22.6418934,15.2716684l-0.1628418,0.1008301
			c-0.6267891-0.2754564-0.3040047-1.0224352,0.0010986-0.8657227c0.0931396,0.0478516,0.0939941,0.1696777,0.1846313,0.2202148
			c0.0712891,0.0395508,0.1669922,0.0185547,0.2501831,0.0351563c0.1091919,0.0217285,0.1881104,0.112793,0.1923828,0.2053223
			C23.1139355,15.1143141,22.9502277,15.284523,22.6418934,15.2716684z M42.7764778,8.0768442
			c0.076355,0.041748,0.069519,0.1479492,0.1435547,0.1918945c0.0582275,0.034668,0.1411133,0.0163574,0.2109375,0.0307617
			c0.2815666,0.0584879,0.1643715,0.4623041-0.2645874,0.4445801L42.721302,8.8319712
			c-0.1260376-0.0585938-0.2210083-0.1611328-0.2589111-0.2797852C42.3753777,8.2789955,42.6067085,7.9836011,42.7764778,8.0768442z
			 M41.650013,9.8336802c0.0452271,0.0266113,0.109314,0.0126953,0.1634521,0.0236816
			c0.2113304,0.0435743,0.1342888,0.3569145-0.2033081,0.3422852l-0.1121216,0.0678711
			c-0.4033432-0.1863127-0.1523552-0.6860838,0.0402222-0.581543C41.5974617,9.7179575,41.5925179,9.7997446,41.650013,9.8336802z
			 M31.0298939,13.3544321c0.2135544-0.2580576,0.3228264-0.9454956,1.63727-1.7414551
			c0.2992516-1.1021967,0.9082756-3.8244486,0.8899536-4.1230464c-0.0029945-0.0484333-0.0223656-0.3361888-0.00177-0.380127
			c0.0181541-0.0378089,0.0595055-0.0425673,0.0823364,0.0202637c0.4295387,1.1789079,0.4865456,1.3419414,0.2953491,2.4103999
			c-0.0934753,0.5231686-0.1469574,0.9203501,0.0667725,1.340332c3.554081-1.8696718,4.3967934-2.3650055,4.9514771-2.5546875
			c0.56036-0.2042685,1.8397675-0.3063927,2.4862671-0.6560054c0.0963821-0.0522766,0.1306839,0.0109806,0.0723267,0.0866699
			c-0.4011154,0.5152984-2.0500793,1.1651835-2.5864258,1.3876948c-1.0314293,0.4274893-1.6243401,0.7156754-2.7855835,1.4240723
			c1.2109985,0.2067871,2.4660034,0.2114258,3.694397-0.0146484c-0.4014282,0.4587402-1.0095825,0.7375488-1.6091919,0.7387695
			c-0.2949219,0.0007324-0.5891724-0.0617676-0.882019-0.0114746c-0.2624512,0.0449219-0.5078125,0.1779785-0.7714233,0.2102051
			c-0.4410172,0.0536451-0.8447723-0.1896524-1.7863159-0.0842285c-1.5323143,0.9545021-3.5080395,2.2652464-3.7757587,2.1586914
			C30.8672962,13.5101938,30.9816761,13.4127817,31.0298939,13.3544321z M30.1790638,10.302186
			c0.0847778,0.0449219,0.0824585,0.1591797,0.164856,0.2062988c0.0646973,0.0373535,0.1536255,0.0178223,0.2299805,0.0332031
			c0.2971611,0.0600471,0.209547,0.4978619-0.2651978,0.4775391l-0.1528931,0.0944824
			c-0.1394043-0.0629883-0.2472534-0.1730957-0.2940674-0.3007813
			C29.7504139,10.5094881,29.9966888,10.2055273,30.1790638,10.302186z M36.3771248,25.5936909
			c-0.0191231,0.3927135-0.8300362,0.7331142-1.1949463,0.878418c-0.585907-0.6278362-1.3139-0.7019043-2.2488403-0.7019043
			c0.2910156-0.5622559,0.1489258-1.2927246-0.2661743-1.7399902
			C35.2415047,24.4838276,36.3991585,25.1295795,36.3771248,25.5936909z M31.0334339,23.7997456
			c-0.1567993,0.092041-0.2988892,0.2116699-0.4058228,0.3640137c-0.0076904-0.1396484-0.0222778-0.2768555-0.0343018-0.4140625
			C30.7420521,23.7643452,30.8870106,23.783144,31.0334339,23.7997456z M22.4722767,23.4276752
			c0.6527424-0.8967991,2.1209412-0.7803459,2.6051025,0.2067871c-0.6008492-0.1526966-1.287178-0.3160763-1.8487129,0.0168457
			c-0.3738823,0.2216797-0.5796928,0.6315918-0.6377983,1.0397949c-0.0579224,0.4069824,0.0110474,0.8171387,0.0803223,1.2175293
			c-0.0842228-0.2585812-0.2866974-0.2673283-0.4274292-0.939209C22.141161,24.4806538,22.1625843,23.8529682,22.4722767,23.4276752
			z M21.4142933,23.8722553c-0.1124878,0.3735352-0.1730347,0.762207-0.1329346,1.1550293
			c-1.1913548-0.5306396-2.8457661-0.0902004-3.3895264,1.5009766c-0.0009155-0.0002441-0.0020752-0.0007324-0.0029907-0.0009766
			c-0.8232422-0.2944336-1.3193359-0.6416016-1.328125-0.9287109
			C16.5483875,25.1683979,17.8428211,24.3676167,21.4142933,23.8722553z M13.6212645,31.6239643
			c0.5341797-1.1000977,1.5146484-1.746582,2.9160147-1.9213867c0.2277641-0.0279331,0.3002472-0.3268204,0.1083984-0.4550781
			c-0.694335-0.4692383-1.0664053-1.2416992-0.9257803-1.9199219c0.0880737-0.401123,0.4039907-0.6774902,0.7914419-0.949707
			c2.8943653,2.3432713,16.9260197,2.263155,19.8445454,0.0341797c0.1231079,0.3056641,0.2307739,0.638916,0.3054199,1.0239258
			c0.1621094,0.8881836,0.21875,1.3701172-0.3730469,1.7592773c-0.0878906,0.0585938-0.1308594,0.1660156-0.1054688,0.269043
			c0.0732422,0.2861881,0.3091583,0.1119938,0.9941406,0.3574219c0.8964844,0.2988281,1.5234375,0.8769531,1.9736328,1.8208008
			c0.4433594,0.9257793,0.4951172,2.1909161,0.4853516,3.4121075c-0.0804024,2.0743256-0.5245819,1.3651581-0.5947266,5.2055664
			c-0.0365524,1.976078-0.1851807,2.2711029,0.0302734,3.421875c0.2854729,1.4737244-0.1195183,2.9281235-0.234375,4.7861328
			c-0.2078552,3.2147827-11.1011028,5.1759682-17.461916,3.6137695c-1.6004219-0.3943062-3.0779076-0.5018883-5.0703125-1.3876953
			c-0.9433584-0.4038086-2.3691397-1.0146484-2.4394522-1.9868164c-0.019001-0.276947-0.6275892-10.0571251-0.7294922-13.6411133
			C13.144702,33.9506226,13.1564207,32.5619507,13.6212645,31.6239643z"/>
		<path d="M21.214159,44.4503784c0.5810547,0.8605957,1.2089233,1.5910645,2.1904907,2.0769043
			c0.9786987,0.484375,1.9837646,0.9245605,3.1627197,0.9245605c1.178772,0,2.3996582-0.1813965,3.3546143-0.6506348
			c0.9902954-0.4851074,1.927002-1.2631836,2.5260029-2.1086426c0.5700073-0.8232422,0.6314087-1.8867188,0.6691284-2.9328613
			c0.0002441-0.0068359-0.041626-0.0068359-0.0413818-0.013916c0.0374146-1.0407715-0.1351318-2.026123-0.6745605-2.8835449
			c-0.5586567-0.8916016-1.5345478-1.4121094-2.5371723-1.9353027c-0.9747925-0.4956055-1.9623413-1.1096191-3.1810913-1.1096191
			s-2.2537842,0.5698242-3.2385864,1.0654297C19.8066158,38.76194,19.26021,41.5567589,21.214159,44.4503784z
			 M24.4642811,40.5599976c0.0011711-0.9336472,0.8161144-1.4543228,1.8267212-1.5422363l0.0050659-0.5964355
			c0.0035858-0.4183083,0.7050724-0.4053535,0.7004395,0l-0.0066528,0.5932617
			c0.4975395,0.0365181,1.0415306,0.1876602,1.4415283,0.4956055c0.3475456,0.2571144,0.0033493,0.7661858-0.4332275,0.5
			c-0.9467926-0.5766983-2.6640244-0.490345-2.6687622,0.5273438c-0.0060616,1.3095551,3.3998928,0.3515854,3.3652954,2.2485352
			c-0.0162678,0.8882484-0.8613644,1.3284798-1.7635498,1.4338379l-0.0064697,0.5742188
			c-0.0043964,0.3905106-0.686245,0.3892288-0.6827393,0l0.0046997-0.5568848
			c-0.577116-0.0254669-1.1664352-0.1430321-1.6687012-0.4282227c-0.3288555-0.1817894-0.222662-0.5890579,0.0845947-0.6303711
			c0.2137852-0.0279999,0.2284946,0.118309,0.8994141,0.3190918c0.7944317,0.236496,2.2539272,0.2080765,2.2670288-0.6677246
			C27.8475246,41.5507736,24.4619694,42.5619659,24.4642811,40.5599976z"/>
		<path d="M26.137804,31.7499409c0.8180332,0.1895905,4.4855499,0.3072681,4.6968994,0.3142071
			c0.0713501,0.0107422,0.7419434-0.0217285,0.5455933,0.1623535c-0.0493774,0.0537109-0.1815186,0.0751953-0.2539673,0.1079102
			c-0.1050797,0.046917-0.8601151,0.4107552-1.1110229,0.527832c-0.1925049,0.0859375-1.0210571,0.4187012-0.4535522,0.6005859
			c1.2493896,0.4072914,1.5109577,0.3192291,4.5013447,0.4592285c1.597538,0.0742645,2.0661736,0.0185242,2.1450195,0.3303223
			c0.069458,0.2868652-0.2601318,0.4987793-0.5237427,0.572998c-0.2994385,0.0844727-0.5409546,0.2009277-0.829895,0.3276367
			c-1.8067093,0.826973-1.7922249,0.7057953-1.8480835,0.8215332c-0.0253906,0.0522461,0.0074463,0.1254883,0.0646973,0.1674805
			c0.0770721,0.0708923,1.6442337,0.419014,1.7468262,0.4394531c1.6718826,0.3598785,1.9449883,0.9477272,1.9924927,2.6557617
			c0.027832,0.9995117,0.024231,1.9941406,0.0098877,2.9797363c-0.0059814,0.407959,0.0490112,0.8022461,0.0454102,1.2006836
			c-0.010746,1.2048836,0.5003128,1.5472565,0.5446777,1.1437988c0.0422363-0.3857422,0.1383667-0.7890625,0.1537476-1.1723633
			c0.0142822-0.3549805-0.0327759-0.7114258-0.0133667-1.0712891c0.0911865-1.6875,0.0219116-1.6875,0.1132813-3.3876953
			c0.0932007-1.7338867,0.4447021-1.7338867,0.5063477-3.4921875c-0.0001831-1.2919922-0.0741577-2.5541992-0.5365601-3.5144024
			c-0.411499-0.8583984-1.048584-1.5910645-2.1287231-1.9421387c-2.2558517,1.2492218-7.2798023,1.1502438-9.7340717,1.0727539
			c-0.1560059-0.0109863-0.6958008-0.1091309-0.7924194,0.0437012C24.7858753,31.4242573,25.934618,31.706728,26.137804,31.7499409z
			"/>
		<path d="M15.5812864,47.0248413l-0.0220337,0.7307129c0.2628412,0.4413681,0.1280594,0.985218,0.9715567,1.4748535
			c0.0750732,0.0437012,0.5610962,0.1931152,0.5770264,0.229248c-0.6442795-1.4575577-0.5833111-2.52034-0.9017944-9.513916
			c-0.1658096-3.6398087-0.4959269-6.3696632,3.0328979-7.3706055c0.8248901-0.234375,1.6948853-0.3168945,2.5586548-0.3986816
			c-1.2258911-0.3137188-2.4538574-0.6315899-3.6867065-0.9436016c-0.9147949-0.2312012-1.9260864-0.1379395-2.4559317,0.6523438
			c-0.3382568,0.5043926-0.4082031,1.1181622-0.4520874,1.7080059
			C15.0119905,36.1596451,15.0650835,42.6815567,15.5812864,47.0248413z"/>
		<path d="M19.1959095,30.2064838l0.2487183-0.1469727c0.7858105,0.0313416,0.916172-0.6481609,0.4115601-0.7424316
			c-0.128479-0.0241699-0.2755127,0.0063477-0.3859863-0.0515137c-0.140564-0.0737305-0.144165-0.251709-0.2885742-0.3215332
			c-0.3198795-0.1546669-0.6959877,0.3361397-0.4957275,0.795166C18.7723866,29.937685,18.9595203,30.1088276,19.1959095,30.2064838
			z"/>
		<path d="M36.3459358,48.2035522c-0.0905151-0.0161133-0.1967773,0.0041504-0.2728882-0.0341797
			c-0.0968628-0.048584-0.0913086-0.1665039-0.1911011-0.2124023c-0.3353233-0.155201-0.7212219,0.5696716-0.0473633,0.8352051
			l0.1842041-0.097168C36.6030731,48.7160645,36.6858215,48.2636681,36.3459358,48.2035522z"/>
		<path d="M34.1805916,49.3707886c-0.1134644-0.0200195-0.2462769,0.005127-0.342041-0.0424805
			c-0.1218872-0.060791-0.116333-0.2072754-0.2418213-0.2648926c-0.4199829-0.1927986-0.8977394,0.7091408-0.0494385,1.0405273
			l0.2293701-0.1210938c0.2849808,0.010479,0.6581459-0.1053658,0.6568604-0.3652344
			C34.432972,49.5060425,34.3295174,49.3969116,34.1805916,49.3707886z"/>
	</g>
</g>
</svg>
