<?xml version="1.0" encoding="utf-8"?>
<!-- Generator: Adobe Illustrator 22.0.1, SVG Export Plug-In . SVG Version: 6.00 Build 0)  -->
<svg version="1.1" id="Layer_1" xmlns="http://www.w3.org/2000/svg" xmlns:xlink="http://www.w3.org/1999/xlink" x="0px" y="0px"
	 viewBox="0 0 75 75" style="enable-background:new 0 0 75 75;" xml:space="preserve">
<g id="Travel_Insurance">
	<path d="M15.6288261,49.6865616c0.1424322,0.9553947,0.2349491,1.9322205,0.3925781,2.9077148
		c1.0637817,6.587101,5.9337387,7.9819031,10.0415039,4.1020508c1.4428482-1.362339,2.5761509-3.0918541,4.0375977-4.3222656
		c1.2324219-1.0371094,3.2666016-1.9633789,4.9511719-1.1552734c1.2024422,0.5749893,2.0072517,1.9018364,3.4248047,2.5014648
		c1.9233398,0.8115234,4.3271484-0.0288086,6.6025391-2.3066406c1.5315132-1.5383682,3.1075134-3.4545784,5.1855469-3.7685547
		c1.6639404-0.2514648,3.4301758,0.7302246,4.1425781,2.2502441c-3.4045219,1.8588219-4.2821655,1.0742531-4.815979,2.2429199
		c-0.8452225,0.6259232-0.3023071,1.3911514-2.3656616,3.9306641c-0.5608101,0.6683502-1.6160851,1.6980896-2.5717773,2.4414063
		c-0.1003532,0.0838165-0.1911125,0.1883965-0.40625,0.4892578c-0.5722656,0.4443359-0.6967773,1.2539063-0.2905273,1.831543
		c7.7150002,11.6317368,18.8692741,9.6772537,19.9141846,7.5595703c0.2981987-0.210968,0.3333168-0.3466797,0.4071007-0.4467773
		c5.1098633-9.9018555-2.3456993-18.0214844-4.7524376-20.2739258c-0.4995117-0.4682617-1.2773438-0.4907227-1.8134766-0.0483398
		c-0.8562622,0.7189941-1.6757813,1.2980957-2.442627,1.7727051c-0.920105-1.8581543-3.1055298-3.052002-5.154541-2.7380371
		c-2.4449577,0.3693047-4.0828934,2.3890419-5.7441406,4.050293c-0.9326172,0.9345703-3.3344727,3.0097656-5.5048828,2.0927734
		c-1.2052727-0.5093536-2.0113983-1.8262711-3.3828125-2.4824219c-2.1098633-1.0126953-4.4975586,0.0039063-6.0268555,1.2924805
		c-1.584774,1.3338432-2.6393089,2.9994392-4.0800781,4.3603516c-3.5351067,3.3381081-7.4359722,2.2389793-8.3676758-3.534668
		c-0.1523895-0.9446373-0.2549648-2.010479-0.4086914-3.0112305c4.0673904-1.3365059,6.7812157-5.1902771,7.9418945-9.3481445
		l5.09198-5.0205078c7.1786613,5.2689667,9.4933968,7.0565681,10.3524323,7.6309814
		c0.4565468,0.3052788,0.6913643,0.4147491,0.9458504-0.0879936c0.6151886-1.2153206,2.9941711-7.1976242,15.5731163-36.9170113
		c0.1106071-0.4369817-0.1087685-0.754581-0.6318359-0.6635742C7.8634801,22.6228619,10.1720362,21.3598938,10.1288261,21.9849014
		c-0.0131836,0.1972656,0.0908203,0.3837891,0.2661133,0.4760742l9.8125,5.1662598
		c3.251791,13.4414215,2.968689,12.678196,3.1572876,12.8837891c-1.1368542,3.4753151-3.476408,6.7115517-6.9414673,7.9226074
		c-0.4656916-2.2306213-1.6142502-4.5403824-3.8129883-5.0991211c-1.2001953-0.3056641-2.4990234,0.1171875-3.1582031,1.027832
		c-0.9448242,1.3061523-0.3852539,3.1416016,0.6748047,4.0927734
		C11.6488457,49.8208389,13.6683769,50.1001358,15.6288261,49.6865616z M58.842205,48.3999405
		c2.2773438,2.1313477,9.3349571,9.8051758,4.5488281,19.0825195c-0.043457,0.0810547-0.0874023,0.1098633-0.152832,0.1411133
		c-4.216938,2.2525253-12.2044678,0.7874603-18.0283203-7.8461914c-0.0403404-0.0604172-0.0610962-0.1404915-0.0488892-0.234375
		c2.0729942-1.7224121,4.4566803-4.3693771,5.3169556-6.9501953c0.0449219-0.1337891,0.1435547-0.2216797,0.2807617-0.2475586
		c0.7017822-0.135498,2.1300049-0.5063477,3.9468994-1.4719238c0.2215576,1.470459-0.420166,3.0761719-1.6593018,3.911377
		c-0.5495949,0.3703003,0.0118294,1.1986961,0.5585938,0.8291016c1.6566772-1.1162109,2.4625854-3.3288574,2.0117798-5.265625
		C58.2838554,48.7390747,58.4104271,47.9945641,58.842205,48.3999405z M24.9357109,38.2829971
		c0.0373554-0.1045341,2.0166073-5.6430435,1.8932495-5.2978516l1.9904175,1.4689941L24.9357109,38.2829971z M40.2660332,41.6592178
		c-1.1989136-0.8848457-13.0073109-9.599926-12.8930664-9.515625C30.075058,29.6950359,46.157814,15.121316,54.7072563,7.3740611
		L40.2660332,41.6592178z M51.5995903,7.6374888L20.6214409,26.7153702l-8.7616577-4.6132813L51.5995903,7.6374888z
		 M51.6964531,8.7522345C24.7006989,33.217247,26.1864796,31.8316288,26.1201591,32.0046768
		c-0.0398064,0.1038628-2.3415565,6.521595-2.2969971,6.420166L21.211834,27.5264053
		C29.256794,22.5718575,44.1055298,13.4271593,51.6964531,8.7522345z M10.2626152,44.9482803
		c0.3242188-0.4482422,0.9301758-0.7119141,1.5595703-0.7119141c2.0638618,0,3.2273979,2.4430161,3.6376953,4.4707031
		C11.3922672,49.5893288,9.0605354,46.6104393,10.2626152,44.9482803z"/>
	<path d="M55.5028496,61.9101944c2.802742,0.4775963,2.8153,0.5467834,3.0571289,0.3583984
		c0.329586-0.2555389,0.1276169-0.2733116,0.6625977-6.2480469c0.0527534-0.6611824-0.9445152-0.7375984-0.9970703-0.0800781
		l-0.4272461,5.3486328l-2.1264648-0.3642578C55.0182266,60.8132019,54.8522491,61.7992287,55.5028496,61.9101944z"/>
</g>
</svg>
