<?xml version="1.0" encoding="utf-8"?>
<!-- Generator: Adobe Illustrator 22.0.1, SVG Export Plug-In . SVG Version: 6.00 Build 0)  -->
<svg version="1.1" id="Layer_1" xmlns="http://www.w3.org/2000/svg" xmlns:xlink="http://www.w3.org/1999/xlink" x="0px" y="0px"
	 viewBox="0 0 58 58" style="enable-background:new 0 0 58 58;" xml:space="preserve">
<style type="text/css">
	.st0{fill:none;stroke:#000000;stroke-width:0.5;stroke-linecap:round;stroke-linejoin:round;stroke-miterlimit:10;}
	.st1{fill:none;stroke:#000000;stroke-width:0.75;stroke-linecap:round;stroke-linejoin:round;stroke-miterlimit:10;}
	.st2{fill:none;stroke:#000000;stroke-linecap:round;stroke-linejoin:round;stroke-miterlimit:10;}
	.st3{stroke:#000000;stroke-width:0.5;stroke-linecap:round;stroke-linejoin:round;stroke-miterlimit:10;}
	.st4{fill:none;}
	.st5{fill:none;stroke:#030303;stroke-width:0.5;stroke-linecap:round;stroke-linejoin:round;stroke-miterlimit:10;}
	.st6{fill:none;stroke:#030303;stroke-width:0.75;stroke-linecap:round;stroke-linejoin:round;stroke-miterlimit:10;}
	.st7{fill:none;stroke:#000000;stroke-width:0.25;stroke-linecap:round;stroke-linejoin:round;stroke-miterlimit:10;}
	.st8{fill:none;stroke:#231F20;stroke-width:0.5;stroke-linecap:round;stroke-linejoin:round;stroke-miterlimit:10;}
	.st9{fill:none;stroke:#000000;stroke-width:0.5;stroke-linecap:round;stroke-linejoin:round;}
	
		.st10{fill:none;stroke:#000000;stroke-width:0.5;stroke-linecap:round;stroke-linejoin:round;stroke-dasharray:1.9692892,1.9692892;}
</style>
<g id="Online_Book">
	<g>
		<path class="st0" d="M48.1508255,34.2945099c0.0299683,0.3800049-0.2000122,0.7199707-0.5599976,0.8299561
			c-7.0300293,2.0500488-13.5600586,4.3500366-19.3300171,7.0100098
			c-5.5700073-1.7699585-12.5900269-2.8599854-20.2800293-3.3900146c-0.3899536-0.0299683-0.7000122-0.3299561-0.7399902-0.7199707
			L5.0008011,10.7544708C4.9707718,10.3045197,5.3208084,9.914505,5.7708206,9.9044952l2.4499512-0.0700073
			c0.9500122,0.0499878,1.8300171,0.3699951,2.6600342,0.8200073c0.0200195,0.0100098,0.0499878,0.0299683,0.0700073,0.039978
			l1.8299561,21.5900269c0.0300293,0.3499756,0.3000488,0.6400146,0.6600342,0.6900024
			c5.5,0.8200073,10.3699951,2.6900024,14.5899658,5.6400146c2.7600098-3.9400024,7.5800171-6.4500122,13.2800293-8.5
			c0.3300171-0.1100464,0.539978-0.4400024,0.5100098-0.7900391L40.0108109,7.9344635
			c0.8599854-0.4799805,1.75-0.8999634,2.6699829-1.2399902l2.3400269-0.1699829
			c0.4299927-0.0300293,0.7999878,0.289978,0.8399658,0.7199707L48.1508255,34.2945099z"/>
		<path class="st0" d="M11.5264759,7.2739291c4.8446732,0.054522,9.6256027,2.2204576,14.3303776,6.9069552
			c3.1388073-4.3943071,7.3628044-7.5610876,13.0006866-9.1285553c0.4631653-0.1287718,0.9275322,0.2062459,0.9681358,0.6852622
			l1.9992981,23.5863152c0.0297127,0.3505192-0.1824608,0.6757259-0.513546,0.7945957
			c-5.705368,2.0484142-10.5215569,4.5572605-13.2807751,8.4926205c-4.2171497-2.9463844-9.0931244-4.8119888-14.5902987-5.6329842
			c-0.3554335-0.0530815-0.6303616-0.3391609-0.6607161-0.6972504L10.731349,8.1166162
			C10.6922379,7.6552076,11.0634413,7.2687182,11.5264759,7.2739291z"/>
		<line class="st0" x1="25.8568535" y1="14.1808844" x2="28.0225487" y2="38.5200539"/>
		<path class="st0" d="M36.2287483,45.1302567c-0.0075378,0.0202065-0.0149155,0.0404816-0.0221252,0.060833
			c-0.3002129,0.8472519-0.3471527,2.1249123,0.3527641,2.8002739c0.5446281,0.5255203,1.3369942,0.6937523,2.0900383,0.7693138
			s1.5309792,0.0856323,2.2286148,0.3790474c0.6629829,0.2788391,1.1953278,0.7895126,1.7742043,1.216362
			c1.8666916,1.376461,4.3249664,1.8752861,6.5920448,1.4291687c0.2306519-0.0453873,0.4593811-0.100563,0.6852913-0.1655846
			c1.4522514-0.417984,3.089447-1.5219536,2.9147873-3.251358c-0.1012955-1.0029678-0.6887932-1.9087677-1.2891769-2.6879768
			c-0.6656418-0.863903-1.4876328-1.5968857-2.3641129-2.2408028c-0.6661949-0.4894257-1.3761597-0.9187775-2.1166458-1.2860336
			c-0.897522-0.4451408-1.9236336-0.9459534-2.9127884-1.1179504c-1.0591393-0.184166-2.1582451-0.10923-3.1897011,0.1886101
			c-1.1543083,0.3333168-2.2231979,0.9417229-3.1291771,1.7308578
			C37.1548157,43.5542412,36.5472565,44.2765427,36.2287483,45.1302567z"/>
		<path d="M38.736515,43.5505028c0.9765778,0.2969894,1.9000549,0.6944885,2.7701721,1.1926727l0.9062958-1.2638054
			c-0.8798828-0.5470772-1.7526779-0.9340286-2.6165237-1.1187859l-1.0599365,1.189949"/>
		<path class="st1" d="M38.3533707,42.7684135c2.2366753,0.4670525,4.3370171,1.4284782,6.160347,2.8055496"/>
		<path class="st0" d="M15.6996098,13.0829439c2.2920055,0.4576092,4.5008163,1.328701,6.4881897,2.5587597"/>
		<path class="st0" d="M15.6129522,18.1972351c2.2920065,0.4576092,4.5008154,1.328701,6.4881887,2.5587597"/>
		<path class="st0" d="M15.8652525,24.6754646c2.2920065,0.4576092,4.5008154,1.328701,6.4881887,2.5587597"/>
		<path class="st0" d="M35.7555008,11.7128897c-2.1783524,0.8470459-4.2032604,2.0869608-5.9479961,3.6421442"/>
		<path class="st0" d="M36.6052933,17.2865314c-2.1783524,0.8470459-4.2032585,2.0869598-5.9479961,3.6421432"/>
		<path class="st0" d="M37.1852341,22.9630585c-2.1783485,0.8470459-4.2032585,2.0869598-5.9479923,3.6421432"/>
		<path d="M20.0799294,33.5851669c-0.0590534,0.073967-0.5172405-0.0970039-0.5974407-0.1255264
			c-0.2601738-0.0925255-0.5217171-0.1812134-0.7846603-0.2655525c-0.8261395-0.2649803-1.6667709-0.4876823-2.5199699-0.646595
			c-0.4062061-0.0756569-0.8147764-0.1349335-1.2254305-0.1803131c-0.3217421-0.035553-0.6938162-0.1583977-0.9338694-0.3807125
			c-0.1097231-0.101614-0.1050596-0.2007217-0.1185741-0.3431587c-0.0977955-1.0306873-0.19559-2.0613766-0.2933855-3.0920639
			c0.015317-0.3031483-0.0605488-0.6381416-0.0892658-0.940794c-0.0152588-0.16082-0.0305176-0.32164-0.0457792-0.482481
			c-0.007679-0.0808563-0.0727587-0.2419319-0.0043793-0.3108253c0.1003113-0.1010628,0.2130165,0.0922165,0.2678967,0.1567783
			c0.1932135,0.2272968,0.396781,0.4458027,0.610158,0.6542931c0.213109,0.208231,0.4359856,0.4064674,0.6678238,0.593626
			c0.1161652,0.0937767,0.2345743,0.1847744,0.3551025,0.272871c0.08955,0.0654564,0.3104038,0.2070389,0.1180458,0.2616024
			c-0.0922108,0.0261555-0.2118626-0.0000648-0.3057518-0.0096684c-0.1676188-0.0171318-0.3334007-0.0523548-0.493371-0.1052761
			c0.3977537,0.5349751,0.8691559,1.0149517,1.3959293,1.4234352c0.1330853,0.1032009,0.2697201,0.2017918,0.4095535,0.2956409
			c0.0730762,0.0490475,0.2245789,0.1030598,0.127182,0.2033424c-0.0968437,0.0997143-0.3502026,0.029253-0.4665318,0.0114231
			c-0.1994333-0.0305672-0.4041624-0.0179119-0.6033306-0.069849c0.5183392,0.5708485,1.2921906,0.9652615,1.9958248,1.258503
			c0.7550316,0.3146667,1.4560509,0.7556114,2.0662441,1.3004456c0.1374741,0.1227455,0.2702904,0.2506981,0.3980446,0.3835335
			C20.080349,33.5209999,20.0971909,33.563549,20.0799294,33.5851669z"/>
		<path d="M50.7895203,50.5025063c-0.8464279,0.532135-1.8737144,0.7168121-2.8733902,0.700798
			c-1.4478722-0.0231934-2.887104-0.4523315-4.1112442-1.2258606c0.8516235,0.261982,1.7721672,0.3347702,2.6628609,0.3110847
			c-0.1065979,0.1075058-0.2393646,0.1888809-0.3835373,0.2350807c0.3127327,0.1936989,0.7049522,0.1975937,1.0713501,0.1647568
			c0.4190598-0.0375595,0.834507-0.1153374,1.2387695-0.2319221c-0.0257416,0.0074234-0.1021881,0.15271-0.1315536,0.1805611
			c-0.0670242,0.0635567-0.1493874,0.107399-0.2312355,0.146347c0.414196,0.1241226,0.9437943,0.0716095,1.3648987,0.0012589
			c0.1371422-0.0229073,0.2730598-0.0525284,0.4089165-0.0821381c0.3178711-0.0692787,0.635746-0.1385536,0.9536171-0.2078323"/>
		
			<ellipse transform="matrix(0.5062678 -0.8623763 0.8623763 0.5062678 -14.2153034 62.3609505)" cx="47.3536606" cy="43.5950394" rx="0.2717512" ry="0.3975851"/>
		
			<ellipse transform="matrix(0.9919307 -0.1267809 0.1267809 0.9919307 -5.2633333 6.4036989)" cx="47.6745033" cy="44.5495377" rx="0.1972388" ry="0.1402587"/>
		
			<ellipse transform="matrix(0.9919307 -0.1267809 0.1267809 0.9919307 -5.2339959 6.296526)" cx="46.8472404" cy="44.26548" rx="0.1227263" ry="0.0535282"/>
		<path d="M52.8107986,48.1444855c0.0100098,0.0700073,0.0200195,0.1500244,0.0300293,0.2200317
			c0.1799927,1.7299805-1.460022,2.8399658-2.9100342,3.2599487c-0.2299805,0.0599976-0.460022,0.1199951-0.6900024,0.1600342
			c-2.2600098,0.4500122-4.7199707-0.0499878-6.5899658-1.4299927c-0.5800171-0.4299927-1.1100464-0.9400024-1.7700195-1.210022
			c-0.7000122-0.2999878-1.4799805-0.3099976-2.2299805-0.3800049c-0.75-0.0800171-1.5500488-0.25-2.0900269-0.7700195
			c-0.3499756-0.3399658-0.5100098-0.8399658-0.5499878-1.3499756c-0.0499878,0.2299805-0.0200195,0.4500122,0,0.6799927
			c0.0100098,0.2600098,0.0800171,0.5100098,0.1699829,0.75c0.2200317,0.5599976,0.5599976,1.0300293,1,1.4400024
			c0.4199829,0.3800049,0.8900146,0.7000122,1.3800049,0.9899902c2.6300049,1.5700073,5.6799927,2.4299927,8.7399902,2.4700317
			c0.960022,0.0100098,1.9299927-0.0599976,2.8400269-0.3500366c0.9199829-0.2999878,1.7699585-0.8399658,2.3200073-1.6300049
			C53.0008011,50.204483,53.170784,49.0345001,52.8107986,48.1444855z M39.535408,50.6049347
			c-0.156311-0.0038452-0.2815552-0.069397-0.2796631-0.1464233s0.130188-0.1363525,0.286499-0.1325684
			c0.1563721,0.0038452,0.2815552,0.069458,0.2796631,0.1464844S39.6917191,50.6087799,39.535408,50.6049347z
			 M40.2273026,51.0383453c-0.0446167,0.0056763-0.0827637-0.0050049-0.085144-0.0238647
			c-0.0024414-0.0188599,0.0317993-0.0388184,0.076416-0.0444946c0.0446167-0.0057373,0.0827026,0.0049438,0.085144,0.0238037
			C40.3060989,51.0127106,40.2719193,51.032608,40.2273026,51.0383453z M40.8107986,50.761673
			c-0.1749878,0.0223389-0.3264771-0.0346069-0.3383179-0.1272583c-0.0118408-0.0927124,0.1204224-0.1859131,0.2954712-0.208313
			c0.1749878-0.0223389,0.3264771,0.0346069,0.3383179,0.1272583S40.9858475,50.7392731,40.8107986,50.761673z
			 M50.523201,52.1580963c-0.6366577,0.2784424-1.3255615,0.4223633-2.0167847,0.4937744
			c-0.2322388,0.0240479-0.468811,0.039856-0.6976929-0.0065918c0.4038696-0.0600586,0.7940063-0.2164307,1.1868896-0.3274536
			c0.7467041-0.2111206,1.4985962-0.4241943,2.1921997-0.7720947c0.3156128-0.1582642,0.6869507-0.432312,0.9707031-0.642395
			C51.7440872,51.4610748,51.1598587,51.8795929,50.523201,52.1580963z"/>
		<path d="M38.993206,7.7806787c0.0359612,0.0318823,0.0699577,0.0679526,0.0882683,0.1123862
			c0.033638,0.0816288,0.0074425,0.1781726-0.0446854,0.2494302s-0.1267357,0.1222429-0.2002029,0.1712036
			c-0.0616684,0.0410957-0.1289253,0.0833702-0.2029953,0.0810013c-0.0427666-0.0013676-0.0839729-0.0179405-0.1199837-0.0410557
			c-0.1775398-0.1139669-0.2881088-0.4850059-0.1778984-0.6775756C38.4708557,7.43993,38.8480949,7.65202,38.993206,7.7806787z"/>
		<path d="M36.9263458,7.5366335c0.0130005-0.1524234,0.2203445-0.228807,0.3543167-0.1549602
			c0.1339722,0.0738473,0.1909752,0.2416821,0.1844902,0.3945212c-0.0044022,0.1037078-0.0589447,0.2285175-0.1627388,0.2298279
			c-0.0831833,0.0010509-0.1411057-0.0780468-0.2091293-0.1259356c-0.0469284-0.0330372-0.103302-0.0530901-0.1439629-0.0935898
			c-0.0560837-0.0558572-0.0715714-0.1483297-0.0367508-0.2194128"/>
		<path d="M37.2592506,8.6118832c0.0130005-0.1524229,0.2203445-0.2288074,0.3543167-0.1549597
			c0.1339722,0.0738468,0.1909752,0.2416821,0.1844902,0.3945208c-0.0044022,0.1037083-0.0589485,0.2285175-0.1627388,0.2298279
			c-0.0831833,0.0010509-0.1411057-0.0780468-0.2091293-0.1259356c-0.0469284-0.0330372-0.103302-0.0530901-0.1439629-0.0935898
			c-0.0560837-0.0558567-0.0715752-0.1483297-0.0367508-0.2194128"/>
		<path d="M13.7442827,38.3805161c-1.0590219-0.0843887-2.1180439-0.1687813-3.1770668-0.25317
			c-0.4657221-0.0371132-0.9314442-0.0742226-1.3971663-0.1113358c-0.3958206-0.0315437-1.0440245,0.0140686-1.1796446-0.479435
			c-0.0302801-0.1101875-0.0207353-0.2486458-0.0302553-0.3626251c0.0202208-0.400219-0.0698771-0.8366241-0.1032753-1.2364922
			c-0.0175943-0.2106552-0.0351887-0.4213066-0.052783-0.631958c-0.0086751-0.1038666-0.0879073-0.3119812-0.0109172-0.4033966
			c0.1071877-0.1272697,0.2470717,0.2349167,0.3052745,0.3222504c0.224679,0.3371315,0.5014496,0.6425247,0.8254719,0.8867188
			c-0.1733437,0.0434227-0.3602619,0.0308113-0.5262041-0.0354958c0.2394819,0.3274536,0.5988798,0.5461655,0.9657707,0.7192841
			c1.3857622,0.6538696,2.938468,0.7608604,4.4175854,1.0792923c0.3055487,0.0657806,0.6093426,0.1405106,0.9085741,0.230999
			c0.1387625,0.0419617,0.6167698,0.101284,0.6025257,0.3104744c-0.0112352,0.1650009-0.5324526,0.0458069-0.653182,0.0361862
			C14.3407564,38.4280472,14.0425215,38.4042816,13.7442827,38.3805161z"/>
		<path d="M42.6807938,6.6944733L42.6607742,6.454483c-0.039978-0.4400024-0.4299927-0.7600098-0.8699951-0.710022
			l-1.9499512,0.210022l0.1699829,1.9799805l1.8099976,21.3900146c0.0299683,0.3500366-0.1799927,0.6799927-0.5100098,0.7900391
			c-5.7000122,2.0499878-10.5200195,4.5599976-13.2800293,8.5c-4.2199707-2.9500122-9.0899658-4.8200073-14.5899658-5.6400146
			c-0.3599854-0.0499878-0.6300049-0.3400269-0.6600342-0.6900024l-1.8299561-21.5900269l-0.1799927-2.1099854L8.9907913,8.4944611
			C8.5208206,8.4745026,8.1408157,8.8645172,8.1807938,9.3444977l0.039978,0.4899902l2.1200562,25
			c0.0299683,0.3800049,0.3399658,0.6900024,0.7199707,0.710022c5.539978,0.4099731,10.8400269,0.4099731,16.9799805,3.9799805
			c3.8099976-3.2700195,9.5200195-5.2999878,16.1700439-6.8599854c0.3699951-0.0800171,0.6300049-0.4299927,0.5999756-0.8200073
			L42.6807938,6.6944733z M10.4162674,20.648819c-0.1791992-0.0090942-0.3110352-0.2816772-0.2945557-0.6089478
			c0.0165405-0.3272095,0.1752319-0.585144,0.3544312-0.5761108c0.1792603,0.0090332,0.3110962,0.2816772,0.2945557,0.6088867
			C10.754158,20.3999176,10.5955276,20.6578522,10.4162674,20.648819z M11.0548172,18.9096222
			c-0.1241455-0.0062256-0.2177124-0.1505737-0.2090454-0.3223877c0.008667-0.1717529,0.116333-0.3059082,0.2404785-0.2996826
			c0.1240845,0.0062866,0.2177124,0.1506348,0.2089844,0.3223877
			C11.2865677,18.7817535,11.1789017,18.9159088,11.0548172,18.9096222z M37.363533,32.9955597
			c-1.4584961,0.5727539-2.8686523,1.2890625-4.1918945,2.1293945c-0.0205078,0.0131836-0.0439453,0.0195313-0.0668945,0.0195313
			c-0.0410156,0-0.081543-0.0205078-0.1054688-0.0581055c-0.0371094-0.0581055-0.0200195-0.1352539,0.0385742-0.1723633
			c1.3364258-0.8491211,2.7612305-1.5727539,4.2338867-2.1508789c0.0644531-0.0258789,0.1367188,0.0058594,0.1621094,0.0703125
			S37.4279861,32.9706573,37.363533,32.9955597z M42.6188431,27.7879791
			c-0.0925293-0.0046387-0.1607056-0.144165-0.1522217-0.3115845c0.0084229-0.1673584,0.090332-0.2992554,0.1828613-0.2946167
			c0.0925293,0.0046997,0.1607056,0.144165,0.1522217,0.3115845C42.7932205,27.6607208,42.7113724,27.7926788,42.6188431,27.7879791
			z M43.6663284,28.8319244c-0.1712036-0.008606-0.3029785-0.1544189-0.2943115-0.3256226
			c0.008667-0.1711426,0.1544189-0.3029175,0.3256226-0.2942505c0.1712036,0.008606,0.3029175,0.1544189,0.2943115,0.3256226
			C43.983284,28.7088165,43.837532,28.8405914,43.6663284,28.8319244z"/>
		
			<ellipse transform="matrix(0.9989589 -0.0456184 0.0456184 0.9989589 -0.6651713 2.0912275)" cx="45.4853401" cy="15.6192408" rx="0.2542705" ry="0.6289848"/>
		<circle cx="44.8247566" cy="16.8949566" r="0.2588427"/>
		<path class="st0" d="M27.6095161,40.3761673c-1.282032,1.0717659-2.5609398,2.2084198-3.284668,3.7072716
			c-0.1545067,0.3199844-0.2831116,0.6596146-0.3053398,1.0142517c-0.0222301,0.3546371,0.072979,0.7283936,0.3172512,0.9864502
			c0.3645573,0.3851242,0.9857407,0.4292908,1.4803925,0.2381363c0.4946518-0.1911583,0.8884468-0.5731087,1.2511597-0.9599686
			s0.7173271-0.7951965,1.1738892-1.0649605c0.361887-0.2138252,0.8633976-0.315567,1.176384-0.0349884
			c0.3143311,0.2817764,0.2770977,0.7977371,0.5321198,1.13414c0.2071877,0.273304,0.5843601,0.3798637,0.9234219,0.3283005
			c0.3390617-0.0515671,0.6435871-0.2390823,0.9045753-0.461586c0.4769249-0.4065933,0.8347282-0.9335556,1.2755356-1.3790512
			c1.2834358-1.2970848,3.3013268-1.8120651,5.0493698-1.2886353"/>
		<path d="M29.0315628,38.7334747l-2.1210327,0.1690063l0.0950317,1.1210327
			c0.0203857,0.2407227,0.2366943,0.4163208,0.4764404,0.3867798l1.2672119-0.1560059
			c0.2272339-0.0279541,0.3917236-0.2305908,0.3723755-0.4587402L29.0315628,38.7334747z M27.627449,40.117569
			c-0.0947876-0.0032349-0.1956177-0.0084839-0.2731323-0.0631714c-0.1044312-0.0737915-0.1344604-0.2130127-0.1564941-0.3390503
			c-0.03302-0.1894531-0.0661011-0.3788452-0.0991821-0.5682373c0.1390991,0.2089844,0.3342285,0.3669434,0.5582275,0.4803467
			c-0.0803833,0.0183716-0.168457,0-0.2349243-0.0488892c0.1397705,0.1809692,0.3453369,0.3099365,0.5690918,0.3569946
			c0.1409302,0.0296021,0.3458252-0.0443115,0.4552612,0.0493164C28.207283,40.1322174,27.9080887,40.1272125,27.627449,40.117569z"
			/>
	</g>
</g>
</svg>
