<?xml version="1.0" encoding="utf-8"?>
<!-- Generator: Adobe Illustrator 22.0.1, SVG Export Plug-In . SVG Version: 6.00 Build 0)  -->
<svg version="1.1" id="Layer_1" xmlns="http://www.w3.org/2000/svg" xmlns:xlink="http://www.w3.org/1999/xlink" x="0px" y="0px"
	 viewBox="0 0 58 58" style="enable-background:new 0 0 58 58;" xml:space="preserve">
<style type="text/css">
	.st0{fill:none;stroke:#000000;stroke-width:0.5;stroke-linecap:round;stroke-linejoin:round;stroke-miterlimit:10;}
	.st1{fill:none;stroke:#010101;stroke-width:0.5;stroke-linecap:round;stroke-linejoin:round;stroke-miterlimit:10;}
	.st2{fill:none;stroke:#000000;stroke-linecap:round;stroke-linejoin:round;stroke-miterlimit:10;}
	.st3{fill:none;stroke:#000000;stroke-width:1.5;stroke-linecap:round;stroke-linejoin:round;stroke-miterlimit:10;}
	.st4{fill:#010101;}
	.st5{fill:#040301;}
	.st6{fill:none;stroke:#010101;stroke-width:0.5;stroke-miterlimit:10;}
</style>
<g id="Business_Call">
	<g>
		<g>
			<path class="st0" d="M22.082634,34.1278725c0.4916267-0.355423,0.8175354-0.7266083,1.391016-0.4812126
				c0.5189667,0.2187233,0.8263512,0.92099,1.0995884,1.3584366c0.4642868,0.7915382,1.0385723,1.4667091,1.8852901,1.7127724
				c1.0652771,0.3547592,2.1327991-0.1855736,2.952177-0.9230957c2.1032104-1.8571472,4.1346893-3.854351,5.6369133-6.230299
				c0.8740578-1.4203682,1.6259346-2.968874,2.0083656-4.5806236c0.2457314-1.0102615,0.8026047-3.5909824-0.2351646-4.3558464
				c-0.2185555-0.1633759-0.5626793-0.0951042-0.8357506-0.177124c-0.792038-0.1640434-1.6409416-0.2174644-2.4056396-0.462862
				c-0.6281624-0.1913815-1.255497-0.4622231-1.8564873-0.7076206c-0.5189667-0.2460632-1.1241055-0.6135025-1.287981-1.1603107
				c-0.1638756-0.4914608-0.1238689-1.0501728-0.0145073-1.5422993"/>
		</g>
		<g>
			<path class="st0" d="M36.1901855,5.5901184c1.4999542,0.381855,2.9547882,1.0459824,4.2506599,1.8737979
				c1.2997856,0.8303161,2.2921066,2.0384412,3.2221642,3.28297c1.5614433,2.0819244,2.4339027,4.391531,2.3076057,6.8195143
				c-0.1255608,2.4138603-1.2955322,4.8213425-1.8129845,7.0952797c-0.3578873,1.6106682-0.9455948,3.1690464-1.6185989,4.7410564
				c-0.6624832,1.5474396-1.5379753,2.9670372-2.3915863,4.4033394c-0.5736504,0.9289093-1.0293922,1.9125137-1.6303825,2.7593994
				c-1.0084839,1.4856071-1.8823853,3.0864792-3.1084938,4.3952827c-1.2312393,1.3142853-2.4705276,2.6773758-3.921175,3.7311745
				c-0.7373581,0.6008224-1.7382946,0.8249054-2.5576725,1.2890244c-1.5569038,0.9015656-3.0887489,1.8944283-4.8095264,2.4132271
				c-1.3383465,0.4094391-2.8265057,0.8355522-4.2195339,0.7261925c-1.8573132-0.1907158-3.5877113-1.3703804-5.0352526-2.5446854
				c-1.4203672-1.1749687-2.3011236-3.2729263-3.4482536-4.7206345"/>
		</g>
		<path class="st0" d="M40.2529335,18.4221954c-0.2570915,7.3062553-3.5550652,14.4585419-8.9446392,19.3981705
			c-0.9058266,0.8302078-1.8877945,1.612072-3.0342541,2.0541077s-2.4877739,0.5075302-3.5737801-0.0672379"/>
		<path d="M14.0831108,48.8707504c0.0460663,0.667366,0.6483135,1.2011147,1.3021698,1.3424339
			s1.3371391-0.0378189,1.9494896-0.3071251c0.6967831-0.3064423,1.34128-0.7313652,1.8974781-1.2510376
			c-0.0769672,0.0719147-0.6820984-0.1125298-0.7921867-0.1367569c-0.2792492-0.061451-0.5555134-0.1364517-0.8275604-0.2244644
			c-0.5356331-0.1732941-1.054882-0.3971176-1.5485458-0.6677284c-0.4418306-0.2421989-0.8045435-0.6509399-1.2583237-0.2454796
			C14.3954945,47.7470589,14.0438576,48.3020897,14.0831108,48.8707504z"/>
		<g>
			<path d="M36.5803413,5.0494251c-1.4737549-0.7404785-4.1488495,1.7814527-5.8746796,5.5541573
				s-1.9323387,7.5331841-0.4585838,8.2739067c1.4736328,0.7402344,4.2091599-1.7558804,5.935112-5.5285854
				C37.90802,9.5761986,38.0540962,5.7899036,36.5803413,5.0494251z M31.789917,15.4414186
				c-0.3339844,0.6647959-0.7192898,1.0969553-0.9862576,0.962678c-0.2669678-0.1340332-0.1486893-0.7003412,0.1852951-1.3651361
				c0.3341064-0.6647949,0.688343-1.0390596,0.9553108-0.9047823C32.2113571,14.2682114,32.1239014,14.7766237,31.789917,15.4414186
				z M32.5643349,11.576911c-0.3341064,0.6647949-0.7192974,1.0969601-0.9863873,0.9626827
				c-0.2669678-0.1340332-0.1486835-0.700346,0.1853008-1.3651409s0.6883316-1.0390577,0.9554214-0.9047804
				C32.9855156,10.4037056,32.8983192,10.9121161,32.5643349,11.576911z M35.0014687,12.7126532
				c-0.3341064,0.6647949-0.7191658,1.0969648-0.9862556,0.9626875s-0.1486931-0.7003508,0.1852913-1.3651457
				s0.6883316-1.0390577,0.9552994-0.9047804C35.4227715,11.5394478,35.335453,12.0478582,35.0014687,12.7126532z
				 M35.3841553,8.5405397c-0.3339844,0.6647949-0.7193031,1.0967045-0.9861488,0.9626713
				c-0.2670898-0.1340332-0.1487999-0.7003345,0.1851845-1.3651295c0.3341064-0.6647949,0.6883469-1.0390592,0.9553146-0.905026
				C35.8055954,7.3673329,35.7181396,7.8757448,35.3841553,8.5405397z"/>
		</g>
		<g>
			<path d="M23.8941746,33.1616859c-0.6119232-0.8183212-2.2201328-0.6386795-4.2377472,0.1214066
				c-1.2389011,0.4667282-2.7118092,1.0057373-4.070693,1.96064c-3.5718994,2.5100098-5.7158375,5.7626343-4.7280445,7.0834351
				c0.6119919,0.8183098,2.3657188,0.6897659,4.3832836-0.0702972c1.2389078-0.4667282,2.576396-1.2563324,3.9352598-2.2112503
				C22.7480106,37.5356102,24.8819675,34.4822426,23.8941746,33.1616859z M14.6605282,40.2852592
				c-0.6462402,0.4541016-1.4161491,0.7066803-1.5948601,0.4679108c-0.1787109-0.2390137,0.3536434-0.8048744,0.9998837-1.258976
				s1.1639748-0.6262398,1.3426857-0.3872261C15.5869484,39.3457375,15.3067684,39.8311577,14.6605282,40.2852592z
				 M16.5333309,37.2090874c-0.6462402,0.4543457-1.4162712,0.7069244-1.5949821,0.4679108
				c-0.1787109-0.2387695,0.3536434-0.8048744,0.9998837-1.258976s1.1638527-0.6259956,1.3425636-0.3872261
				C17.459507,36.2698097,17.1795712,36.7549858,16.5333309,37.2090874z M18.6701717,39.0679741
				c-0.6462402,0.4541016-1.4162712,0.7066803-1.5949821,0.4679108c-0.1787109-0.2390137,0.353775-0.8048782,1.0000153-1.2592239
				c0.6462402-0.4541016,1.1638432-0.6259918,1.3425541-0.3869781
				C19.5964699,38.1284523,19.316412,38.6138725,18.6701717,39.0679741z M20.6425838,35.7181206
				c-0.6462402,0.4543457-1.4162903,0.7069016-1.5950012,0.4678879s0.3537846-0.8048515,1.0000248-1.2589531
				s1.1638336-0.6262665,1.3425446-0.3872528S21.2888241,35.264019,20.6425838,35.7181206z"/>
		</g>
		<path class="st0" d="M34.6002274,20.0048523c3.5530167-3.1186523,5.6784477-7.8037519,5.6849251-12.5313168"/>
		<g>
			<path d="M43.6576385,15.5194006c-0.0329704,0.2822924-0.1628532,0.5618181-0.3914223,0.7307367
				s-0.5616417,0.2056179-0.7994118,0.049921c-0.1801834-0.1179886-0.2661324-0.3435059-0.256485-0.5539827
				c0.0093231-0.2034063,0.2346916-0.3817072,0.3581352-0.5303059c0.0381393-0.0459127,0.0783882-0.0976114,0.0766106-0.1572742
				c-0.0017471-0.0587845-0.0436172-0.1072569-0.0729027-0.1582565c-0.1980057-0.3448133,0.1738129-0.6808643,0.5159874-0.5693712
				c0.2026138,0.0660181,0.3677711,0.2991657,0.4551353,0.4848347
				C43.6448822,15.0316286,43.6853142,15.282424,43.6576385,15.5194006z"/>
			<path d="M42.610054,12.4577026c0.0593567,0.0238571,0.0964317,0.0874796,0.1016922,0.1512346
				c0.0052567,0.063755-0.0168724,0.1270552-0.0482483,0.1828022c-0.1459808,0.2593479-0.4677963,0.3434334-0.7231445,0.1848507
				c-0.0804062-0.0499353-0.1339302-0.1568947-0.0922546-0.2418747c0.0254745-0.0519352,0.0796089-0.0845709,0.1081276-0.1348982
				c0.0412903-0.0728693,0.0203819-0.1630716,0.0164986-0.2467365s0.0277557-0.1865826,0.1102104-0.2012959
				c0.0722046-0.0128851,0.134285,0.0513239,0.1718063,0.1143494c0.0375175,0.0630245,0.0717468,0.1366796,0.139637,0.1644402
				C42.456707,12.4560604,42.5300636,12.4344301,42.610054,12.4577026z"/>
			<path d="M41.0734787,14.1033916c0.0232277,0.1086035,0.0361938,0.2293854,0.1163979,0.3062077
				c0.0611229,0.058547,0.1527863,0.0813646,0.2041664,0.1486225c0.1642761,0.215045-0.1480713,0.3593588-0.3180237,0.3216496
				c-0.1738701-0.038579-0.401741-0.2044601-0.478157-0.3680906C40.4143448,14.1188183,40.9512367,13.5318909,41.0734787,14.1033916
				z"/>
		</g>
		<path d="M21.6780605,14.9297543c-0.8857422-1.3063965-2.1223145-2.2939453-3.4499512-2.9445801
			c-1.3803711-0.6560059-2.9182129-0.8110352-4.447876-0.7038574c-1.4656982,0.1091309-3.0283203,0.3679199-4.3460693,1.2578125
			c-1.302124,0.8969727-2.1513667,2.234375-2.7976069,3.5732422c-0.6601563,1.3693848-1.1657715,2.8840332-1.0623779,4.4025879
			c0.1131592,1.4770508,0.6488037,3.0009766,1.5345459,4.307373c1.4134517,2.0866699,3.6809077,3.3654785,6.0028071,3.7258301
			c0.305542,0.0395508,0.618042,0.0634766,0.9449463,0.0571289l1.619873,1.9602051l0.6495361-2.3273926
			c0.9273682-0.2651367,1.8206787-0.6572266,2.5585938-1.0932617c1.1217041-0.6660156,2.0974121-1.5566406,2.8502197-2.6054688
			c0.3674316-0.5148926,0.8395996-1.1572266,0.9936523-1.7705078c0.1497803-0.6245117,0.097168-1.3520508,0.1635742-1.996582
			C23.1084805,18.781805,22.8863125,16.6995296,21.6780605,14.9297543z M7.7654634,22.7576351
			c-0.7241211-0.9763184-0.9230957-2.5241699-0.8443604-3.578125c0.0551758-0.7175293,0.2416992-1.4243164,0.5427246-2.0776367
			c0.3526611-0.7658691,0.6871333-1.3632813,1.4195552-1.7976074c-0.798584,1.2404785-1.2138667,2.7241211-1.1750484,4.1989746
			s0.5314937,2.9345703,1.3942866,4.1313477C8.5327969,23.5274105,8.0948086,23.2014828,7.7654634,22.7576351z M17.65975,21.3889828
			c-0.2131348,0.3352051-0.5075684,0.6499023-0.8564453,0.951416l0.4724121,0.7131348
			c0.0671387,0.1010742,0.0847168,0.2133789,0.0534668,0.3376465c-0.0311279,0.1242676-0.1088867,0.2285156-0.2319336,0.3122559
			c-0.123291,0.0834961-0.2471924,0.1162109-0.3728027,0.0983887c-0.126709-0.017334-0.2229004-0.0761719-0.2900391-0.177002
			l-0.4602051-0.6901855c-0.4072266,0.2512207-0.8061523,0.4562988-1.1920166,0.5895996
			c-0.4543457,0.1572266-0.8616943,0.25-1.2232666,0.2788086c-0.1331787,0.012207-0.2478027-0.0100098-0.3452148-0.0649414
			c-0.0979004-0.0554199-0.1657715-0.1308594-0.2052002-0.2260742c-0.0400391-0.0944824-0.0482178-0.1933594-0.0269775-0.2949219
			c0.0212402-0.1013184,0.072998-0.1889648,0.1542969-0.2617188c0.081665-0.0725098,0.2006836-0.1186523,0.3583984-0.1386719
			c0.2943115-0.0251465,0.6337891-0.0996094,1.0170898-0.2207031c0.3840332-0.1218262,0.8063965-0.338623,1.2675781-0.6518555
			c0.3708496-0.251709,0.6477051-0.5004883,0.8293457-0.7456055c0.1821289-0.2451172,0.2828369-0.4790039,0.3011475-0.7004395
			c0.0186768-0.2214355-0.0356445-0.4289551-0.1627197-0.6223145c-0.1032715-0.1569824-0.2322998-0.2661133-0.3883057-0.3271484
			c-0.1546631-0.0610352-0.348999-0.0717773-0.5826416-0.0317383c-0.2348633,0.0405273-0.5178223,0.1337891-0.8515625,0.28125
			l-1.2026367,0.5266113c-0.7108154,0.3066406-1.3146973,0.4255371-1.8115234,0.3569336
			c-0.496582-0.0693359-0.9008789-0.3317871-1.2098389-0.7878418c-0.2440186-0.3603516-0.3618164-0.7490234-0.3537598-1.1662598
			c0.0084229-0.4177246,0.137085-0.833252,0.3848877-1.2438965c0.2199707-0.3642578,0.5393066-0.701416,0.9296875-1.0195313
			l-0.4929199-0.7392578c-0.0705566-0.105957-0.090332-0.2233887-0.0588379-0.3537598
			c0.0305176-0.1296387,0.1086426-0.2373047,0.2353516-0.3234863c0.119873-0.0812988,0.2469482-0.1130371,0.3812256-0.0952148
			s0.2353516,0.0800781,0.305542,0.1862793l0.4882813,0.7368164c0.2841797-0.1638184,0.5960693-0.3088379,0.9538574-0.4226074
			c0.4356689-0.1381836,0.8483887-0.1960449,1.2376709-0.1728516c0.1246338,0.0048828,0.2250977,0.0400391,0.3022461,0.104248
			c0.0770264,0.0639648,0.1278076,0.1416016,0.1520996,0.232666c0.0240479,0.0905762,0.020874,0.1826172-0.0092773,0.2744141
			c-0.0308838,0.0927734-0.0926514,0.1745605-0.1861572,0.2468262c-0.0932617,0.0725098-0.2188721,0.1130371-0.3745117,0.1206055
			c-0.3127441,0.015625-0.6308594,0.074707-0.9521484,0.1765137c-0.3225098,0.1025391-0.668457,0.2790527-1.0383301,0.5302734
			c-0.4901123,0.3327637-0.8098145,0.6975098-0.9594727,1.0949707c-0.1507568,0.3972168-0.1157227,0.7575684,0.1020508,1.081543
			c0.1643066,0.2443848,0.3830566,0.3825684,0.6568604,0.4135742c0.2739258,0.0314941,0.6416016-0.052002,1.1043701-0.251709
			l1.2264404-0.5405273c0.7501221-0.3242188,1.3726807-0.4597168,1.8679199-0.4082031
			c0.4934082,0.052002,0.8848877,0.2993164,1.1739502,0.7421875c0.2250977,0.3449707,0.322876,0.7163086,0.2941895,1.1142578
			C18.0437832,20.6084652,17.9055996,21.0007992,17.65975,21.3889828z M19.4038906,17.9509945
			c-0.1732178,0.0268555-0.3288574-0.0493164-0.3476563-0.1704102c-0.0187988-0.1208496,0.1064453-0.2404785,0.2797852-0.2675781
			c0.1732178-0.0268555,0.3288574,0.0493164,0.3476563,0.1704102
			C19.7024746,17.8040218,19.5772305,17.9238949,19.4038906,17.9509945z M20.4059658,18.6292171
			c-0.1480713,0.15625-0.4613037,0.1210938-0.5472412-0.090332c-0.0732422-0.1804199,0.1568604-0.4775391,0.3232422-0.2783203
			c0.0401611,0.0478516,0.0566406,0.1191406,0.112793,0.1467285c0.0407715,0.0200195,0.0933838,0.0109863,0.1296387,0.0383301
			c0.0275879,0.0209961,0.0380859,0.0595703,0.0318604,0.09375C20.4501553,18.5735531,20.4298916,18.6038265,20.4059658,18.6292171z
			 M20.7383633,17.4417171c-0.1567383,0.1064453-0.3356934,0.1159668-0.4000244,0.0214844
			c-0.0643311-0.0947266,0.0107422-0.2575684,0.1673584-0.3640137c0.1567383-0.1064453,0.3359375-0.1159668,0.4001465-0.0212402
			C20.9700527,17.17243,20.8951015,17.3352718,20.7383633,17.4417171z"/>
		<g>
			<path d="M52.4392776,5.8827085c-0.4655914,1.0803871-1.2617722,1.9359889-2.1522293,2.6415138
				c-0.909687,0.6848345-1.8998528,1.229991-3.0365677,1.5164032c0.7276726-0.9249735,1.6011543-1.5976505,2.4520264-2.272862
				C50.5734673,7.1159182,51.4154816,6.4539075,52.4392776,5.8827085z"/>
			<path d="M47.9188194,5.0127616c-0.0863686,0.7367711-0.2168846,1.448029-0.4049301,2.1485591
				c-0.1152534,0.3733368-0.1295204,0.7060838-0.2853851,1.0220442c-0.1456528,0.3194256-0.3388977,0.6176929-0.7253761,0.8976688
				c-0.2340775-0.4224377-0.2295418-0.8160868-0.1567459-1.1810331c0.037159-0.1839228,0.1080627-0.3581285,0.1951027-0.5295825
				c0.1178436-0.1765451,0.1877785-0.3009233,0.2668839-0.469995C47.1243591,6.255322,47.4564705,5.6042929,47.9188194,5.0127616z"
				/>
			<path d="M51.4304848,10.2569857c-0.5569191,0.3747473-1.1233788,0.6945438-1.7168732,0.9649677
				c-0.328331,0.1330738-0.5603065,0.3214769-0.8700714,0.3843946c-0.3059654,0.0740223-0.6253662,0.0967388-1.0529327-0.0448837
				c0.148674-0.4308472,0.4241066-0.6601114,0.7195511-0.8193636c0.1492157-0.0801182,0.3120613-0.1279745,0.4827003-0.1622057
				c0.1939468-0.0135355,0.3167267-0.0323086,0.4807777-0.0707083
				C50.1042633,10.3731775,50.7502785,10.2480097,51.4304848,10.2569857z"/>
		</g>
		<path d="M14.6069956,43.20121c1.0573759,2.3148727,3.4914942,3.9339752,6.0351553,4.0144081
			c1.5271721,0.0482864,3.0303574-0.414196,4.4201756-1.0490112c2.3241081-1.0615578,4.4188633-2.6219749,6.1012897-4.5449448
			c-2.9820576,3.0099564-7.4585037,4.4607773-11.6392345,3.7722816c0.9347382-0.2773819,1.8060741-0.7661858,2.5300312-1.4193001
			c-1.6683025,0.3842239-3.4709015,0.154438-4.98946-0.6360321c1.1138668,0.2900658,2.2198429-0.4586678,3.0560646-1.2495956
			c0.9204712-0.8706131,1.7402077-1.8473167,2.4411106-2.9026527c0.3504639-0.5276871,0.6712914-1.075119,0.9601974-1.6388702
			c0.1882305-0.3673019,0.7002239-1.1057396,0.5586319-1.504303c-1.6941166,2.7529221-3.9236908,4.9783401-6.9141426,6.3039551
			C16.3432217,42.7122269,15.4853058,43.0002937,14.6069956,43.20121z"/>
		<path class="st0" d="M14.3502932,49.6664581c0.1161299,0.6564941-0.2615032,1.3682899-0.870204,1.6402321
			c-0.6087008,0.271946-1.3908501,0.0782967-1.8023558-0.4462357c-0.2711563-0.3456306-0.4247751-0.8363533-0.8381386-0.9850769
			c-0.3910341-0.140686-0.8316317,0.1238632-1.0435333,0.4813538c-0.2119007,0.3574905-0.2568102,0.7854042-0.3247929,1.1953773
			c-0.0679817,0.409977-0.176939,0.8399925-0.4761868,1.1283531c-0.4628134,0.4459763-1.2438097,0.3900566-1.7880173,0.048111
			s-0.9070978-0.9018784-1.2524023-1.4439621"/>
	</g>
</g>
</svg>
