<?xml version="1.0" encoding="utf-8"?>
<!-- Generator: Adobe Illustrator 22.0.1, SVG Export Plug-In . SVG Version: 6.00 Build 0)  -->
<svg version="1.1" id="Layer_1" xmlns="http://www.w3.org/2000/svg" xmlns:xlink="http://www.w3.org/1999/xlink" x="0px" y="0px"
	 viewBox="0 0 58 58" style="enable-background:new 0 0 58 58;" xml:space="preserve">
<style type="text/css">
	.st0{fill:none;stroke:#000000;stroke-width:0.5;stroke-linecap:round;stroke-linejoin:round;stroke-miterlimit:10;}
	.st1{fill:none;stroke:#010101;stroke-width:0.5;stroke-linecap:round;stroke-linejoin:round;stroke-miterlimit:10;}
	.st2{fill:none;stroke:#000000;stroke-linecap:round;stroke-linejoin:round;stroke-miterlimit:10;}
	.st3{fill:none;stroke:#000000;stroke-width:1.5;stroke-linecap:round;stroke-linejoin:round;stroke-miterlimit:10;}
	.st4{fill:#010101;}
	.st5{fill:#040301;}
	.st6{fill:none;stroke:#010101;stroke-width:0.5;stroke-miterlimit:10;}
</style>
<g id="Business_Deal">
	<g>
		<path class="st0" d="M14.7784443,43.628746c-0.0500002-0.0200005-0.0900002-0.0400009-0.1300001-0.0600014
			c-0.5599995-0.2700005-1.0699997-0.6499977-1.5899992-1.0200005c-0.0100002-0.0099983-0.0100002-0.0099983-0.0200005-0.0099983
			c-0.3999996-0.2799988-0.8000002-0.5499992-1.2299995-0.7700005c-0.4200001-0.2099991-0.8500004-0.4000015-1.2800007-0.5900002
			c-0.0199995-0.0099983-0.0500002-0.0299988-0.0799999-0.0400009"/>
		<path class="st0" d="M35.9784431,38.498745c0.2800026,0.7400017,0.5900002,1.4599991,1.0100021,2.1300011
			c0.4599991,0.7399979,1.1300011,1.25,1.9399986,1.5999985c0.7799988,0.3300018,1.8899994,0.6000023,2.6599998,0.2299995
			c-0.0999985,1-0.7799988,2.2700005-1.6100006,2.8400002c-0.8199997,0.5699997-2.1299973,0.4099998-3.0999985,0.1500015
			c0.3100014,0.6800003,0.5,1.9799995-0.0299988,2.5099983c-0.5200005,0.5300026-1.5200005,0.5800018-2.2000008,0.2800026
			c-0.1199989,0.9599991-1.3300018,1.5-2.2400017,1.1800003c-0.1599998,0.6699982-0.7099991,1.1399994-1.3599987,1.3699989
			s-1.210001,0.1199989-1.7600002-0.2999992c-0.3099995-0.2299995-0.6700001-0.3899994-1.0499992-0.5200005"/>
		<path class="st0" d="M15.4084444,28.3487453c0.4099998-0.0499992,0.8200006-0.1100006,1.2200003-0.1800003
			c0.8600006-0.1499996,1.7600002-0.1899986,2.5900002-0.3899994c0.9699993-0.2299995,1.8299999-1.0499992,2.8299999-1.3099995
			c0.9899998-0.25,2.0599995-0.210001,3.0699997-0.2800007c1.0100002-0.0799999,1.960001,0.1800003,2.9699993,0.4699993
			c1.3400002,0.3900013,2.6599998,0.710001,3.460001,1.8700008c0,0,0,0.0100002,0.0100002,0.0100002"/>
		<path class="st0" d="M44.3467026,26.7881985c-0.8825951,0.5712204-1.8160477,1.0914688-2.7884521,1.4908695
			c-0.972393,0.3993969-2.0636559,0.3916321-3.0924339,0.6074238c-0.8735008,0.1832218-1.7653885,0.4951153-2.6537476,0.4464245
			c-1.0667076-0.0584679-2.0991135-0.2029991-3.1275749-0.482769c-0.790266-0.2149754-1.5954571-0.4509754-2.4012413-0.6525497
			c-0.812809-0.2033329-1.6469154-0.4258785-2.4608002-0.4900169c-0.8278847-0.0652409-1.6143703,0.3606548-2.4279461,0.5710392
			c-0.8523197,0.2204018-1.7074757,0.3843536-2.4006271,0.9105415c-0.6845074,0.5196266-1.3713131,1.1171532-1.8800697,1.8330631
			c-0.5041199,0.709383-0.7601547,1.5864754-1.0717754,2.3895912c-0.4201031,1.0826912-0.5707436,2.401886,0.3528728,3.1059074
			c0.7800579,0.5945969,1.9092178,0.5850601,2.8015747,0.1779556c0.9168587-0.4182777,1.6261044-1.2225609,2.4307499-1.8292732
			c0.8046436-0.6067085,1.6048641-1.2314415,2.2592144-1.9978714c-0.4334316,0.6565552-0.2653484,1.5758057,0.1527214,2.2422447
			c0.4180717,0.6664391,1.0968208,1.0735016,1.7840443,1.4564476c0.7894382,0.4399033,1.6513367,0.6396751,2.5150986,0.9027824
			c0.8634834,0.2630234,1.6606674,0.9139023,2.5600815,0.9967155c0.899395,0.0828094,1.8511086,0.024765,2.7480927-0.0761642
			c0.8972778-0.1009598,1.6858025-0.713726,2.5422897-1.002079"/>
		<path class="st0" d="M30.2345867,39.1352463c1.8397808,2.7481232,3.9188976,4.6833382,6.7917004,6.3216209"/>
		<path class="st0" d="M28.3997917,41.4690895c1.8553715,2.6169167,4.1229095,4.9409943,6.6933479,6.8602409"/>
		<path class="st0" d="M27.0813351,43.4963913c1.083189,2.4996414,3.049921,4.6057854,5.4696445,5.8573608"/>
		<path class="st0" d="M41.5843735,42.4558372c0.8429985-0.1653481,2.2485466-0.7837639,2.9939194-1.2108574
			c0.8262291-0.4734192,1.8003044-0.6843491,2.7483673-0.5951424"/>
		<path class="st0" d="M15.1408291,45.9665642c-0.5881662-1.0385895-0.3725338-2.3300552-0.2353153-3.5157089
			c0.1168976-1.0100708,0.2124043-2.2055779,1.0670843-2.756424c0.5797186-0.3736305,1.3654699-0.2460556,1.9529924,0.115181
			c0.5875206,0.3612366,0.9880409,0.9909248,0.9162788,1.6768723c0.2912521-0.6075096,1.0136967-0.9449501,1.6739922-0.8111343
			c0.6602974,0.1338196,1.1937313,0.7516289,1.2254715,1.4245987c0.7934036-0.6626816,2.0152321-0.6425247,2.822403,0.003315
			c0.8071728,0.6458435,1.0026989,1.8143349,0.5301952,2.7337799c0.4013977-0.3892937,1.0914516-0.3707161,1.5730686-0.0866127
			s0.7495537,0.830761,0.896944,1.3701553c0.1473923,0.5393944,0.1596489,1.0991516,0.1750736,1.6581116
			c0.0175419,0.6357422-0.0481586,1.7428017,0.4947224,2.1855278c0.2250366,0.1835175,0.6350193,0.2424431,0.7703724,0.4993439
			c0.1215706,0.2307434-0.0437241,0.6024551-0.2072105,0.8056602c-0.1634865,0.2032089-0.3760204,0.4447594-0.6214409,0.5330238
			c-0.7063427,0.2540321-1.5565586,0.1383553-2.2608471-0.1172028s-1.2942944-0.8633614-1.6733665-1.5112495
			c-0.5133324,0.4738312-1.3129787,0.6981735-1.9661846,0.4505005c-0.6532078-0.2476768-1.0805359-0.9823341-1.1506653-1.6773911
			c-0.6779194,0.2473297-1.4808979,0.1759186-2.0793533-0.2273178c-0.5984573-0.4032326-1.045908-1.0704498-1.0712547-1.7916336
			C17.1389046,47.7249451,15.5826397,46.7467194,15.1408291,45.9665642z"/>
		<path class="st0" d="M18.9841003,41.2500534c-0.5682564,0.7739067-0.8287716,1.7392502-0.8980446,2.6968765
			c-0.0692711,0.9576225-0.217905,2.0768967-0.1078892,3.0306969"/>
		<path class="st0" d="M21.7415676,42.0811729c-1.7584209,1.8268967-1.7001686,4.6083794-0.7191963,6.9466019"/>
		<path class="st0" d="M25.2043533,44.8518524c-1.3520336,1.4426918-1.5200806,3.5009041-0.9788342,5.4025917"/>
		<line class="st0" x1="27.8186436" y1="49.1469955" x2="27.7506733" y2="50.6106834"/>
		<path d="M12.7666521,35.8636131c0.7591543-1.7241745,1.3665247-3.5294685,2.0406408-5.2888355
			c0.1813126-0.4732056,0.3626251-0.9464092,0.5439377-1.4196148c0,0,4.6796303-0.9562988,5.5576668-1.455183l-3.7194862,1.7990398
			c0.1746407,0.033802,0.3492832,0.0676022,0.5239258,0.1014042c0.1499634,0.029026,0.2999268,0.0580521,0.449892,0.0870762
			c0.1006546,0.0194817,0.3703327,0.0192146,0.3877811,0.1450939c0.0157909,0.113905-0.1475182,0.140522-0.2259293,0.1778145
			c-0.1295395,0.0616093-0.2590866,0.1232033-0.3886318,0.1848049c-0.265564,0.1262817-0.5311279,0.2525635-0.7966919,0.3788452
			c-0.5246506,0.249485-1.0493031,0.49897-1.5739565,0.748455c-0.0923424,0.043911-0.4475565,0.1512623-0.2583084,0.2619934
			c0.1238508,0.0724659,0.5209017-0.0376797,0.665205-0.0512543c0.1338186-0.0125866,0.2675905-0.0260086,0.4014845-0.0377655
			c0.042099-0.0036964,0.0795994-0.0128727,0.116478,0.0111351c0.1020508,0.0664349,0.0083447,0.1097565-0.0465012,0.1373959
			c-0.0875759,0.0441303-0.1673775,0.1254406-0.2437973,0.1866589c-0.1638565,0.1312618-0.3247366,0.2662392-0.4824953,0.4047737
			c-0.3155251,0.2770691-0.6185608,0.5683594-0.9079828,0.8725929c-0.578845,0.6084671-1.1032639,1.2687492-1.5642595,1.9707489
			C13.077364,35.3350182,12.9175568,35.5967941,12.7666521,35.8636131z"/>
		<g>
			<path d="M14.7948284,26.3632584c-1.0749645-0.3315029-1.0558033-0.3936424-2.1307545-0.7251854
				s-1.1050901-0.2338448-2.180028-0.5654316c-0.6478882-0.1999512-1.1507568,0.0666389-1.3407593,0.7175179
				c-0.3921576,1.3435268-0.6329861,1.2732334-1.025135,2.6167641c-0.3922033,1.3437176-0.1947012,1.4013653-0.5869045,2.7450829
				c-0.392302,1.3440571-0.5056949,1.3109608-0.8979969,2.6550198c-0.3929348,1.3462219-0.2198434,1.3967438-0.6127782,2.7429695
				s-0.610939,1.2825928-1.0038648,2.6288223c-0.1732788,0.59375,0.1476407,1.3425331,0.7184415,1.5808144
				c1.5178185,0.6335526,1.5818396,0.4801788,3.099649,1.1137543c0.6303101,0.2631836,1.3231297,0.0036888,1.5700169-0.6332741
				c0.5184526-1.3376236,0.648963-1.2870407,1.1674128-2.6246681c0.5185223-1.3378143,0.2608328-1.4376945,0.779355-2.7755051
				c0.5186539-1.3381538,0.6206264-1.2986298,1.1392803-2.6367836c0.5194893-1.3403091,0.5010576-1.3474522,1.0205469-2.6877613
				c0.5194893-1.3403111,0.67838-1.2787285,1.1978474-2.6190472C15.9637346,27.2393646,15.4680462,26.5707779,14.7948284,26.3632584
				z M7.1123633,40.6538315c-0.5324707-0.1958008-1.0307441-0.6731834-1.2114692-1.2107811
				c-0.199707-0.5942383-0.0887818-1.3047981,0.1173949-1.8970833c0.2391357-0.6870117,0.5873661-2.23312,1.2725468-2.6320457
				c-0.0097046,0.4179688-0.3739524,1.0320015-0.4659934,1.4528999c-0.1185303,0.5422363,0.0203729,1.1132545,0.0638909,1.6684303
				c0.0957031,1.2202148,0.7405367,2.5031586,1.9308448,2.7880707C8.2531109,40.7928047,7.6448951,40.849144,7.1123633,40.6538315z
				 M11.4282341,29.7413158c-0.6507568,0-1.2261219-0.6401672-1.2261219-1.2910461
				c0-0.6506348,0.5753651-1.3282585,1.2261219-1.3282585s1.3230867,0.6776237,1.3230867,1.3282585
				C12.7513208,29.1011486,12.0789909,29.7413158,11.4282341,29.7413158z"/>
		</g>
		<path d="M15.5309553,43.518631c0.0547552,0.8666992,0.390398,1.7134285,0.9443235,2.3822517
			c-0.2586288-0.3122749-0.3158417-1.0412712-0.3624344-1.4300194c-0.0598583-0.4994278-0.0551186-1.0065117,0.0139675-1.5047417
			c0.0282116-0.2034607,0.3872128-1.149025,0.2876186-1.279213c-0.1356335-0.1772995-0.5361309,0.1397438-0.6214314,0.2463531
			C15.4869156,42.3158226,15.5016737,43.0551567,15.5309553,43.518631z"/>
		<path d="M21.3389969,44.5094109c-0.1660728,0.8654175,0.0271626,1.7941513,0.5246353,2.5215111
			c-0.1077232-0.8316994-0.2131538-1.6893959,0.0072575-2.4985619c0.1381321-0.5070953,0.430521-0.9913979,0.8495045-1.3146744
			c0.2068253-0.159584,0.4383221-0.2702866,0.6920223-0.3314857c0.1092396-0.0263481,0.2273273-0.0197067,0.3152866-0.0862732
			c-0.2514801-0.2114029-0.8760128-0.1116142-1.1670723-0.0386162
			C21.8165569,42.9479256,21.4710941,43.8210526,21.3389969,44.5094109z"/>
		<path d="M24.8226242,49.9424782c0.3260555,0.5651817,0.9157028,0.9706993,1.5601292,1.0729523
			c-1.0461826-0.708107-1.6444378-2.0262032-1.488657-3.2798538C24.3895779,48.3896065,24.4658985,49.2290268,24.8226242,49.9424782
			z"/>
		<path d="M41.6316376,28.8083324c0.2220268,0.8043671,0.4440536,1.6087322,0.6660805,2.4130974
			c0.1110153,0.4021816,0.2220993,0.8043461,0.3330421,1.2065487c0.0679893,0.2464828,0.293499,0.64217,0.1270714,0.8830376
			c-0.5906525-0.8614349-1.1584549-1.659277-1.979599-2.3270988c-0.1270485-0.1033459-0.2388229-0.2473679-0.3783989-0.3326855
			c-0.1680298-0.1027069-0.3945007-0.1497822-0.580471-0.2160664c0.1590309,0.4802113,0.318058,0.9604225,0.4770889,1.4406338
			c0.0495186,0.1495342,0.0996895,0.3041172,0.0866318,0.4610958s-0.1060562,0.3184547-0.2574692,0.3618965
			c-0.1708717-0.6230583-0.569912-1.1808224-1.1044235-1.5437222c-0.5836868-0.3962879-1.4586372-0.6321774-2.1399956-0.3980713
			c0.5560837,0.2957611,0.9542732,0.87076,1.0355301,1.4953403c-1.2569389-1.0252533-2.8078766-1.6858292-4.4180527-1.8817368
			c1.0254936,0,2.0625381,0.029026,3.0949364-0.0503883c1.6238823-0.1707954,3.2196693-0.6197834,4.6881332-1.3351192
			C41.3992195,28.9278679,41.5158691,28.8689423,41.6316376,28.8083324z"/>
		<g>
			<path d="M39.6134529,39.0092545c0.1601067-0.1019478,0.3741379-0.1120834,0.5441933-0.0270844
				c0.1697502,0.0848465,0.3352661,0.3421288,0.3063049,0.5362625c-0.0167465,0.1122589-0.0985451,0.2124062-0.2051964,0.2512321
				c-0.0692139,0.0251999-0.1463051,0.0260201-0.2128716,0.0575638c-0.0756226,0.0358353-0.1295395,0.1075249-0.2049828,0.1437416
				c-0.1004944,0.0482445-0.2261429,0.0231476-0.3145142-0.0447998c-0.3100891-0.2384262-0.2282372-0.663559,0.0391006-0.8822403
				C39.580822,39.0313873,39.5968475,39.019825,39.6134529,39.0092545z"/>
			<path d="M40.7190781,41.1956139c0.0417709-0.0269432,0.0697594-0.0701828,0.0964622-0.1121101
				c0.0428429-0.0672646,0.0856857-0.1345291,0.1285324-0.2017975c0.0250244-0.0392876,0.0509949-0.0819626,0.048645-0.1284828
				c-0.0122223-0.2421341-0.5250015-0.2818985-0.6273422-0.0770493
				C40.2681389,40.8708153,40.4459801,41.3717651,40.7190781,41.1956139z"/>
			<path d="M42.1630058,40.1274338c0.0335617-0.0216484,0.0560455-0.0563927,0.0775032-0.0900764
				c0.0344238-0.0540466,0.0688477-0.1080894,0.1032715-0.1621361c0.0201035-0.0315666,0.0409737-0.0658531,0.0390854-0.1032333
				c-0.0098228-0.1945457-0.4218216-0.2264938-0.5040474-0.0619049
				C41.8006897,39.8664703,41.9435806,40.2689629,42.1630058,40.1274338z"/>
		</g>
		<g>
			<path d="M23.6132202,38.3909836c0.1601067-0.1019478,0.3741398-0.1120872,0.5441933-0.0270882
				c0.1697483,0.0848465,0.3352661,0.3421288,0.3063049,0.5362663c-0.0167465,0.1122551-0.0985432,0.2124062-0.2051945,0.2512321
				c-0.0692158,0.0251961-0.146307,0.0260201-0.2128716,0.0575638c-0.0756245,0.0358353-0.1295433,0.1075211-0.2049847,0.1437378
				c-0.1004963,0.0482483-0.226141,0.0231514-0.3145142-0.0447998c-0.3100891-0.2384224-0.2282352-0.6635551,0.0391026-0.8822365
				C23.5805912,38.4131165,23.5966148,38.4015541,23.6132202,38.3909836z"/>
			<path d="M24.7188454,40.577343c0.0417728-0.0269432,0.0697575-0.0701866,0.0964622-0.1121101
				c0.0428429-0.0672684,0.0856876-0.1345329,0.1285324-0.2017975c0.0250225-0.0392876,0.0509949-0.0819626,0.0486469-0.1284828
				c-0.0122223-0.2421379-0.5250053-0.2819023-0.6273441-0.0770493
				C24.2679043,40.2525444,24.4457474,40.7534943,24.7188454,40.577343z"/>
			<path d="M26.1627731,39.5091629c0.0335617-0.0216484,0.0560474-0.0563927,0.0775032-0.0900764
				c0.0344238-0.0540466,0.0688477-0.1080933,0.1032696-0.1621361c0.0201073-0.0315666,0.0409756-0.0658569,0.0390873-0.1032333
				c-0.0098209-0.1945457-0.4218216-0.2264977-0.5040474-0.0619049
				C25.8004589,39.2481995,25.9433479,39.650692,26.1627731,39.5091629z"/>
		</g>
		<g>
			<path d="M53.0598183,40.3076363c-0.3930321-1.52211-0.3691635-1.5282745-0.7622108-3.0503769
				c-0.3930969-1.522316-0.342247-1.5354462-0.7353477-3.0577621c-0.3931999-1.5227013-0.4474564-1.5086899-0.8406563-3.0313911
				c-0.3938332-1.525156-0.5222778-1.4919891-0.916111-3.0171432c-0.3938332-1.525156-0.4722748-1.5049019-0.8660889-3.0300617
				c-0.1929932-0.7475586-0.8775139-1.2410946-1.6095695-0.9957333c-1.1688423,0.3916359-1.1269226,0.5167503-2.2957764,0.9083519
				s-1.1488304,0.4513988-2.3177071,0.8429317c-0.7045288,0.2358398-1.1013145,0.8453674-0.8546104,1.5462952
				c0.5092468,1.4466877,0.3932266,1.4875278,0.9024887,2.9342136c0.5093307,1.4468842,0.7316971,1.3686066,1.2410278,2.8154945
				c0.5094604,1.4472504,0.3534241,1.5021782,0.8628845,2.9494286c0.5102844,1.449585,0.6264725,1.4086838,1.1367569,2.8582687
				c0.5102806,1.4495811,0.3570175,1.5035324,0.8672829,2.953125c0.2250366,0.6394043,0.9427948,0.938736,1.6031952,0.7859039
				c1.7560463-0.4057541,1.7604561-0.386673,3.5165291-0.7923088
				C52.7212143,41.7584152,53.2469521,41.0324898,53.0598183,40.3076363z M46.9222565,26.3912487
				c-0.7925415-0.3588867-1.8845367-0.2186356-2.539444,0.3541183c0.1877441-0.1633301,0.3501549-0.3736649,0.537899-0.5369949
				c-0.2020416,0.1507034-0.390316,0.6923847-0.228653,0.4990063c0.6726685-0.651123,1.5615578-1.2435207,2.4637184-0.9937649
				c0.736084,0.2038574,1.3732948,0.8673038,1.6242104,1.5887394s0.1271439,1.5092411,0.1369095,2.272913
				c-0.1885376-0.6181641-0.4358215-1.1664238-0.7504578-1.7311211
				C47.8517418,27.2794476,47.5111237,26.6578503,46.9222565,26.3912487z M49.3653069,39.3934097
				c-0.583313,0-0.9570503-0.3984642-0.9570503-0.9817162c0-0.5834961,0.3737373-0.9047737,0.9570503-0.9047737
				s0.9606285,0.3212776,0.9606285,0.9047737C50.3259354,38.9949455,49.9486198,39.3934097,49.3653069,39.3934097z"/>
		</g>
		<path d="M39.1280632,12.3448c-0.359436-1.4492188-1.1347656-2.7299805-2.1008301-3.7412109
			C36.0160637,7.5698981,34.7014885,6.9297614,33.3083,6.5249763c-1.3369141-0.3818359-2.8088379-0.6628418-4.2694702-0.3032227
			c-1.4492188,0.3708496-2.6400757,1.2807617-3.6514282,2.2583003c-1.0335693,1-1.977417,2.1794434-2.3817139,3.5615234
			c-0.3821411,1.3483887-0.4046021,2.8762207-0.0449829,4.3256845c0.572998,2.3144531,2.1682739,4.1906738,4.1119995,5.269043
			c0.2583618,0.1350098,0.5280151,0.2585449,0.8201294,0.3598633l0.7977905,2.2695313l1.3370972-1.8540039
			c0.9099731,0.0673828,1.8311768,0.0112305,2.6288452-0.1347656c1.213501-0.2246094,2.3707886-0.6967773,3.3818359-1.3818359
			c0.4943848-0.3371582,1.1235352-0.7529297,1.4606323-1.2473145c0.3370972-0.5056152,0.5280151-1.168457,0.7976685-1.7189941
			C39.1393547,16.2322521,39.622509,14.3111086,39.1280632,12.3448z M25.2310295,11.8406496
			c-0.4475098,1.3220215-0.4870605,2.7790527-0.1121216,4.1237793c-0.4707642-0.2817383-0.7531738-0.7138672-0.9004517-1.2158203
			c-0.3239746-1.1032715,0.0050049-2.5424805,0.4193726-3.4526367c0.2834473-0.6188965,0.6799927-1.1853027,1.1607666-1.6672363
			c0.5633545-0.5646973,1.055542-0.9855957,1.8477173-1.1320801C26.5318718,9.3369875,25.6784782,10.5186281,25.2310295,11.8406496z
			 M34.2000847,15.8557863c-0.1541748,0.3432627-0.4050903,0.6464853-0.7501831,0.9108896
			c-0.2987671,0.2280273-0.6630249,0.4111328-1.071167,0.5646973l0.1864624,0.7873535
			c0.0264282,0.1118164,0.0053711,0.2172852-0.0629272,0.3173828s-0.1713486,0.1674805-0.3080444,0.201416
			c-0.1367188,0.0339355-0.2573853,0.0224609-0.3630981-0.0344238c-0.1068115-0.0566406-0.1729736-0.1403809-0.199707-0.2519531
			l-0.1829834-0.7631836c-0.4436646,0.0898438-0.8647461,0.1416016-1.2509155,0.1340332
			c-0.454834-0.0087891-0.8468628-0.0595703-1.177124-0.1520996c-0.1223145-0.0327148-0.2167358-0.0898438-0.2854004-0.1704102
			c-0.0687866-0.0812988-0.1044312-0.1704102-0.1082153-0.2680664c-0.0047607-0.0966797,0.0203857-0.1872559,0.0723877-0.2705078
			c0.052002-0.0830078,0.1265259-0.1437988,0.2225342-0.1818848c0.0961914-0.0375977,0.2169189-0.0397949,0.3634644-0.0058594
			c0.2695313,0.0737305,0.5952759,0.1186523,0.9751587,0.1362305c0.3807983,0.017334,0.8264771-0.0371094,1.3382568-0.1645508
			c0.4115601-0.1022949,0.7385864-0.232666,0.9801025-0.3911133c0.2417603-0.157959,0.4074707-0.3325205,0.4961548-0.5234385
			c0.0889282-0.1904297,0.1085205-0.392334,0.0588989-0.6054688c-0.0404053-0.1730957-0.1192627-0.3122559-0.237854-0.4174805
			c-0.1173706-0.1047363-0.286438-0.1777344-0.506958-0.2185059c-0.2218018-0.0405273-0.5033569-0.050293-0.8480225-0.0283203
			l-1.239624,0.0742188c-0.7313232,0.0400391-1.3063354-0.0517578-1.7249756-0.2749023
			c-0.4182739-0.223877-0.6914063-0.5888672-0.8166504-1.0947266c-0.098877-0.3999023-0.0766602-0.7832031,0.0668945-1.151123
			c0.1439209-0.3679199,0.3939209-0.6948242,0.7481689-0.9785156c0.31427-0.251709,0.7080688-0.4465332,1.1585693-0.6013184
			l-0.1960449-0.817627c-0.0280151-0.1169434-0.0072632-0.2277832,0.0632935-0.333252
			c0.069519-0.1052246,0.1740112-0.1750488,0.3146362-0.2099609c0.1329956-0.0332031,0.2562256-0.0200195,0.3696289,0.0397949
			c0.1133423,0.0595703,0.1827393,0.1481934,0.2104492,0.2651367l0.192688,0.8137207
			c0.3057861-0.0524902,0.630127-0.0793457,0.9850464-0.0634766c0.4317627,0.0197754,0.8171997,0.1032715,1.1552124,0.2509766
			c0.1089478,0.045166,0.1867676,0.1091309,0.2342529,0.1911621c0.0475464,0.0822754,0.0671997,0.1677246,0.059021,0.2563477
			c-0.0083008,0.0883789-0.0411987,0.1689453-0.0979004,0.2404785c-0.0576782,0.0722656-0.1392822,0.125-0.2459106,0.1584473
			c-0.1065063,0.0339355-0.2312622,0.0288086-0.3718872-0.0153809c-0.2827148-0.0883789-0.5845337-0.1396484-0.9031372-0.1542969
			c-0.3197632-0.0144043-0.6845093,0.0292969-1.0950928,0.1315918c-0.5438232,0.1352539-0.9467163,0.3547363-1.2095337,0.6584473
			c-0.2636108,0.3034668-0.3503418,0.6347656-0.2628784,0.9936523c0.06604,0.270752,0.2150879,0.4648438,0.4481201,0.5817871
			c0.2329102,0.1174316,0.5865479,0.1635742,1.0627441,0.1374512l1.2655029-0.0791016
			c0.7718506-0.0427246,1.3688354,0.0402832,1.791687,0.2478027c0.4210815,0.2075195,0.6878662,0.5549316,0.7996826,1.0427246
			C34.3900261,15.1502199,34.3556023,15.5117922,34.2000847,15.8557863z M35.8688469,14.0193605
			c0.0228271-0.1135254,0.1731567-0.1789551,0.3357544-0.1462402s0.2758789,0.1513672,0.2530518,0.2646484
			c-0.0228271,0.1135254-0.1731567,0.1789551-0.3357544,0.1462402S35.8460197,14.1328859,35.8688469,14.0193605z
			 M36.863903,15.1504641c-0.0166626,0.0283203-0.0444946,0.048584-0.0739746,0.0629883
			c-0.1825562,0.0905762-0.4492188-0.0429688-0.4564209-0.2587891c-0.0061035-0.184082,0.2952881-0.3725586,0.3779907-0.1413574
			c0.0198975,0.0556641,0.0113525,0.1242676,0.052124,0.1669922c0.0297241,0.0310059,0.0794067,0.0402832,0.1026001,0.076416
			C36.8839226,15.0845461,36.8805046,15.1221437,36.863903,15.1504641z M37.4730339,14.2681398
			c-0.1739502,0.0432129-0.3360596-0.0068359-0.3621826-0.1118164s0.093689-0.2250977,0.2675781-0.2685547
			c0.1738892-0.0432129,0.3360596,0.0068359,0.3621826,0.1118164S37.6469231,14.2246828,37.4730339,14.2681398z"/>
	</g>
</g>
</svg>
