<?xml version="1.0" encoding="utf-8"?>
<!-- Generator: Adobe Illustrator 26.0.1, SVG Export Plug-In . SVG Version: 6.00 Build 0)  -->
<svg version="1.1" id="Layer_1" xmlns="http://www.w3.org/2000/svg" xmlns:xlink="http://www.w3.org/1999/xlink" x="0px" y="0px"
	 viewBox="0 0 56 56" style="enable-background:new 0 0 56 56;" xml:space="preserve">
<style type="text/css">
	.st0{fill:none;stroke:#000000;stroke-width:0.5;stroke-linecap:round;stroke-linejoin:round;stroke-miterlimit:10;}
	.st1{fill:#FFFFFF;}
	.st2{fill:none;stroke:#000000;stroke-linecap:round;stroke-linejoin:round;stroke-miterlimit:10;}
	.st3{fill:none;stroke:#000000;stroke-width:0.75;stroke-linecap:round;stroke-linejoin:round;stroke-miterlimit:10;}
	
		.st4{fill:none;stroke:#000000;stroke-width:0.5;stroke-linecap:round;stroke-linejoin:round;stroke-dasharray:2.8838968,2.8838968;}
	.st5{fill:none;stroke:#030303;stroke-width:0.5;stroke-linecap:round;stroke-linejoin:round;stroke-miterlimit:10;}
	.st6{stroke:#000000;stroke-width:0.5;stroke-linecap:round;stroke-linejoin:round;stroke-miterlimit:10;}
	
		.st7{fill:none;stroke:#000000;stroke-width:0.5;stroke-linecap:round;stroke-linejoin:round;stroke-dasharray:3.0119359,3.0119359;}
	.st8{fill:#030303;}
	.st9{fill:none;stroke:#FFFFFF;stroke-width:0.25;stroke-linecap:round;stroke-linejoin:round;stroke-miterlimit:10;}
	.st10{fill:none;stroke:#000000;stroke-width:0.5;stroke-linecap:round;stroke-linejoin:round;stroke-dasharray:3.444118,3.444118;}
	
		.st11{fill:none;stroke:#000000;stroke-width:0.5;stroke-linecap:round;stroke-linejoin:round;stroke-dasharray:3.3281221,3.3281221;}
</style>
<g id="Face_Scan">
	<g>
		<path class="st0" d="M17.5280342,18.8082695c-0.8274326,0.3805447-1.4599266,1.1603317-1.6615429,2.048481
			c-0.2016163,0.8881512,0.0321989,1.8645973,0.6142273,2.5650997c0.5820274,0.7005024,1.5864487,1.111372,2.4965038,1.0758648"/>
		<path class="st0" d="M37.3157616,18.5385628c0.8274345,0.3805447,1.6061745,1.2300568,1.8077888,2.118206
			c0.2016182,0.8881512-0.0321999,1.8645973-0.6142273,2.5650997s-1.6453743,1.1135006-2.5554314,1.0779934"/>
		<path class="st0" d="M22.7911797,34.7712708c-0.0699997,0-0.1499996,0.0199966-0.2299995,0.0399971
			c-0.2399998,0.0800018-0.4500008,0.2800026-0.4700012,0.5300026c-0.0099983,0.2099991,0.1300011,0.4099998,0.3000011,0.5299988
			c0.1800003,0.1199989,0.3899994,0.1699982,0.6000004,0.2200012c0.9899998,0.2299995,2.0100002,0.3899994,3.0299988,0.4599991
			h0.0100002c0.1599998,0.0200005,0.3000011,0.0299988,0.460001,0.0400009
			c0.5199986,0.0299988,1.0299988,0.0399971,1.5499992,0.0199966c0.2399998,0.0100021,0.4799995,0,0.7199993-0.0199966
			c0.6300011-0.0300026,1.25-0.0900002,1.8700008-0.1800003c0.3899994-0.0500031,0.7800007-0.0800018,1.1599998-0.1800003
			c0.1599998-0.0400009,0.3300018-0.1000023,0.4799995-0.1900024c0,0,0.0100021,0,0.0100021-0.0099983
			c0.0099983,0,0.0099983,0,0.0199966-0.0099983c0.1200027-0.0700035,0.2200012-0.1600037,0.2800026-0.2800026
			c0.1599998-0.2999992-0.0800018-0.5999985-0.3500023-0.7199974c-0.0699997-0.0300026-0.1499977-0.0500031-0.2299995-0.0700035"/>
		<path class="st0" d="M22.3839092,34.8997116c-2.8304825,0.6636581-5.7659912,1.747364-7.8304434,3.794342
			c-1.6780291,1.6638222-2.7107191,3.8891449-3.2979794,6.1780777c-0.5872612,2.2889328-0.7588062,4.660965-0.9279699,7.017971"/>
		<path class="st0" d="M32.301712,35.0579453c2.8304825,0.6636543,5.8133202,1.6990356,7.8777695,3.7460098
			c1.6780319,1.663826,2.7107201,3.8891449,3.2979813,6.1780815c0.5872612,2.2889328,0.7588043,4.660965,0.9279709,7.017971"/>
		<path class="st0" d="M16.4797516,51.8900185c-0.1369801-2.1123123,0.0387535-4.2446404,0.5197029-6.3060265"/>
		<path class="st0" d="M38.8352127,51.9150505c0.136982-2.1123123-0.0006905-3.7827988-0.4816399-5.8441849"/>
		<path d="M22.7811871,34.7812767c-0.0900269,0.3399658-0.1900024,0.6799927-0.2999878,1
			c-0.1100464-0.0700073-0.1900024-0.1700439-0.2300415-0.2900391c-0.0700073-0.2199707,0.0100098-0.4799805,0.2000122-0.6099854
			C22.5411968,34.811245,22.6611919,34.7812767,22.7811871,34.7812767z"/>
		<path d="M32.5211754,35.7012596c-0.0299683,0.0899658-0.1300049,0.2199707-0.2399902,0.2700195
			c-0.0900269-0.2900391-0.1799927-0.5900269-0.25-0.9000244c0.1300049,0.0499878,0.2700195,0.1199951,0.3699951,0.2199707
			C32.5011559,35.4012718,32.5611534,35.561245,32.5211754,35.7012596z"/>
		<ellipse cx="27.9554424" cy="42.2667999" rx="1.1303074" ry="1.2621766"/>
		<ellipse cx="27.9554424" cy="47.3330421" rx="1.1303074" ry="1.2621766"/>
		<path class="st0" d="M32.3012047,36.0312767c-3.4400005,0.8499756-6.7200298,0.8200073-9.8200054-0.2400513
			c0.4599609-1.3999634,0.8399658-3.0699463,0.8599854-4.539978c1.1400146,0.7600098,2.460022,1.2299805,3.8200073,1.2600098
			c1.4299927,0.0299683,2.8300171-0.4299927,4.039978-1.2000122c0.1000366-0.0299683,0.2000122-0.0599976,0.2999878-0.0999756
			C31.5011578,32.7312279,31.8311749,34.5712547,32.3012047,36.0312767z"/>
		<path class="st0" d="M32.3012047,36.0312767c-3.4400005,0.8499756-6.7200298,0.8200073-9.8200054-0.2400513
			c0.4599609-1.3999634,0.8399658-3.0699463,0.8599854-4.539978c1.1400146,0.7600098,2.460022,1.2299805,3.8200073,1.2600098
			c1.4299927,0.0299683,2.8300171-0.4299927,4.039978-1.2000122c0.1000366-0.0299683,0.2000122-0.0599976,0.2999878-0.0999756
			C31.5011578,32.7312279,31.8311749,34.5712547,32.3012047,36.0312767z"/>
		<path class="st0" d="M22.4811993,35.7812767c0.0199585,0.0199585,0.039978,0.0299683,0.0700073,0.0299683
			c-0.0200195,0-0.0500488-0.0100098-0.0700073-0.0200195V35.7812767z"/>
		<path class="st0" d="M36.767231,19.9087868c-0.176384,2.1061153-0.4911461,3.5530281-1.1524773,5.4042702
			s-1.6399651,3.6259327-3.0803337,4.9808369c-1.4403706,1.3549023-3.3785801,2.2586498-5.3689499,2.2159023
			c-1.9035625-0.0408859-3.7274647-0.9450283-5.0788803-2.267313c-1.3514156-1.3222866-2.2595844-3.0360012-2.8378048-4.8244476
			s-0.867218-3.642086-1.0708694-5.5084152c-0.1483097-1.3591614-0.5247135-2.7454033-0.2985668-4.0938005
			c0.2261448-1.3483973,0.8941193-2.6621599,2.0070229-3.4563656c0.9841938-0.7023544,2.2147942-0.9452572,3.4070911-1.1461744
			c2.2249355-0.3749304,4.4642601-0.6644697,6.7113876-0.8677654c1.0730114-0.0970745,2.1833248-0.1702747,3.2017117,0.1813879
			c0.8121376,0.2804422,1.5010872,0.8141766,2.0872002,1.4316235c0.5337639,0.5623035,1.1445122,1.2481756,1.5408974,1.9113483
			c0.4562988,0.7634125,0.297493,2.16294,0.2403679,3.0124025C37.0069656,17.8943939,36.85186,18.8981361,36.767231,19.9087868z"/>
		<polyline class="st0" points="15.6356812,7.7367454 10.8333893,7.7367454 10.8333893,12.3207512 		"/>
		<polyline class="st0" points="39.6985054,7.7367454 44.6207237,7.7367454 44.6207237,12.3207512 		"/>
		<polyline class="st0" points="39.8735657,31.0461617 44.6758575,31.0461617 44.6758575,26.4621563 		"/>
		<polyline class="st0" points="15.8107405,31.0461617 10.8885212,31.0461617 10.8885212,26.4621563 		"/>
		<line class="st2" x1="13.2904158" y1="21.8419399" x2="42.0693932" y2="21.8419399"/>
		<path d="M26.0535736,31.633604c-2.901186-0.817646-5.2254353-3.4012489-5.7327576-6.3724537
			C21.6539803,27.7246914,23.7257423,30.0755444,26.0535736,31.633604z"/>
		<path d="M32.7752037,7.5689349c-1.3124371-2.7627563-4.4555645-3.9989624-7.3828106-3.4356079
			c-1.8858643,0.362915-3.6133423,1.489502-4.7059326,3.0689087c-0.4327393,0.6255493-0.7758179,1.3253789-1.3274536,1.8491216
			c-0.432373,0.4105225-0.9710693,0.69104-1.4312134,1.0701904c-1.4985962,1.2347412-1.9725952,3.3892822-1.6779175,5.3085327
			c0.2628174,1.7116699,1.0396118,3.2890015,1.8612671,4.8209839c0.0733032,0.1365356,0.2799683,0.0817261,0.2750244-0.0731812
			c-0.0309448-0.9709473-0.010437-1.9481201,0.2875977-2.8671875c0.3625488-1.1178589,1.2283325-2.1497192,2.383728-2.3646851
			c0.9729614-0.1810913,1.9473267,0.2301636,2.9290161,0.3554688c1.5214233,0.1942749,3.119812-0.3441772,4.2136841-1.4193115
			c0.4533691-0.4456177,0.8514404-0.9955444,1.4492798-1.2116699c0.7280273-0.2631836,1.5681763,0.041687,2.2977905-0.21698
			c0.8989239-0.3186646,1.3102398-1.3756104,1.3559551-2.328186C33.3453941,9.2461205,33.1522179,8.3624535,32.7752037,7.5689349z
			 M17.7577496,13.0568504c0.28479-0.2406006,0.569519-0.4812622,0.8543091-0.7219238
			c-0.3419189,0.8198853-0.6837769,1.6397095-1.0256348,2.4595947c0.1853638-0.1420898,0.3706665-0.2841797,0.5559692-0.4262085
			c-0.3913574,1.1923218-0.4728394,2.4660645-0.2077026,3.692688c-0.8201904-1.1801147-1.1919556-2.6640625-1.0250244-4.0915527
			c0.1668701-1.4274292,0.8709717-2.7855835,1.9413452-3.7446289
			C18.5098248,11.1730003,18.0989361,12.1086693,17.7577496,13.0568504z M24.3944073,5.4461322
			c1.2394409-0.6446533,2.7151489-0.8217773,4.0718994-0.4886475c1.3568115,0.3331299,2.5827026,1.1734619,3.3826904,2.3187866
			C29.6175518,5.90414,27.0061016,5.2436175,24.3944073,5.4461322z"/>
		<path d="M35.5559654,8.2032738c-0.0345459-0.0196533-0.0691528-0.0391235-0.1040039-0.0582886
			c-0.8127441-0.4465947-1.8588257-0.7239995-2.7844849-0.7916875c-0.5494385,0.2675171-0.9901104,0.8007817-1.2258892,1.3645635
			s-0.258667,1.213623-0.0631714,1.7926025c0.2085571,0.6178589,0.595459,1.2434082,1.1085186,1.645813
			c0.0709229,0.055603,0.1411133,0.1121826,0.2105713,0.1696167c0.2952271,0.2442627,0.5769653,0.5048218,0.8439941,0.7796631
			c0.2670288,0.2747803,0.5192871,0.5638428,0.7559204,0.8651733c0.2366943,0.3014526,0.4577026,0.6152344,0.6621704,0.9395142
			c0.2044678,0.3243408,0.392395,0.6591797,0.5628052,1.0026855c0.1704102,0.3434448,0.3233643,0.6956177,0.4579468,1.0546875
			c0.1344604,0.3588867,0.2506104,0.7247314,0.3474121,1.0955811c0.0967407,0.3707275,0.1741943,0.74646,0.2313232,1.1253052
			c0.0285645,0.1894531,0.052063,0.3796387,0.0703735,0.5703125c0.0091553,0.0953979,0.0170288,0.1908569,0.0235596,0.286499
			c0.0032959,0.0477905,0.0062256,0.0955811,0.0088501,0.1434326c0.0023193,0.0419312-0.0098267,0.0894775,0.0363159,0.1110229
			c0.0791626,0.0369263,0.097168-0.0846558,0.1178589-0.1362915c0.0299072-0.0744629,0.0598145-0.1489258,0.0896606-0.2233887
			c0.0598145-0.1489258,0.1195679-0.2978516,0.1793213-0.4467773c0.3864746-0.9629517,0.6334839-1.9814453,0.9856567-2.9581299
			C39.1552696,13.5273705,38.4844933,9.8823509,35.5559654,8.2032738z M36.7642174,12.5849876
			c-0.0328979,0-0.0595703-0.0591431-0.0595703-0.1321411c0-0.072937,0.0266724-0.1320801,0.0595703-0.1320801
			s0.0595093,0.0591431,0.0595093,0.1320801C36.8237267,12.5258446,36.7971153,12.5849876,36.7642174,12.5849876z
			 M36.9849205,11.5906029c-0.1133423,0-0.2052002-0.168335-0.2052002-0.3760376s0.0918579-0.3760986,0.2052002-0.3760986
			s0.2052002,0.168396,0.2052002,0.3760986S37.0982628,11.5906029,36.9849205,11.5906029z M37.640316,12.4528465
			c-0.0313721,0-0.0567627-0.1231689-0.0567627-0.2751465s0.0253906-0.2752075,0.0567627-0.2752075
			c0.031311,0,0.0567017,0.12323,0.0567017,0.2752075S37.671627,12.4528465,37.640316,12.4528465z"/>
		<path d="M11.8758392,48.9441795c0.1886454-2.2424202,0.5725374-4.5000153,1.5169077-6.5426102
			s2.5000839-3.8668213,4.5536737-4.7870407c-1.0500507,0.8263245-1.9473228,1.8968658-2.6236877,3.0492287
			c0.4309187-0.1973076,0.8618374-0.394619,1.292757-0.5919266c-0.9920731,1.0560722-1.8298492,2.2568588-2.4785452,3.5525017
			c0.3031054-0.4131126,0.7473927-0.7206116,1.2407942-0.8587799C13.7351484,44.513443,12.36164,46.5953026,11.8758392,48.9441795z"
			/>
		<ellipse cx="35.6693153" cy="38.070816" rx="0.543179" ry="0.2839345"/>
		<ellipse cx="37.4953384" cy="38.7497902" rx="0.346695" ry="0.1975196"/>
		<ellipse cx="36.0396652" cy="39.5151787" rx="0.543179" ry="0.3209694"/>
		<ellipse cx="32.0753593" cy="14.8453913" rx="0.2263638" ry="0.4263286"/>
		<ellipse cx="33.1364136" cy="15.0585556" rx="0.1725192" ry="0.2131643"/>
		<circle cx="32.5472031" cy="16.4053841" r="0.245479"/>
		<path d="M12.2504253,19.9547997c-0.9700317,0-1.7564087,0.786377-1.7564087,1.7564087s0.786377,1.7564087,1.7564087,1.7564087
			s1.7564087-0.786377,1.7564087-1.7564087S13.2204571,19.9547997,12.2504253,19.9547997z M10.9938335,21.7560081
			c-0.0079956-0.6122437,0.4103394-1.2068481,0.9893188-1.4060669c-0.3711548,0.3461914-0.5961914,0.8873901-0.5775757,1.3946533
			s0.2185059,1.072998,0.6140747,1.3911133C11.435606,22.9516869,11.0018902,22.3683128,10.9938335,21.7560081z"/>
		<path d="M43.9160728,19.9547997c-0.9700928,0-1.7564697,0.786377-1.7564697,1.7564087s0.786377,1.7564087,1.7564697,1.7564087
			c0.9700317,0,1.7564087-0.786377,1.7564087-1.7564087S44.8861046,19.9547997,43.9160728,19.9547997z M42.5579185,21.7560081
			c-0.0080566-0.6122437,0.4102783-1.2068481,0.9892578-1.4060669c-0.3711548,0.3461914-0.5961914,0.8873901-0.5775757,1.3946533
			s0.2185669,1.072998,0.6140747,1.3911133C42.999691,22.9516869,42.5659142,22.3683128,42.5579185,21.7560081z"/>
	</g>
</g>
</svg>
