<?xml version="1.0" encoding="utf-8"?>
<!-- Generator: Adobe Illustrator 22.0.1, SVG Export Plug-In . SVG Version: 6.00 Build 0)  -->
<svg version="1.1" id="Layer_1" xmlns="http://www.w3.org/2000/svg" xmlns:xlink="http://www.w3.org/1999/xlink" x="0px" y="0px"
	 viewBox="0 0 56 56" style="enable-background:new 0 0 56 56;" xml:space="preserve">
<g id="Availability_Time">
	<path d="M42.1493225,40.4096794c5.6280594-4.2349358,6.836422-12.2766819,2.6987305-17.9785156
		c-2.0004883-2.7568359-4.9414063-4.5512695-8.28125-5.0522461c-6.8847504-1.0340214-13.3509693,3.789465-14.408205,10.8383789
		c-0.5097656,3.3955078,0.3105469,6.7832031,2.3100586,9.5385742C28.5965137,43.4443932,36.501133,44.6601563,42.1493225,40.4096794
		z M22.6527386,28.2915154c0.9294777-6.1906548,6.1783333-10.5532227,12.0429707-10.5532227
		c3.7286568,0,7.3710327,1.7109032,9.7475586,4.9863281c3.9766045,5.4809685,2.8171387,13.2136078-2.5947266,17.2856445
		c-5.4049339,4.0670776-12.9992828,2.9317818-16.9750996-2.5478516
		C22.9515667,34.813488,22.1625042,31.5566521,22.6527386,28.2915154z"/>
	<path d="M31.0809002,40.5050774c0.5010376,0.0752563,0.9692402-0.2770996,1.0457783-0.7869263
		c0.0764771-0.5098267-0.2676411-0.9840698-0.7686787-1.0592651s-0.9692383,0.2770996-1.0457153,0.7869263
		C30.2357464,39.9556389,30.5798626,40.429882,31.0809002,40.5050774z"/>
	<path d="M44.0600281,34.6616936c0.5010376,0.0751953,0.9692383-0.2770996,1.0457764-0.7869263
		s-0.2676392-0.9840698-0.7686157-1.0592651c-0.5010376-0.0752563-0.9692383,0.2770996-1.0457764,0.7869263
		S43.5589905,34.5864983,44.0600281,34.6616936z"/>
	<path d="M25.5542278,26.6409416c0.5010376,0.0751953,0.9692383-0.2770996,1.0457764-0.7869263
		c0.0764771-0.5098267-0.2676392-0.9840698-0.7686768-1.0592651s-0.9692383,0.2770996-1.0457153,0.7869263
		C24.709074,26.0915031,25.0531902,26.5657463,25.5542278,26.6409416z"/>
	<path d="M51.0917053,19.0024529c-0.1727295-0.5860596-0.4522095-1.1304932-0.8032837-1.6226807
		c0.1618462-0.18116-0.0935898,0.3219013,1.5010376-4.2152109c0.2598953-0.7883873-0.2754059-1.6057844-1.1254883-1.7963867
		l-21.4838886-4.796875c-0.8242188-0.1835938-1.6318359,0.2836914-1.8022461,1.0429688
		c-0.9966335,4.5019245-0.9353981,4.0862103-0.9330444,4.2455444c-2.9693375,1.0548592-4.3039303,4.1837816-3.4346313,6.8960581
		c0.0063477,0.0197144,0.0238037,0.0301514,0.0341797,0.0469971c-2.2977295,2.4312134-3.8140869,5.5038452-4.3232422,8.8983154
		c-0.6752033,4.4947739,0.4437389,9.168129,3.6087036,12.9889526c-0.0339966,0.0498657-0.0628052,0.1036987-0.1000366,0.1509399
		c-2.256197,3.7057838-2.5125465,3.9100304-2.5378418,4.5102539c-0.0075665,0.8274498,0.7376099,1.5960503,1.6592407,1.3522339
		c0.0863647-0.0239258,0.18396-0.0621338,0.2537231-0.1221313c0.311552-0.1218758,0.3146305-0.2113266,3.9971313-2.8965454
		c0.7807617,0.5361938,1.6035767,1.0031128,2.4682007,1.3908081c0.6695557,0.3981934,1.3747559,0.7445679,2.1083374,1.041687
		c-0.2970753,1.8135643-2.2120419,3.0790596-3.8969116,2.7371216c-1.0620079-0.2155762-2.1054249-0.9719086-3.3012695-0.8374023
		c-1.051672,0.1238365-1.8349285,0.9034157-2.6557617,1.4643555c-2.1376953,1.4555664-5.1508789,1.4975586-7.3276367,0.1010742
		c-2.9043169-1.8636627-3.8079538-5.8961067-2.4086914-8.3110352c0.2915039,0.5405273,0.7138672,1.1459961,1.3330078,1.5327148
		c1.4183369,0.8865776,3.2207584,0.1281128,3.059082-1.5527344c-0.1986609-2.0899811-2.805829-2.5119324-4.2973633-0.9418945
		c-1.4033203-3.2763672-1.1689453-6.9667969,0.6455078-9.9316406c1.8713541-3.0572033,5.9826241-7.2495804,4.3705444-11.395752
		c2.443922-1.1139679,3.9036522-3.250658,4.2559204-5.6135263c0.7333584-4.9107981-3.5025616-9.1386623-8.4293823-8.3796387
		c-3.6425171-0.2033081-6.9024048,2.3908081-7.4472046,6.0612183c-0.5671384,3.8209839,2.015564,7.3806772,5.7936401,8.0537119
		c1.7386875,0.7065487,3.5673828,0.7484035,5.3666992,0.0723877c1.4868412,3.8634377-2.5416155,8.0090523-4.3369751,10.9408569
		c-1.9438477,3.1762695-2.15625,7.1450195-0.5722656,10.6293945c-1.7205915,2.4862976-0.9296322,7.1224365,2.3979492,9.2568359
		c2.3376617,1.5000648,5.5788441,1.457531,7.878418-0.1088867c0.8095303-0.5499878,1.5300255-1.2745056,2.4331055-1.3803711
		c1.0139484-0.1250725,2.0296783,0.6041336,3.1430664,0.8305664c1.9240723,0.3900642,4.0582218-0.9883499,4.4650879-3.0386963
		c2.3132801,0.8502502,4.795927,1.1603203,7.4099751,0.8226318c1.7051582,3.0694237,1.7267456,3.2103958,2.1680298,3.4832153
		c0.7177887,0.411747,1.7525558,0.1382675,1.9914551-0.784668c0.0214233-0.0870972,0.0358887-0.1908569,0.0177002-0.2810669
		c0.0311661-0.2236214,0.0271912-0.134201-0.3811035-3.4041748c8.7665176-3.5081329,12.6649818-13.8793182,8.4299927-22.354126
		C51.1570129,22.4275017,51.5242004,20.4705925,51.0917053,19.0024529z M21.559782,43.9486198
		c-0.1342773,0.1252441-0.2804565,0.2655029-0.3074341,0.4509888c-0.0134277,0.0623779-0.0136108,0.1230469,0.0245972,0.1652832
		c0.0724564,0.101593,0.3933735,0.1224098,0.5180054,0.1281738c-0.1163635,0.0406036-0.7732906,0.288517-0.8094482,0.4084473
		c-0.020874,0.0565796,0.0335693,0.1235962,0.0967407,0.1491089c0.057373,0.032959,0.1310425,0.0301514,0.1810303,0.057312
		c-0.455534,0.1687164-0.5336761,0.6405525-0.2834473,0.8590698l0.0219727,0.017334
		c-0.1093731,0.0938263-0.4111519,0.1350594-0.6449585,0.0028687c-0.2367554-0.1377563-0.3685303-0.4238281-0.3664551-0.6532593
		c0.0132713-0.3156471,0.1193008-0.3766251,1.3417969-2.3847046c0.0809326,0.0029907,0.1633911,0.019165,0.2340088,0.0504761
		c0.1562519,0.0406837,0.3460484,0.1050987,0.402832,0.2442627c0.0162258,0.0511856,0.0113297,0.1064301-0.0239258,0.1513672
		l0.0309448-0.024231l0.0501709-0.0335083C21.9617081,43.6189842,22.0953293,43.4493103,21.559782,43.9486198z
		 M14.4828167,41.2993279c0.1217155,1.2749634-1.248847,1.7349205-2.296875,1.0810547
		c-0.6108398-0.3813477-1.0117188-1.0400391-1.2753906-1.5742188C12.168272,39.2947845,14.3280525,39.6710129,14.4828167,41.2993279
		z M7.1322308,16.37257c-2.2613807-3.0545835-1.6194868-7.3562889,1.4350586-9.6186533
		c4.8532715-3.5939157,11.8028774,0.4346018,10.8935547,6.5405273c-0.2709961,1.8168945-1.2333984,3.4194345-2.7094727,4.5126963
		C13.6782255,20.0832806,9.3810654,19.4088459,7.1322308,16.37257z M41.165802,50.2763176
		c-0.2543945,0.1497803-0.5927734,0.1226807-0.807312-0.0003662c-0.2896271-0.1790657-0.2910614-0.3108063-1.532959-2.5194702
		c0.0681267-0.1115646,0.2300987-0.256958,0.3296509-0.3369141c0.1388855-0.1145935,0.3447571-0.1686287,0.4129639-0.0036621
		l-0.0064087-0.0418701l-0.0050049-0.0648193c0.0410919,0.1001625-0.0442924-0.1020241,0.1400757,0.6551514
		c0.046875,0.1923828,0.1015625,0.4037476,0.2617188,0.5269775c0.1273041,0.1128044,0.2297478,0.0768394,0.3387451-0.0510254
		c0.0828247-0.0899658,0.1577148-0.1989136,0.2233276-0.3040161c-0.0230713,0.1297226-0.1367798,0.8790665-0.043457,0.9762573
		c0.0422363,0.0493774,0.1339722,0.0336914,0.1913452-0.0122681c0.0612183-0.036499,0.0974121-0.1071777,0.149353-0.1398315
		c-0.0818672,0.5169868,0.3203583,0.839489,0.6577148,0.7197876l0.0279541-0.0115967
		C41.5338898,49.8200188,41.4140129,50.1260338,41.165802,50.2763176z M50.01651,23.2641716
		c-0.9775391-1.7906494-2.2874146-3.3796997-3.8569336-4.6779175c-0.9440918-0.9776611-2.00177-1.8458862-3.1729736-2.5606689
		c3.0751877-1.3885908,6.6999435-0.0221462,7.6256104,3.1184692C50.9744568,20.3745842,50.6977234,22.0405998,50.01651,23.2641716z
		 M28.1092815,7.7783308c0.0786133-0.3500977,0.4931641-0.5688477,0.9072266-0.4750977l21.4838886,4.796875
		c0.461956,0.104187,0.6836166,0.5058947,0.5786133,0.8251953l-1.3156738,3.8138437
		c-1.8988037-1.9727373-4.9227371-2.2377729-7.276123-1.0360117c-0.0131226,0.0067139-0.0150757,0.0224609-0.0264282,0.0310059
		c-2.8254433-1.5807076-5.9322243-2.270113-9.3045654-1.9379883c-1.4100285-1.573164-3.6877804-2.5906458-5.9110737-2.1585083
		L28.1092815,7.7783308z M24.3407269,13.9321394c1.0185547-1.2802734,2.7358398-2.0205078,4.3588867-1.8833008
		c1.3935547,0.1161499,2.789856,0.7857056,3.826601,1.8104858c-2.6569233,0.3701782-5.1991596,1.409668-7.4183979,3.0796518
		c-0.5979004,0.4499512-1.1460571,0.947876-1.6705322,1.4662476C23.024931,16.8917961,23.3645916,15.1591291,24.3407269,13.9321394z
		 M19.2152386,27.7754021c1.3082485-8.7148972,9.2946739-14.6757202,17.802248-13.4003916
		c8.5151367,1.2783203,14.3842773,9.3696299,13.0839844,18.0366211c-1.3017578,8.6674805-9.2939453,14.675293-17.8027344,13.4003906
		C23.760561,44.5301857,17.9116535,36.4592438,19.2152386,27.7754021z M51.7746277,30.6332512
		c0.1288528,0.0258007,0.049675,0.6603642-0.060791,0.6382446C51.5900955,31.2714958,51.6557999,30.6332512,51.7746277,30.6332512z
		 M50.9945374,29.3973503c0.0303955-0.2634277,0.1316528-0.4761963,0.2329712-0.4660645
		c0.2481155,0.0248108,0.1321754,0.9959431-0.1013184,0.9725952C51.0350037,29.8937492,50.9742126,29.6707878,50.9945374,29.3973503
		z M50.8121643,31.1803703c-0.1000786,0-0.0521088-0.4761963,0.0404663-0.4761963
		C50.893219,30.7143059,50.8946838,31.2009068,50.8121643,31.1803703z"/>
	<path d="M24.8815594,34.2420769c0.2943115,0.1642456,0.5886841,0.3284302,0.8830566,0.4926147
		c-0.4922485-0.7664795-0.9844971-1.532959-1.4767456-2.2993774c0.3577881,0.1769409,0.7155151,0.3539429,1.0732422,0.5309448
		c-0.9125977-1.2251587-1.5714722-2.6141968-1.9296875-4.0992432c-0.4494019,3.3531494,0.8312988,6.8917236,3.3226929,9.180542
		C26.0271282,36.7738762,25.6084881,35.5157585,24.8815594,34.2420769z"/>
	<path d="M43.7461853,24.8366203c0.2408447,0.0247192,0.4561768-0.1505127,0.480896-0.3913574
		c0.0247192-0.2409058-0.1505127-0.4561768-0.3914185-0.480896c-0.2408447-0.0247192-0.4561768,0.1505127-0.480896,0.3913574
		C43.3300476,24.5966301,43.5052795,24.8119011,43.7461853,24.8366203z"/>
	<path d="M45.0608826,25.3357658c0.0294075-0.2866421-0.4034958-0.3304939-0.4328613-0.0444336
		C44.5986328,25.5775795,45.0314713,25.6222572,45.0608826,25.3357658z"/>
	<path d="M43.6211243,26.0133781c0.1730347,0.0177612,0.3252563-0.0840454,0.3399658-0.227417
		c0.0147095-0.1433105-0.1136475-0.2739258-0.2866821-0.291687c-0.1730957-0.0177612-0.3252563,0.0840454-0.3399658,0.227417
		C43.3197327,25.8650017,43.4480896,25.9956169,43.6211243,26.0133781z"/>
	<path d="M26.802702,13.747508c-0.3397217,0.0170288-0.6794434,0.0339966-1.019165,0.0509644
		c0.5113525-0.5036011,1.0953979-0.9107056,1.7666016-1.164917c-2.0131683,0.3098936-3.5396061,1.9968777-3.6471558,4.031312
		C24.373991,15.3669538,25.497221,14.197093,26.802702,13.747508z"/>
	<path d="M48.9516296,18.5796013c-0.0184937,0.1804199,0.1127319,0.3416748,0.2931519,0.3601685
		c0.1803589,0.0184937,0.3416138-0.1127319,0.3601685-0.2930908c0.0184937-0.1804199-0.1127319-0.3416748-0.2931519-0.3601685
		C49.1313782,18.2679558,48.9701233,18.3991814,48.9516296,18.5796013z"/>
	<path d="M50.2381897,19.4206047c0.0166664-0.1621475-0.2283325-0.1872463-0.2449951-0.0251465
		C49.9862976,19.4630852,50.221508,19.5827255,50.2381897,19.4206047z"/>
	<path d="M49.2350159,19.6195793c-0.023983,0.2333813,0.3287621,0.2694378,0.3526001,0.0361938
		C49.6115913,19.4225788,49.2590103,19.3862,49.2350159,19.6195793z"/>
	<path d="M35.2260437,32.1126823l2.1478882,3.9434814c0.0454102,0.0830078,0.1313477,0.1303711,0.2197266,0.1303711
		c0.1895981,0,0.31007-0.2036629,0.2197266-0.3696289l-2.1287231-3.9082642
		c1.5467873-0.9111385,1.3318825-3.2221947-0.3453979-3.8059082l1.9761963-6.6975098
		c0.4486694,0.0014038,0.8468628-0.3153687,0.916626-0.7799683c0.0765381-0.5098267-0.2675781-0.9840698-0.7686157-1.0593262
		c-0.9687538-0.1453896-1.4703865,1.1678028-0.6310425,1.7098389l-1.9848633,6.7267456
		c-1.0837402-0.0957642-2.0720215,0.6741943-2.2385864,1.7833862
		C32.3837776,31.2862644,33.7543983,32.5490112,35.2260437,32.1126823z M32.9871521,29.7575188
		c0.1101074-0.6585083,0.6207886-1.2331543,1.2618408-1.4197998c-0.3794556,0.3789063-0.6516724,0.8782959-0.7845459,1.3978271
		c0.0767822-0.1766968,0.2231445-0.3221436,0.4003906-0.3978271c-0.4001465,0.5939331-0.465271,1.5315552-0.1462402,2.1727905
		C33.1731262,31.1254997,32.8771057,30.415966,32.9871521,29.7575188z"/>
	<path d="M20.3907757,28.0501823c0.4259033-2.5224609,1.2478638-5.0397339,2.5255127-7.2559814
		c-1.6345825,2.0932007-2.7127686,4.6168823-3.0953369,7.2449951s-0.0686035,5.3544312,0.9014282,7.8267822
		c-0.5644531-2.9477539-0.3373413-6.0919189,0.3688354-9.0090332
		C20.8577557,27.2547112,20.6242962,27.6524773,20.3907757,28.0501823z"/>
	<path d="M42.0345154,17.9422722c0.3865356,0.0396729,0.723877-0.1621094,0.753479-0.4506836
		c0.0296631-0.2885742-0.2597046-0.5546265-0.6462402-0.5942993s-0.723877,0.1621094-0.753479,0.4506836
		C41.3586731,17.6364861,41.6479797,17.9025993,42.0345154,17.9422722z"/>
	<path d="M43.9676208,19.2572136c0.2935181,0.0301514,0.5479736-0.1055298,0.5682373-0.3030396
		c0.0202637-0.1974487-0.2012939-0.381958-0.494873-0.4121094s-0.5479736,0.1055298-0.5682373,0.3030396
		S43.6740417,19.2271233,43.9676208,19.2572136z"/>
	<path d="M7.6126995,10.5722761c0.1347656-0.0302734,0.2197266-0.1635742,0.1899414-0.2983398
		C7.7438455,10.0122013,8.0516882,9.705184,8.6009808,9.816905c0.574913,0.1151085,1.0904484,0.6010866,1.1606445,1.2700195
		c-0.8560095-0.2400026-1.6885548,0.3279247-1.5268555,1.128418c0.1816597,0.9003134,1.5281096,0.9577827,1.9443359-0.3730469
		c0.2471857,0.1847296,0.7348938,0.568738,0.7836914,0.6035156c0.1123047,0.0795898,0.2675781,0.0541992,0.3486328-0.0585938
		c0.0800781-0.1123047,0.0541992-0.2680664-0.0585938-0.3486328c-0.330409-0.2365732-0.6181374-0.5182295-0.9848633-0.7319336
		c0.0465364-1.5283356-1.5892086-2.3930349-2.5107422-1.8569336c-0.3388672,0.1982422-0.5209961,0.581543-0.4428711,0.9326172
		C7.3446331,10.5171003,7.4784222,10.6030378,7.6126995,10.5722761z M8.8480511,12.3178816
		c-0.1504745-0.1000214-0.1726217-0.3628931-0.0649414-0.5244141c0.1465654-0.2195225,0.5008135-0.3548756,0.9448242-0.1928711
		C9.5584688,12.2954035,9.0818501,12.4707499,8.8480511,12.3178816z"/>
	<path d="M10.9603558,10.5507917c0.26581,0.1915607,0.5309687,0.0117178,1.3370972-0.1929932l0.3562622,1.9244385
		c0.0219727,0.1206055,0.1269531,0.2045898,0.2451172,0.2045898c0.0151367,0,0.0307617-0.0014648,0.0458984-0.0043945
		c0.1357422-0.0249023,0.2255859-0.1552734,0.2001953-0.2910156l-0.3640747-1.9703369l0.4485474-0.1268311
		c0.317193-0.0897932,0.1849289-0.5692205-0.1357422-0.4814453l-0.4041138,0.1143188L12.617094,9.3349714
		c-0.0599098-0.3277445-0.5515509-0.23277-0.4921875,0.0908203l0.0811157,0.4381104l-0.8814087,0.2493896
		c-0.0336914,0.0092773-0.0561523,0.0146484-0.0664063,0.0205078c-0.0115137-0.0429144-0.286828-1.4557343-0.2954102-1.4995117
		c-0.0625849-0.3282747-0.5542097-0.2265015-0.4902344,0.0957031C10.7974014,10.389699,10.7634459,10.4098721,10.9603558,10.5507917
		z"/>
	<path d="M15.429594,9.0087996c-0.128418-0.0551758-0.2739258,0.0048828-0.328125,0.1318359l-2.7895508,6.5400391
		c-0.0541992,0.1269531,0.0048828,0.2739258,0.1318359,0.328126c0.1279678,0.0542889,0.2741404-0.0056553,0.328125-0.1318369
		L15.56143,9.3369246C15.6156292,9.2099714,15.5565472,9.0629988,15.429594,9.0087996z"/>
	<path d="M16.8216839,15.9023542c0.0014648,0.137208,0.1132813,0.2470713,0.25,0.2470713c0.0009766,0,0.0019531,0,0.0029297,0
		c0.1381836-0.0014648,0.2485352-0.1147461,0.2470703-0.2529306l-0.0183105-1.5326538
		c0.1923828-0.0507813,0.3841553-0.104248,0.5710449-0.1704712c0.1303711-0.0463867,0.1982422-0.1894531,0.1523438-0.3193359
		c-0.046875-0.1308594-0.1928711-0.1992188-0.3193359-0.1523438c-0.1341553,0.0477295-0.2728271,0.0836182-0.4102783,0.1227417
		c-0.0485897-1.4354439,0.0538635-1.5287266-0.1156006-1.6588745c-0.1749172-0.1343365-0.2380714-0.0041676-2.0244141,0.4267578
		c-0.1333008,0.0351563-0.2138672,0.1713867-0.1791992,0.3051758c0.034668,0.1333008,0.1699219,0.2148438,0.3051758,0.1791992
		l1.5004883-0.3901367l0.0150146,1.2592773c-0.1351929,0.0275269-0.2696533,0.0588989-0.4061279,0.078125
		c-0.3239727,0.045125-0.2627621,0.5366297,0.0693359,0.4951172c0.1152954-0.0162354,0.2284546-0.0441284,0.3428345-0.065918
		L16.8216839,15.9023542z"/>
	<path d="M9.9635906,16.8121452c-0.711731-0.3851318-1.4234619-0.7703247-2.1351929-1.1555185
		c0.2655029,0.0435791,0.5310059,0.0870972,0.7965088,0.1306152c-0.765625-0.505127-1.4376221-1.1216431-1.9801025-1.8612671
		c0.5541921,2.8153105,3.0797606,4.8531351,5.9847412,4.7558603c-1.3653564-0.3078613-2.4786377-0.9646606-3.5418091-1.8748779
		C9.3796673,16.8086662,9.6716595,16.8104362,9.9635906,16.8121452z"/>
	<path d="M15.6089153,6.6917219c0.0346651-0.197896-0.4205399-0.2775831-0.4552002-0.0797119
		C15.1392498,6.6946516,15.5742359,6.8897052,15.6089153,6.6917219z"/>
	<path d="M16.566618,7.2313337c0.0248413-0.1417451-0.3262978-0.2033291-0.3511353-0.0614624
		C16.2051067,7.2291365,16.5417633,7.3732972,16.566618,7.2313337z"/>
	<path d="M15.7820721,7.3487043c0.0188198-0.1073766-0.2608652-0.1566024-0.2796021-0.0490112
		C15.4836454,7.4070945,15.7631931,7.4562731,15.7820721,7.3487043z"/>
</g>
</svg>
