<?xml version="1.0" encoding="utf-8"?>
<!-- Generator: Adobe Illustrator 22.0.1, SVG Export Plug-In . SVG Version: 6.00 Build 0)  -->
<svg version="1.1" id="Layer_1" xmlns="http://www.w3.org/2000/svg" xmlns:xlink="http://www.w3.org/1999/xlink" x="0px" y="0px"
	 viewBox="0 0 75 75" style="enable-background:new 0 0 75 75;" xml:space="preserve">
<g id="Candidate_Info">
	<path d="M8.5611925,27.2462101c3.7111034,4.2045345,7.1791439,8.6850338,10.3551626,13.3344707
		c-3.9744253,3.0383301-6.1652822,8.2060547-5.3390493,12.7070313c0.8812151,4.8003044,4.6662493,12.2416611,7.1113272,16.4633789
		c0.3281403,0.5664749,1.1972656,0.0707245,0.8652344-0.5009766c-2.3721504-4.0966873-6.1341591-11.4638519-6.9931631-16.1430664
		c-0.7573853-4.126709,1.2588501-8.8754883,4.9166861-11.6972656c1.0606079,1.5791016,2.0859985,3.159668,3.0432739,4.739502
		c-1.0921021,1.989502-1.8742065,4.2141113-2.3081055,6.6555176c-0.1155052,0.6498642,0.8680573,0.8280716,0.984375,0.1748047
		c0.5200195-2.9248047,1.5927734-5.6386719,3.1030273-7.8481445c2.8157024-4.1238937,6.3039055-3.1367455,6.7553711-0.6972656
		c0.5083008,2.7524414-2.3930664,7.3276367-4.0263672,8.9072266c-0.2181873,0.210701-0.2064991,0.5921974,0.0664063,0.7773438
		c2.8681507,1.9468117,3.9008198,6.2097626,2.3154297,9.2441406c-0.3076763,0.5905991,0.5815411,1.0465698,0.8867188,0.4628906
		c0.2114258-0.4047852,0.3805542-0.8276367,0.512085-1.2619629c0.7156982,1.9057617,1.0197144,2.6005859,1.2481689,2.8498535
		c0.30056,0.4908752,0.9378738,0.6719284,1.4658203,0.3916016c1.1600952-0.6264648,3.5737305-1.9489746,7.1193848-3.9006348
		c0.3811646,1.9934082,0.2572632,4.0874023-0.3718262,5.9562988c-0.2113838,0.6294556,0.7367363,0.9465179,0.9482422,0.3193359
		c0.7269287-2.1616211,0.8397217-4.5,0.3413086-6.78125c0.1006126-0.0554047,26.4817848-14.5814018,26.7254677-14.8222656
		c0.3352051-0.0269775,0.5193405-0.3426018,0.4420166-0.6259766C65.2277222,33.074131,56.8464928,19.7738075,48.8058205,9.0382023
		c-1.8150215-2.4322076-1.9267502-2.7248573-2.840332-2.7993164c-0.991787-0.0760374-1.9837952,0.4933424-2.9169922,0.7915039
		c-1.476181-1.6533818-1.9156265-2.438241-3.9013672-1.8222656c-8.8472805,2.7638144-17.2530785,6.9202032-24.9980469,12.3579102
		c-2.389452,1.6748047-5.4873924,3.5408459-7.4702153,5.8310547C5.222301,25.067379,7.9299793,26.5213451,8.5611925,27.2462101z
		 M45.8844337,7.2359562c0.418808,0.0336728,0.2337532-0.0778394,2.1206055,2.4018555
		c4.0409431,5.3948956,8.8742752,12.5879097,12.3775024,18.9577637
		c-5.0981903-7.8718834-10.9569664-14.4681931-16.6119385-20.7563477
		C44.4642677,7.5750375,45.2791595,7.1890769,45.8844337,7.2359562z M7.4337506,24.0523624
		c1.8982167-2.1912422,4.859405-3.9629478,7.2895513-5.6679688c7.6855783-5.395009,16.0029488-9.4979448,24.7202148-12.2216797
		c1.1274414-0.3476563,1.3544922-0.15625,2.1259766,0.7119141c1.5276146,1.7464151,4.4053764,4.864707,7.1865234,8.0957031
		c6.7705078,7.9091797,15.0332031,18.5556622,18.8642616,30.7890606c0.04879,0.1508255-0.1630478,0.1634903-0.5263672,0.394043
		C48.2462502,56.5806808,36.1549416,63.247673,33.048008,64.9254074c-0.4960022-0.1675644-0.9674759-1.9461021-1.8959961-4.2978516
		c0.1316948-2.6820831-1.0533199-5.3923492-3.0219727-6.9885254c1.2721558-1.420166,3.2423096-4.364502,3.8184204-7.0737305
		c6.4354248-3.411377,12.7423706-7.2307129,18.7460327-11.357666c0.2275391-0.1567383,0.2851563-0.4677734,0.1289063-0.6953125
		s-0.4677734-0.2851563-0.6953125-0.1289063c-5.776062,3.9707031-11.8373413,7.6467285-18.0206909,10.954834
		c0.1303825-3.559864-3.2906322-4.9958191-6.0466919-3.3786621c-1.2108326,0.709362-2.2296238,2.0099983-2.9707031,3.1928711
		c-5.5669079-9.086338-12.9407654-17.9514008-14.6113272-19.3207989
		C7.6390123,25.1427479,6.9480238,24.6099434,7.4337506,24.0523624z"/>
	<path d="M28.8946877,38.8546066c5.6368065,2.0635071,12.5799255,0.0465927,16.1508789-4.6894531
		c2.8037109-3.7182598,3.5405273-8.932127,1.8769531-13.2822247c-3.977417-10.4007521-20.5916042-12.2974739-26.4921875-0.7944336
		C17.164381,26.4521656,21.2339497,36.0490799,28.8946877,38.8546066z M21.3199806,20.5445499
		c5.5289745-10.7771721,21.0207748-8.8435364,24.6689453,0.6958008c1.5429688,4.0361328,0.859375,8.8730469-1.7421875,12.322752
		c-3.3178711,4.3999023-9.7695313,6.2714844-15.0083008,4.3520508c-4.4604492-1.6333008-7.815918-5.7792969-8.7558594-10.819334
		C20.0045166,24.5343304,20.1637974,22.7978058,21.3199806,20.5445499z"/>
	<path d="M43.1002541,43.1817551l-8.3671875,4.6064453c-0.5781288,0.3188515-0.0962868,1.1929779,0.4824219,0.8759766
		l8.3671875-4.6064453C44.1607018,43.738945,43.6820984,42.8638535,43.1002541,43.1817551z"/>
	<path d="M49.8097267,43.3018723c0.2277298,2.032402,1.1244202,3.8899803,2.0004883,4.9052734
		c-0.3183594,0.6630859-0.8442383,1.2304688-1.4936523,1.5605469c-0.5833435,0.2963028-0.143158,1.1917458,0.453125,0.8916016
		c0.7646484-0.3886719,1.3891602-1.0092773,1.8061523-1.7480469c1.7339172,1.2170067,3.5707436,0.1102371,4.2099609-2.15625
		c0.1881485-0.6643562,0.2992477-1.388237,0.4931641-2.0009766c0.3465195,0.3731766,0.8786583,0.6023903,1.3994141,0.5268555
		c1.0670547-0.1462173,1.3768463-0.8783073,4.3549805-4.4638672c0.4200706-0.5125084-0.3552437-1.1442642-0.7734375-0.6337891
		c-2.8784409,3.4896698-3.148735,4.0289764-3.7172852,4.1074219c-0.3753586,0.0487366-0.7728539-0.359375-0.7246094-0.7207031
		c0.068428-0.5165253-0.603878-0.7800751-0.9047852-0.3535156c-0.7031212,1.0004425-0.7924156,2.2152901-1.0893555,3.2670898
		c-0.4478378,1.5842514-1.5724182,2.5327339-2.8466797,1.4736328c0.6270752-2.1698723-0.58535-4.3670082-2.4746094-5.1708984
		C50.1469154,42.6353226,49.7681274,42.9254036,49.8097267,43.3018723z M52.1398048,46.9742355
		c-0.5273438-0.8276367-0.9150391-1.7456055-1.1455078-2.7001953
		C51.7298851,44.9348526,52.2053528,45.9355927,52.1398048,46.9742355z"/>
	<path d="M28.1029396,30.1214542c3.4745235,8.0842533,15.3622551,3.8867817,13.8469238-3.576416
		c1.0726433-1.7149124,0.4242172-3.6158695-1.0112915-4.1584473c-0.2947502-1.8004875-0.2314758-2.0858307-0.5502319-2.9851074
		c-0.8637276-2.492424-3.4374924-4.7918644-5.8994141-4.2543945c-0.828125,0.1811523-1.6269531,0.7963867-1.9902344,1.6044922
		c-0.9106445-0.7753906-2.2480469-1.0600586-3.3808594-0.609375c-1.1499023,0.4667969-1.9208984,1.6245117-2.015625,2.8339844
		c-2.2081299-0.8679619-4.0485897,1.3747978-3.1923828,3.2836914c0.1501389,0.3364201,0.7646999,1.0686932,0.7011719,1.2592773
		c-0.0644531,0.0244141-0.2807617,0.0151367-0.4101563,0.0092773c-2.066103-0.0886135-3.2531815,2.0889301-2.4267578,4.0483398
		C22.6474113,29.6817837,25.5096436,30.9303417,28.1029396,30.1214542z M40.344883,26.862421
		c-0.4723892,0.3951092,0.071106,1.2602062,0.7224731,0.6914063c0.3353119,5.7578945-9.1457462,8.8944149-12.0437622,2.1967773
		c1.0220051-0.5308781,1.9972343-1.5002804,2.5258789-2.597168c0.8730469,0.300293,1.8657227,0.2524414,2.7026367-0.1474609
		c1.1279297-0.5405273,1.7714844-1.6435547,2.3325195-2.6342773l1.2514648,1.4765625v0.0771484c0,0.6620064,1,0.6612968,1,0
		c0.0036125-0.7221966-0.0569611-1.5506191,0.3847656-2.1777344c0.1009254-0.1081047,0.2257423-0.3161068,0.5112305-0.4365234
		c0.4457703-0.2010326,1.0453148-0.0160408,1.390625,0.3955078C41.7248344,24.4251232,41.6517563,25.7652149,40.344883,26.862421z
		 M23.9293556,24.5201359c0.3373566,0,0.772892,0.0775681,1.1391602-0.1118164
		c0.3706055-0.1948242,0.5043945-0.4658203,0.5517578-0.6591797c0.1829987-0.7520943-0.606411-1.471035-0.7983398-1.8984375
		c-0.2885742-0.6445313-0.0268555-1.4951172,0.5766602-1.8598633c0.5966797-0.3681641,1.4814453-0.2128906,1.9291992,0.3393555
		c0.3482475,0.4299908,1.0353851,0.0534325,0.8632813-0.4707031c-0.3491211-1.0634766,0.2597656-2.3671875,1.2998047-2.7895508
		c1.0375977-0.4135742,2.3818359,0.0996094,2.8774414,1.0976563c0.2528458,0.5113316,1.0314865,0.2617302,0.9414063-0.3012695
		c-0.2078133-1.2947941,1.6767731-2.7073689,4.0141602-1.0151367c0.9638672,0.6933594,1.7167969,1.7158203,2.1210938,2.8813477
		c0.3091431,0.8712807,0.2728577,1.4730225,0.4433594,2.4213867c-0.37743,0.001297-0.6126175,0.1203098-0.8757324,0.2822266
		c-0.4935036,0.3066616-0.992939,1.3808784-1.0993652,1.956543c-0.8939819-0.9821796-1.1511993-1.635807-1.671875-1.3112793
		c-0.4013367,0.2518482-1.0623283,2.3708344-2.4208984,3.0227051c-0.7197266,0.3427734-1.6010742,0.3237305-2.2983398-0.0498047
		c-0.2687893-0.1421185-0.6012478-0.0171452-0.7060547,0.2695313c-0.9360905,2.5608406-3.9789906,3.8694229-6.5332031,2.5112305
		C21.5781078,27.3806953,22.4131069,24.5201359,23.9293556,24.5201359z"/>
</g>
</svg>
